%
M48
M72
T01C0.0236
T02C0.0400
T03C0.1654
%
T01
X3077Y5147
X3814Y5100
X3814Y7100
X3581Y8801
X3814Y10850
X3528Y14295
X3528Y15025
X3528Y15750
X3528Y16217
X3528Y16832
X3814Y18100
X4020Y19100
X4560Y19100
X3965Y19880
X2814Y18600
X2175Y22246
X6604Y21754
X10787Y19047
X13978Y19416
X14185Y18672
X14075Y17846
X14101Y17324
X13855Y16463
X13855Y14987
X13978Y13482
X14975Y13092
X14585Y12572
X13916Y11943
X14066Y11143
X15075Y9858
X15735Y9851
X16254Y9208
X16980Y8527
X15093Y7605
X14900Y6624
X10682Y5946
X10636Y7155
X10664Y9081
X15725Y14261
X17495Y16163
X16692Y16463
X16692Y17324
X16191Y17723
X16569Y18063
X16200Y19416
X16064Y20850
X16064Y21850
X17684Y19458
X18463Y19458
X19153Y20660
X19814Y20350
X19814Y19850
X21601Y18120
X20802Y18029
X20802Y16730
X20282Y16730
X19768Y16730
X18794Y16517
X18825Y15848
X19529Y14618
X18983Y14391
X18983Y13873
X17814Y13100
X19243Y12063
X19243Y11543
X19762Y11543
X20282Y11543
X21564Y11600
X22101Y9994
X22721Y9943
X21013Y9324
X20029Y8538
X19503Y8538
X19503Y10234
X21985Y8155
X21985Y7113
X23705Y7113
X24317Y9058
X24644Y10033
X23865Y11537
X22479Y13202
X21860Y13900
X21122Y15100
X21491Y15476
X20412Y14131
X20022Y13742
X23530Y13765
X23865Y15344
X24495Y15344
X25066Y14987
X24495Y17112
X24847Y18282
X25770Y17084
X24197Y19785
X23231Y22486
X22062Y23486
X20967Y22647
X20260Y23599
X19064Y24509
X22062Y25045
X24745Y24547
X25551Y23107
X27636Y25801
X26629Y26179
X28644Y26179
X27947Y28033
X31542Y26179
X31676Y25435
X31676Y20509
X31314Y17100
X30814Y15100
X27817Y11663
X27817Y10602
X30226Y9450
X30936Y6076
X27814Y3100
X26719Y4902
X20152Y3998
X7815Y1326
X22605Y17112
X18853Y18029
X10910Y24628
T02
X7814Y20100
X7814Y19100
X7814Y18100
X6814Y18100
X6814Y19100
X6814Y20100
X6814Y17100
X7814Y17100
X7814Y16100
X7814Y15100
X7814Y14100
X7814Y13100
X7814Y12100
X7814Y11100
X6814Y11100
X6814Y12100
X6814Y13100
X6814Y14100
X6814Y15100
X6814Y16100
X6814Y10100
X7814Y10100
X7814Y9100
X7814Y8100
X6814Y8100
X6814Y9100
X19814Y3100
X20814Y3100
X21814Y3100
X22814Y3100
X23814Y3100
X24814Y3100
X25814Y3100
X25814Y2100
X24814Y2100
X23814Y2100
X22814Y2100
X21814Y2100
X20814Y2100
X19814Y2100
X25814Y18100
X26814Y18100
X26814Y19100
X26814Y20100
X26814Y21100
X26814Y22100
X25814Y22100
X25814Y21100
X25814Y20100
X25814Y19100
X24814Y29100
X24814Y30100
X23814Y30100
X23814Y29100
X22814Y29100
X22814Y30100
X21814Y30100
X21814Y29100
X20814Y29100
X20814Y30100
X19814Y30100
X19814Y29100
X18814Y29100
X18814Y30100
X17814Y30100
X17814Y29100
T03
X2814Y1600
X31314Y1600
X31314Y30100
X2814Y30100
M30
