G75*
G70*
%OFA0B0*%
%FSLAX24Y24*%
%IPPOS*%
%LPD*%
%AMOC8*
5,1,8,0,0,1.08239X$1,22.5*
%
%ADD10C,0.0040*%
%ADD11C,0.0060*%
%ADD12C,0.0050*%
%ADD13R,0.0200X0.0200*%
%ADD14R,0.0160X0.0340*%
%ADD15R,0.0197X0.0374*%
%ADD16R,0.0374X0.0197*%
%ADD17C,0.0080*%
%ADD18R,0.0193X0.0433*%
%ADD19C,0.0030*%
%ADD20R,0.0860X0.0210*%
%ADD21R,0.1496X0.0217*%
%ADD22R,0.0340X0.0160*%
%ADD23R,0.0400X0.0140*%
%ADD24C,0.0100*%
%ADD25R,0.0472X0.0079*%
%ADD26R,0.0079X0.0472*%
%ADD27R,0.1200X0.0600*%
%ADD28R,0.0300X0.0600*%
%ADD29R,0.0380X0.0850*%
%ADD30R,0.0380X0.0660*%
%ADD31R,0.0295X0.0571*%
%ADD32C,0.0020*%
%ADD33R,0.0450X0.0200*%
%ADD34R,0.0404X0.0157*%
%ADD35R,0.0472X0.0118*%
%ADD36C,0.0300*%
%ADD37R,0.0200X0.0300*%
%ADD38R,0.0400X0.0300*%
%ADD39R,0.0300X0.0300*%
%ADD40R,0.0700X0.0300*%
%ADD41C,0.0025*%
%ADD42C,0.0098*%
%ADD43R,0.0197X0.0256*%
%ADD44R,0.1000X0.0230*%
%ADD45R,0.0210X0.0860*%
%ADD46R,0.0217X0.1496*%
%ADD47R,0.0433X0.0193*%
%ADD48R,0.0118X0.0472*%
%ADD49R,0.0571X0.0295*%
%ADD50C,0.0120*%
%ADD51C,0.0059*%
%ADD52C,0.0010*%
D10*
X003302Y003764D02*
X003302Y004224D01*
X003532Y004224D01*
X003609Y004147D01*
X003609Y003994D01*
X003532Y003917D01*
X003302Y003917D01*
X003456Y003917D02*
X003609Y003764D01*
X003762Y003764D02*
X004069Y003764D01*
X003916Y003764D02*
X003916Y004224D01*
X003762Y004071D01*
X004904Y003360D02*
X005194Y003360D01*
X005204Y002840D02*
X004904Y002840D01*
X004883Y002580D02*
X004730Y002580D01*
X004653Y002504D01*
X004653Y002197D01*
X004730Y002120D01*
X004883Y002120D01*
X004960Y002197D01*
X005113Y002120D02*
X005420Y002120D01*
X005267Y002120D02*
X005267Y002580D01*
X005113Y002427D01*
X004960Y002504D02*
X004883Y002580D01*
X005984Y002519D02*
X005984Y002212D01*
X006061Y002136D01*
X006214Y002136D01*
X006291Y002212D01*
X006444Y002366D02*
X006751Y002366D01*
X006905Y002366D02*
X006905Y002212D01*
X006981Y002136D01*
X007135Y002136D01*
X007212Y002212D01*
X007212Y002289D01*
X007135Y002366D01*
X006905Y002366D01*
X007058Y002519D01*
X007212Y002596D01*
X006995Y002856D02*
X006695Y002856D01*
X006674Y002596D02*
X006444Y002366D01*
X006291Y002519D02*
X006214Y002596D01*
X006061Y002596D01*
X005984Y002519D01*
X006674Y002596D02*
X006674Y002136D01*
X007822Y002156D02*
X007822Y002003D01*
X007899Y001926D01*
X007899Y001772D02*
X007822Y001696D01*
X007822Y001542D01*
X007899Y001465D01*
X008206Y001465D01*
X008283Y001542D01*
X008283Y001696D01*
X008206Y001772D01*
X008283Y001926D02*
X007976Y002233D01*
X007899Y002233D01*
X007822Y002156D01*
X007899Y002386D02*
X007822Y002463D01*
X007822Y002616D01*
X007899Y002693D01*
X007976Y002693D01*
X008053Y002616D01*
X008053Y002463D01*
X007976Y002386D01*
X007899Y002386D01*
X008053Y002463D02*
X008129Y002386D01*
X008206Y002386D01*
X008283Y002463D01*
X008283Y002616D01*
X008206Y002693D01*
X008129Y002693D01*
X008053Y002616D01*
X008140Y002830D02*
X007987Y002983D01*
X008064Y002983D02*
X007834Y002983D01*
X007834Y002830D02*
X007834Y003290D01*
X008064Y003290D01*
X008140Y003213D01*
X008140Y003060D01*
X008064Y002983D01*
X008294Y002906D02*
X008371Y002830D01*
X008524Y002830D01*
X008601Y002906D01*
X008601Y002983D01*
X008524Y003060D01*
X008447Y003060D01*
X008524Y003060D02*
X008601Y003137D01*
X008601Y003213D01*
X008524Y003290D01*
X008371Y003290D01*
X008294Y003213D01*
X008754Y003060D02*
X008985Y003060D01*
X009061Y002983D01*
X009061Y002906D01*
X008985Y002830D01*
X008831Y002830D01*
X008754Y002906D01*
X008754Y003060D01*
X008908Y003213D01*
X009061Y003290D01*
X009268Y003183D02*
X009498Y003183D01*
X009575Y003106D01*
X009575Y002953D01*
X009498Y002876D01*
X009268Y002876D01*
X009421Y002876D02*
X009575Y002722D01*
X009728Y002799D02*
X009805Y002722D01*
X009958Y002722D01*
X010035Y002799D01*
X010035Y002876D01*
X009958Y002953D01*
X009881Y002953D01*
X009958Y002953D02*
X010035Y003029D01*
X010035Y003106D01*
X009958Y003183D01*
X009805Y003183D01*
X009728Y003106D01*
X009268Y003183D02*
X009268Y002722D01*
X010188Y002799D02*
X010265Y002722D01*
X010419Y002722D01*
X010495Y002799D01*
X010495Y002953D01*
X010419Y003029D01*
X010342Y003029D01*
X010188Y002953D01*
X010188Y003183D01*
X010495Y003183D01*
X010860Y002341D02*
X011620Y002341D01*
X011717Y002114D02*
X011717Y001514D01*
X011620Y001286D02*
X010860Y001286D01*
X010767Y001514D02*
X010767Y002114D01*
X010356Y001044D02*
X010049Y001044D01*
X010049Y000814D01*
X010203Y000891D01*
X010280Y000891D01*
X010356Y000814D01*
X010356Y000660D01*
X010280Y000584D01*
X010126Y000584D01*
X010049Y000660D01*
X009896Y000660D02*
X009819Y000584D01*
X009666Y000584D01*
X009589Y000660D01*
X009589Y000967D01*
X009666Y001044D01*
X009819Y001044D01*
X009896Y000967D01*
X009435Y001044D02*
X009282Y001044D01*
X009359Y001044D02*
X009359Y000584D01*
X009435Y000584D02*
X009282Y000584D01*
X008718Y001555D02*
X008718Y001836D01*
X008383Y001836D02*
X008383Y001555D01*
X008283Y001926D02*
X008283Y002233D01*
X006985Y003376D02*
X006695Y003376D01*
X006418Y004764D02*
X006111Y004764D01*
X006264Y004764D02*
X006264Y005224D01*
X006111Y005071D01*
X005804Y005224D02*
X005804Y004764D01*
X005957Y004764D02*
X005650Y004764D01*
X005497Y004764D02*
X005343Y004917D01*
X005420Y004917D02*
X005190Y004917D01*
X005190Y004764D02*
X005190Y005224D01*
X005420Y005224D01*
X005497Y005147D01*
X005497Y004994D01*
X005420Y004917D01*
X005650Y005071D02*
X005804Y005224D01*
X005810Y005732D02*
X005657Y005732D01*
X005580Y005809D01*
X005427Y005732D02*
X005273Y005886D01*
X005350Y005886D02*
X005120Y005886D01*
X005120Y005732D02*
X005120Y006193D01*
X005350Y006193D01*
X005427Y006116D01*
X005427Y005962D01*
X005350Y005886D01*
X005580Y006116D02*
X005657Y006193D01*
X005810Y006193D01*
X005887Y006116D01*
X005887Y006039D01*
X005810Y005962D01*
X005887Y005886D01*
X005887Y005809D01*
X005810Y005732D01*
X005810Y005962D02*
X005734Y005962D01*
X006040Y005809D02*
X006040Y006116D01*
X006117Y006193D01*
X006271Y006193D01*
X006347Y006116D01*
X006040Y005809D01*
X006117Y005732D01*
X006271Y005732D01*
X006347Y005809D01*
X006347Y006116D01*
X006044Y006370D02*
X005583Y006370D01*
X005583Y006600D01*
X005660Y006677D01*
X005813Y006677D01*
X005890Y006600D01*
X005890Y006370D01*
X005890Y006523D02*
X006044Y006677D01*
X006044Y006830D02*
X005737Y007137D01*
X005660Y007137D01*
X005583Y007061D01*
X005583Y006907D01*
X005660Y006830D01*
X006044Y006830D02*
X006044Y007137D01*
X005967Y007291D02*
X005890Y007291D01*
X005813Y007368D01*
X005813Y007521D01*
X005890Y007598D01*
X005967Y007598D01*
X006044Y007521D01*
X006044Y007368D01*
X005967Y007291D01*
X005813Y007368D02*
X005737Y007291D01*
X005660Y007291D01*
X005583Y007368D01*
X005583Y007521D01*
X005660Y007598D01*
X005737Y007598D01*
X005813Y007521D01*
X005890Y007489D02*
X005890Y007719D01*
X005813Y007796D01*
X005660Y007796D01*
X005583Y007719D01*
X005583Y007489D01*
X006044Y007489D01*
X005890Y007642D02*
X006044Y007796D01*
X006044Y007949D02*
X005737Y008256D01*
X005660Y008256D01*
X005583Y008179D01*
X005583Y008026D01*
X005660Y007949D01*
X006044Y007949D02*
X006044Y008256D01*
X005813Y008410D02*
X005813Y008717D01*
X005583Y008640D02*
X005813Y008410D01*
X006044Y008640D02*
X005583Y008640D01*
X005544Y009363D02*
X005544Y009593D01*
X005621Y009670D01*
X005774Y009670D01*
X005851Y009593D01*
X005851Y009363D01*
X006004Y009363D02*
X005544Y009363D01*
X005851Y009516D02*
X006004Y009670D01*
X006004Y009823D02*
X005697Y010130D01*
X005621Y010130D01*
X005544Y010053D01*
X005544Y009900D01*
X005621Y009823D01*
X006004Y009823D02*
X006004Y010130D01*
X005927Y010284D02*
X006004Y010360D01*
X006004Y010514D01*
X005927Y010591D01*
X005774Y010591D01*
X005697Y010514D01*
X005697Y010437D01*
X005774Y010284D01*
X005544Y010284D01*
X005544Y010591D01*
X005583Y010870D02*
X005583Y011100D01*
X005660Y011177D01*
X005813Y011177D01*
X005890Y011100D01*
X005890Y010870D01*
X005890Y011023D02*
X006044Y011177D01*
X006044Y011330D02*
X006044Y011637D01*
X006044Y011484D02*
X005583Y011484D01*
X005737Y011330D01*
X005583Y010870D02*
X006044Y010870D01*
X005813Y011791D02*
X005813Y012098D01*
X005583Y012021D02*
X005813Y011791D01*
X006044Y012021D02*
X005583Y012021D01*
X003454Y010265D02*
X003173Y010265D01*
X003173Y009930D02*
X003454Y009930D01*
X003546Y009437D02*
X003469Y009360D01*
X003546Y009437D02*
X003699Y009437D01*
X003776Y009360D01*
X003776Y009283D01*
X003469Y008976D01*
X003776Y008976D01*
X003930Y008976D02*
X004236Y009283D01*
X004236Y009360D01*
X004160Y009437D01*
X004006Y009437D01*
X003930Y009360D01*
X003930Y008976D02*
X004236Y008976D01*
X003316Y008976D02*
X003162Y009130D01*
X003239Y009130D02*
X003009Y009130D01*
X003009Y008976D02*
X003009Y009437D01*
X003239Y009437D01*
X003316Y009360D01*
X003316Y009206D01*
X003239Y009130D01*
X003173Y008265D02*
X003454Y008265D01*
X003454Y007930D02*
X003173Y007930D01*
X003200Y007830D02*
X003353Y007830D01*
X003430Y007754D01*
X003430Y007677D01*
X003353Y007600D01*
X003430Y007523D01*
X003430Y007447D01*
X003353Y007370D01*
X003200Y007370D01*
X003123Y007447D01*
X002970Y007370D02*
X002663Y007370D01*
X002816Y007370D02*
X002816Y007830D01*
X002663Y007677D01*
X002509Y007754D02*
X002433Y007830D01*
X002279Y007830D01*
X002202Y007754D01*
X002202Y007447D01*
X002279Y007370D01*
X002433Y007370D01*
X002509Y007447D01*
X003123Y007754D02*
X003200Y007830D01*
X003277Y007600D02*
X003353Y007600D01*
X003454Y006265D02*
X003173Y006265D01*
X003173Y005930D02*
X003454Y005930D01*
X003353Y005830D02*
X003430Y005754D01*
X003430Y005677D01*
X003353Y005600D01*
X003200Y005600D01*
X003123Y005677D01*
X003123Y005754D01*
X003200Y005830D01*
X003353Y005830D01*
X003353Y005600D02*
X003430Y005523D01*
X003430Y005447D01*
X003353Y005370D01*
X003200Y005370D01*
X003123Y005447D01*
X003123Y005523D01*
X003200Y005600D01*
X002970Y005370D02*
X002663Y005370D01*
X002816Y005370D02*
X002816Y005830D01*
X002663Y005677D01*
X002509Y005754D02*
X002433Y005830D01*
X002279Y005830D01*
X002202Y005754D01*
X002202Y005447D01*
X002279Y005370D01*
X002433Y005370D01*
X002509Y005447D01*
X002576Y010551D02*
X002269Y010551D01*
X002423Y010551D02*
X002423Y011011D01*
X002269Y010858D01*
X002116Y010935D02*
X002039Y011011D01*
X001885Y011011D01*
X001809Y010935D01*
X001809Y010628D01*
X001885Y010551D01*
X002039Y010551D01*
X002116Y010628D01*
X002729Y010781D02*
X003036Y010781D01*
X002960Y010551D02*
X002960Y011011D01*
X002729Y010781D01*
X008702Y008830D02*
X008702Y008370D01*
X008702Y008523D02*
X008933Y008523D01*
X009009Y008600D01*
X009009Y008754D01*
X008933Y008830D01*
X008702Y008830D01*
X008856Y008523D02*
X009009Y008370D01*
X009163Y008370D02*
X009470Y008370D01*
X009316Y008370D02*
X009316Y008830D01*
X009163Y008677D01*
X009623Y008677D02*
X009623Y008754D01*
X009700Y008830D01*
X009853Y008830D01*
X009930Y008754D01*
X009930Y008677D01*
X009853Y008600D01*
X009700Y008600D01*
X009623Y008677D01*
X009700Y008600D02*
X009623Y008523D01*
X009623Y008447D01*
X009700Y008370D01*
X009853Y008370D01*
X009930Y008447D01*
X009930Y008523D01*
X009853Y008600D01*
X009777Y007830D02*
X009777Y007370D01*
X009930Y007370D02*
X009623Y007370D01*
X009470Y007370D02*
X009163Y007370D01*
X009470Y007677D01*
X009470Y007754D01*
X009393Y007830D01*
X009239Y007830D01*
X009163Y007754D01*
X009009Y007754D02*
X009009Y007600D01*
X008933Y007523D01*
X008702Y007523D01*
X008702Y007370D02*
X008702Y007830D01*
X008933Y007830D01*
X009009Y007754D01*
X008856Y007523D02*
X009009Y007370D01*
X008933Y006830D02*
X008702Y006830D01*
X008702Y006370D01*
X008702Y006523D02*
X008933Y006523D01*
X009009Y006600D01*
X009009Y006754D01*
X008933Y006830D01*
X009163Y006677D02*
X009316Y006830D01*
X009316Y006370D01*
X009163Y006370D02*
X009470Y006370D01*
X009623Y006370D02*
X009623Y006447D01*
X009930Y006754D01*
X009930Y006830D01*
X009623Y006830D01*
X009009Y006370D02*
X008856Y006523D01*
X008933Y005830D02*
X008702Y005830D01*
X008702Y005370D01*
X008702Y005523D02*
X008933Y005523D01*
X009009Y005600D01*
X009009Y005754D01*
X008933Y005830D01*
X009163Y005754D02*
X009239Y005830D01*
X009393Y005830D01*
X009470Y005754D01*
X009470Y005677D01*
X009163Y005370D01*
X009470Y005370D01*
X009623Y005447D02*
X009930Y005754D01*
X009930Y005447D01*
X009853Y005370D01*
X009700Y005370D01*
X009623Y005447D01*
X009623Y005754D01*
X009700Y005830D01*
X009853Y005830D01*
X009930Y005754D01*
X009009Y005370D02*
X008856Y005523D01*
X009623Y007677D02*
X009777Y007830D01*
X011029Y009101D02*
X011182Y009101D01*
X011259Y009178D01*
X011259Y009331D01*
X011182Y009408D01*
X011029Y009408D01*
X010952Y009331D01*
X010952Y009178D01*
X011029Y009101D01*
X010952Y009562D02*
X010952Y009792D01*
X011029Y009869D01*
X011182Y009869D01*
X011259Y009792D01*
X011259Y009562D01*
X011413Y009562D02*
X010952Y009562D01*
X011029Y010022D02*
X010952Y010099D01*
X010952Y010252D01*
X011029Y010329D01*
X011106Y010329D01*
X011106Y010022D01*
X011182Y010022D02*
X011029Y010022D01*
X011182Y010022D02*
X011259Y010099D01*
X011259Y010252D01*
X011259Y010482D02*
X010952Y010482D01*
X010952Y010713D01*
X011029Y010789D01*
X011259Y010789D01*
X011259Y010943D02*
X011259Y011096D01*
X011259Y011020D02*
X010952Y011020D01*
X010952Y010943D01*
X010799Y011020D02*
X010722Y011020D01*
X010952Y011250D02*
X010952Y011480D01*
X011029Y011557D01*
X011259Y011557D01*
X011259Y011864D02*
X010952Y012017D01*
X011029Y012171D02*
X010952Y012247D01*
X010952Y012401D01*
X011029Y012478D01*
X011106Y012478D01*
X011106Y012171D01*
X011182Y012171D02*
X011029Y012171D01*
X011182Y012171D02*
X011259Y012247D01*
X011259Y012401D01*
X011259Y012631D02*
X010952Y012631D01*
X010952Y012784D02*
X011106Y012631D01*
X010952Y012784D02*
X010952Y012861D01*
X010952Y013015D02*
X010952Y013168D01*
X010875Y013091D02*
X011182Y013091D01*
X011259Y013168D01*
X011182Y013322D02*
X011029Y013322D01*
X010952Y013398D01*
X010952Y013552D01*
X011029Y013628D01*
X011106Y013628D01*
X011106Y013322D01*
X011182Y013322D02*
X011259Y013398D01*
X011259Y013552D01*
X011259Y013782D02*
X010952Y013782D01*
X010952Y013935D02*
X010952Y014012D01*
X010952Y013935D02*
X011106Y013782D01*
X011182Y014166D02*
X011182Y014242D01*
X011259Y014242D01*
X011259Y014166D01*
X011182Y014166D01*
X011182Y014396D02*
X011029Y014396D01*
X010952Y014473D01*
X010952Y014626D01*
X011029Y014703D01*
X011182Y014703D01*
X011259Y014626D01*
X011259Y014473D01*
X011182Y014396D01*
X011583Y014370D02*
X011583Y014600D01*
X011660Y014677D01*
X011813Y014677D01*
X011890Y014600D01*
X011890Y014370D01*
X011890Y014523D02*
X012044Y014677D01*
X012044Y014830D02*
X012044Y015137D01*
X012044Y014984D02*
X011583Y014984D01*
X011737Y014830D01*
X011259Y014856D02*
X010952Y014856D01*
X011106Y014856D02*
X010952Y015010D01*
X010952Y015086D01*
X011029Y015240D02*
X011182Y015240D01*
X011259Y015317D01*
X011259Y015547D01*
X011336Y015547D02*
X010952Y015547D01*
X010952Y015317D01*
X011029Y015240D01*
X011413Y015393D02*
X011413Y015470D01*
X011336Y015547D01*
X011583Y015521D02*
X011583Y015368D01*
X011660Y015291D01*
X011737Y015291D01*
X011813Y015368D01*
X011813Y015598D01*
X011660Y015598D02*
X011967Y015598D01*
X012044Y015521D01*
X012044Y015368D01*
X011967Y015291D01*
X011660Y015598D02*
X011583Y015521D01*
X011583Y015870D02*
X011583Y016100D01*
X011660Y016177D01*
X011813Y016177D01*
X011890Y016100D01*
X011890Y015870D01*
X011890Y016023D02*
X012044Y016177D01*
X012044Y016330D02*
X012044Y016637D01*
X012044Y016484D02*
X011583Y016484D01*
X011737Y016330D01*
X011660Y016791D02*
X011583Y016868D01*
X011583Y017021D01*
X011660Y017098D01*
X011737Y017098D01*
X011813Y017021D01*
X011890Y017098D01*
X011967Y017098D01*
X012044Y017021D01*
X012044Y016868D01*
X011967Y016791D01*
X011813Y016944D02*
X011813Y017021D01*
X011890Y017370D02*
X011890Y017600D01*
X011813Y017677D01*
X011660Y017677D01*
X011583Y017600D01*
X011583Y017370D01*
X012044Y017370D01*
X011890Y017523D02*
X012044Y017677D01*
X012044Y017830D02*
X012044Y018137D01*
X012044Y017984D02*
X011583Y017984D01*
X011737Y017830D01*
X011660Y018291D02*
X011583Y018368D01*
X011583Y018521D01*
X011660Y018598D01*
X011737Y018598D01*
X012044Y018291D01*
X012044Y018598D01*
X012044Y018870D02*
X011583Y018870D01*
X011583Y019100D01*
X011660Y019177D01*
X011813Y019177D01*
X011890Y019100D01*
X011890Y018870D01*
X011890Y019023D02*
X012044Y019177D01*
X012044Y019330D02*
X012044Y019637D01*
X012044Y019484D02*
X011583Y019484D01*
X011737Y019330D01*
X011259Y019307D02*
X011259Y019537D01*
X011029Y019537D01*
X010952Y019460D01*
X010952Y019307D01*
X011106Y019307D02*
X011106Y019537D01*
X011106Y019690D02*
X010952Y019844D01*
X010952Y019921D01*
X011029Y020074D02*
X010952Y020151D01*
X010952Y020381D01*
X010799Y020381D02*
X011259Y020381D01*
X011259Y020151D01*
X011182Y020074D01*
X011029Y020074D01*
X010952Y019690D02*
X011259Y019690D01*
X011583Y019868D02*
X011583Y020021D01*
X011660Y020098D01*
X011967Y019791D01*
X012044Y019868D01*
X012044Y020021D01*
X011967Y020098D01*
X011660Y020098D01*
X011583Y019868D02*
X011660Y019791D01*
X011967Y019791D01*
X011259Y019307D02*
X011182Y019230D01*
X011106Y019307D01*
X011182Y019076D02*
X011029Y019076D01*
X010952Y019000D01*
X010952Y018846D01*
X011029Y018770D01*
X011182Y018770D01*
X011259Y018846D01*
X011259Y019000D01*
X011182Y019076D01*
X010811Y018830D02*
X010658Y018754D01*
X010504Y018600D01*
X010735Y018600D01*
X010811Y018523D01*
X010811Y018447D01*
X010735Y018370D01*
X010581Y018370D01*
X010504Y018447D01*
X010504Y018600D01*
X010351Y018370D02*
X010044Y018370D01*
X010197Y018370D02*
X010197Y018830D01*
X010044Y018677D01*
X009890Y018754D02*
X009890Y018600D01*
X009814Y018523D01*
X009584Y018523D01*
X009584Y018370D02*
X009584Y018830D01*
X009814Y018830D01*
X009890Y018754D01*
X009737Y018523D02*
X009890Y018370D01*
X009814Y017830D02*
X009890Y017754D01*
X009890Y017600D01*
X009814Y017523D01*
X009584Y017523D01*
X009584Y017370D02*
X009584Y017830D01*
X009814Y017830D01*
X010044Y017754D02*
X010044Y017677D01*
X010121Y017600D01*
X010351Y017600D01*
X010351Y017447D02*
X010351Y017754D01*
X010274Y017830D01*
X010121Y017830D01*
X010044Y017754D01*
X010044Y017447D02*
X010121Y017370D01*
X010274Y017370D01*
X010351Y017447D01*
X009890Y017370D02*
X009737Y017523D01*
X009814Y016830D02*
X009890Y016754D01*
X009890Y016600D01*
X009814Y016523D01*
X009584Y016523D01*
X009584Y016370D02*
X009584Y016830D01*
X009814Y016830D01*
X010044Y016754D02*
X010044Y016677D01*
X010121Y016600D01*
X010274Y016600D01*
X010351Y016523D01*
X010351Y016447D01*
X010274Y016370D01*
X010121Y016370D01*
X010044Y016447D01*
X010044Y016523D01*
X010121Y016600D01*
X010274Y016600D02*
X010351Y016677D01*
X010351Y016754D01*
X010274Y016830D01*
X010121Y016830D01*
X010044Y016754D01*
X009737Y016523D02*
X009890Y016370D01*
X009814Y015830D02*
X009890Y015754D01*
X009890Y015600D01*
X009814Y015523D01*
X009584Y015523D01*
X009584Y015370D02*
X009584Y015830D01*
X009814Y015830D01*
X010044Y015830D02*
X010351Y015830D01*
X010351Y015754D01*
X010044Y015447D01*
X010044Y015370D01*
X009890Y015370D02*
X009737Y015523D01*
X009814Y014830D02*
X009890Y014754D01*
X009890Y014600D01*
X009814Y014523D01*
X009584Y014523D01*
X009584Y014370D02*
X009584Y014830D01*
X009814Y014830D01*
X009737Y014523D02*
X009890Y014370D01*
X010044Y014447D02*
X010121Y014370D01*
X010274Y014370D01*
X010351Y014447D01*
X010351Y014523D01*
X010274Y014600D01*
X010044Y014600D01*
X010044Y014447D01*
X010044Y014600D02*
X010197Y014754D01*
X010351Y014830D01*
X010351Y013830D02*
X010044Y013830D01*
X010044Y013600D01*
X010197Y013677D01*
X010274Y013677D01*
X010351Y013600D01*
X010351Y013447D01*
X010274Y013370D01*
X010121Y013370D01*
X010044Y013447D01*
X009890Y013370D02*
X009737Y013523D01*
X009814Y013523D02*
X009584Y013523D01*
X009584Y013370D02*
X009584Y013830D01*
X009814Y013830D01*
X009890Y013754D01*
X009890Y013600D01*
X009814Y013523D01*
X009814Y012830D02*
X009890Y012754D01*
X009890Y012600D01*
X009814Y012523D01*
X009584Y012523D01*
X009584Y012370D02*
X009584Y012830D01*
X009814Y012830D01*
X009737Y012523D02*
X009890Y012370D01*
X010044Y012600D02*
X010351Y012600D01*
X010274Y012370D02*
X010274Y012830D01*
X010044Y012600D01*
X010121Y011830D02*
X010274Y011830D01*
X010351Y011754D01*
X010351Y011677D01*
X010274Y011600D01*
X010351Y011523D01*
X010351Y011447D01*
X010274Y011370D01*
X010121Y011370D01*
X010044Y011447D01*
X009890Y011370D02*
X009737Y011523D01*
X009814Y011523D02*
X009584Y011523D01*
X009584Y011370D02*
X009584Y011830D01*
X009814Y011830D01*
X009890Y011754D01*
X009890Y011600D01*
X009814Y011523D01*
X010044Y011754D02*
X010121Y011830D01*
X010197Y011600D02*
X010274Y011600D01*
X010952Y011710D02*
X011259Y011864D01*
X011583Y011907D02*
X011583Y012061D01*
X011660Y012137D01*
X011737Y012137D01*
X012044Y011830D01*
X012044Y012137D01*
X011967Y012291D02*
X012044Y012368D01*
X012044Y012521D01*
X011967Y012598D01*
X011890Y012598D01*
X011813Y012521D01*
X011813Y012291D01*
X011967Y012291D01*
X011813Y012291D02*
X011660Y012444D01*
X011583Y012598D01*
X011583Y012870D02*
X011583Y013100D01*
X011660Y013177D01*
X011813Y013177D01*
X011890Y013100D01*
X011890Y012870D01*
X011890Y013023D02*
X012044Y013177D01*
X012044Y013330D02*
X011737Y013637D01*
X011660Y013637D01*
X011583Y013561D01*
X011583Y013407D01*
X011660Y013330D01*
X012044Y013330D02*
X012044Y013637D01*
X011967Y013791D02*
X012044Y013868D01*
X012044Y014021D01*
X011967Y014098D01*
X011890Y014098D01*
X011813Y014021D01*
X011813Y013944D01*
X011813Y014021D02*
X011737Y014098D01*
X011660Y014098D01*
X011583Y014021D01*
X011583Y013868D01*
X011660Y013791D01*
X011583Y014370D02*
X012044Y014370D01*
X013149Y014460D02*
X013149Y014740D01*
X013484Y014740D02*
X013484Y014460D01*
X013660Y014563D02*
X013813Y014410D01*
X013813Y014640D01*
X013890Y014717D01*
X013967Y014717D01*
X014044Y014640D01*
X014044Y014486D01*
X013967Y014410D01*
X013813Y014410D01*
X013660Y014563D02*
X013583Y014717D01*
X013660Y014256D02*
X013583Y014179D01*
X013583Y014026D01*
X013660Y013949D01*
X013967Y013949D01*
X014044Y014026D01*
X014044Y014179D01*
X013967Y014256D01*
X013660Y013217D02*
X013967Y012910D01*
X014044Y012910D01*
X013967Y012756D02*
X014044Y012679D01*
X014044Y012526D01*
X013967Y012449D01*
X013660Y012449D01*
X013583Y012526D01*
X013583Y012679D01*
X013660Y012756D01*
X013583Y012910D02*
X013583Y013217D01*
X013660Y013217D01*
X013484Y013240D02*
X013484Y012960D01*
X013149Y012960D02*
X013149Y013240D01*
X012044Y012870D02*
X011583Y012870D01*
X011583Y011907D02*
X011660Y011830D01*
X011660Y011677D02*
X011813Y011677D01*
X011890Y011600D01*
X011890Y011370D01*
X011890Y011523D02*
X012044Y011677D01*
X012044Y011370D02*
X011583Y011370D01*
X011583Y011600D01*
X011660Y011677D01*
X011660Y011098D02*
X011967Y010791D01*
X012044Y010791D01*
X012044Y010637D02*
X012044Y010330D01*
X011737Y010637D01*
X011660Y010637D01*
X011583Y010561D01*
X011583Y010407D01*
X011660Y010330D01*
X011660Y010177D02*
X011813Y010177D01*
X011890Y010100D01*
X011890Y009870D01*
X011890Y010023D02*
X012044Y010177D01*
X012044Y009870D02*
X011583Y009870D01*
X011583Y010100D01*
X011660Y010177D01*
X011660Y009598D02*
X011583Y009521D01*
X011583Y009368D01*
X011660Y009291D01*
X011737Y009291D01*
X011813Y009368D01*
X011813Y009598D01*
X011660Y009598D02*
X011967Y009598D01*
X012044Y009521D01*
X012044Y009368D01*
X011967Y009291D01*
X012044Y009137D02*
X012044Y008830D01*
X011737Y009137D01*
X011660Y009137D01*
X011583Y009061D01*
X011583Y008907D01*
X011660Y008830D01*
X011660Y008677D02*
X011813Y008677D01*
X011890Y008600D01*
X011890Y008370D01*
X011890Y008523D02*
X012044Y008677D01*
X012044Y008370D02*
X011583Y008370D01*
X011583Y008600D01*
X011660Y008677D01*
X013149Y008740D02*
X013149Y008460D01*
X013484Y008460D02*
X013484Y008740D01*
X013583Y008717D02*
X013660Y008563D01*
X013813Y008410D01*
X013813Y008640D01*
X013890Y008717D01*
X013967Y008717D01*
X014044Y008640D01*
X014044Y008486D01*
X013967Y008410D01*
X013813Y008410D01*
X014044Y008256D02*
X014044Y007949D01*
X014044Y008103D02*
X013583Y008103D01*
X013737Y007949D01*
X013660Y007796D02*
X013583Y007719D01*
X013583Y007566D01*
X013660Y007489D01*
X013967Y007489D01*
X014044Y007566D01*
X014044Y007719D01*
X013967Y007796D01*
X013313Y006713D02*
X013313Y006406D01*
X013083Y006636D01*
X013544Y006636D01*
X013313Y006252D02*
X013313Y005945D01*
X013083Y006175D01*
X013544Y006175D01*
X013467Y005792D02*
X013544Y005715D01*
X013544Y005562D01*
X013467Y005485D01*
X013160Y005485D01*
X013083Y005562D01*
X013083Y005715D01*
X013160Y005792D01*
X012559Y005715D02*
X012559Y005562D01*
X012483Y005485D01*
X012176Y005485D01*
X012099Y005562D01*
X012099Y005715D01*
X012176Y005792D01*
X012329Y005945D02*
X012329Y006252D01*
X012483Y006406D02*
X012559Y006406D01*
X012483Y006406D02*
X012176Y006713D01*
X012099Y006713D01*
X012099Y006406D01*
X011999Y006456D02*
X011999Y006736D01*
X011664Y006736D02*
X011664Y006456D01*
X012099Y006175D02*
X012329Y005945D01*
X012483Y005792D02*
X012559Y005715D01*
X012559Y006175D02*
X012099Y006175D01*
X012649Y006456D02*
X012649Y006736D01*
X012984Y006736D02*
X012984Y006456D01*
X012570Y005352D02*
X012570Y005045D01*
X012263Y005352D01*
X012186Y005352D01*
X012110Y005276D01*
X012110Y005122D01*
X012186Y005045D01*
X012110Y004892D02*
X012110Y004585D01*
X012340Y004585D01*
X012263Y004739D01*
X012263Y004815D01*
X012340Y004892D01*
X012493Y004892D01*
X012570Y004815D01*
X012570Y004662D01*
X012493Y004585D01*
X012570Y004432D02*
X012417Y004278D01*
X012417Y004355D02*
X012417Y004125D01*
X012570Y004125D02*
X012110Y004125D01*
X012110Y004355D01*
X012186Y004432D01*
X012340Y004432D01*
X012417Y004355D01*
X012469Y003936D02*
X012154Y003621D01*
X012154Y001377D01*
X013119Y001377D01*
X013133Y001486D02*
X013735Y001486D01*
X013687Y001472D02*
X013851Y001520D01*
X014006Y001589D01*
X014150Y001680D01*
X014280Y001790D01*
X012587Y001790D01*
X012717Y001680D01*
X012861Y001589D01*
X013016Y001520D01*
X013180Y001472D01*
X013349Y001448D01*
X013519Y001448D01*
X013687Y001472D01*
X013709Y001377D02*
X014713Y001377D01*
X014713Y003621D01*
X014398Y003936D01*
X014713Y003621D01*
X014713Y001377D01*
X012154Y001377D01*
X012154Y003621D01*
X012469Y003936D01*
X014398Y003936D01*
X014660Y004370D02*
X014967Y004370D01*
X015044Y004447D01*
X015044Y004600D01*
X014967Y004677D01*
X015143Y004740D02*
X015143Y004460D01*
X015479Y004460D02*
X015479Y004740D01*
X015044Y005061D02*
X014583Y005061D01*
X014813Y004830D01*
X014813Y005137D01*
X014660Y005291D02*
X014583Y005368D01*
X014583Y005521D01*
X014660Y005598D01*
X014737Y005598D01*
X014813Y005521D01*
X014890Y005598D01*
X014967Y005598D01*
X015044Y005521D01*
X015044Y005368D01*
X014967Y005291D01*
X014813Y005444D02*
X014813Y005521D01*
X014660Y004677D02*
X014583Y004600D01*
X014583Y004447D01*
X014660Y004370D01*
X014190Y002912D02*
X014037Y002912D01*
X013960Y002835D01*
X013960Y002758D01*
X014037Y002605D01*
X013807Y002605D01*
X013807Y002912D01*
X014190Y002912D02*
X014267Y002835D01*
X014267Y002681D01*
X014190Y002605D01*
X014037Y002451D02*
X014037Y002144D01*
X013807Y002375D01*
X014267Y002375D01*
X014190Y001991D02*
X014267Y001914D01*
X014267Y001761D01*
X014190Y001684D01*
X013883Y001684D01*
X013807Y001761D01*
X013807Y001914D01*
X013883Y001991D01*
X014087Y001640D02*
X012780Y001640D01*
X012719Y001679D02*
X014148Y001679D01*
X014194Y001717D02*
X012673Y001717D01*
X012628Y001756D02*
X014239Y001756D01*
X014026Y001602D02*
X012842Y001602D01*
X012919Y001563D02*
X013948Y001563D01*
X013862Y001525D02*
X013005Y001525D01*
X012455Y001140D02*
X012225Y000910D01*
X012531Y000910D01*
X012455Y000680D02*
X012455Y001140D01*
X012071Y000680D02*
X011764Y000680D01*
X011764Y001140D01*
X013129Y001475D02*
X013063Y001494D01*
X012997Y001517D01*
X012933Y001544D01*
X012871Y001574D01*
X012810Y001608D01*
X012752Y001644D01*
X012696Y001685D01*
X012642Y001728D01*
X012590Y001774D01*
X012542Y001824D01*
X012496Y001876D01*
X012453Y001930D01*
X012414Y001987D01*
X012377Y002046D01*
X012344Y002107D01*
X012315Y002169D01*
X012289Y002233D01*
X012267Y002299D01*
X012249Y002366D01*
X012234Y002433D01*
X012224Y002502D01*
X012217Y002571D01*
X012214Y002640D01*
X012215Y002709D01*
X012220Y002778D01*
X012229Y002847D01*
X012242Y002915D01*
X012259Y002982D01*
X012279Y003048D01*
X012303Y003113D01*
X012331Y003176D01*
X012362Y003238D01*
X012397Y003297D01*
X012435Y003355D01*
X012477Y003411D01*
X012521Y003464D01*
X012569Y003514D01*
X012619Y003562D01*
X012672Y003606D01*
X012727Y003648D01*
X012784Y003687D01*
X012844Y003722D01*
X012906Y003753D01*
X012969Y003781D01*
X013033Y003806D01*
X013099Y003827D01*
X013739Y003837D02*
X013805Y003818D01*
X013871Y003795D01*
X013935Y003768D01*
X013997Y003738D01*
X014058Y003704D01*
X014116Y003668D01*
X014172Y003627D01*
X014226Y003584D01*
X014278Y003538D01*
X014326Y003488D01*
X014372Y003436D01*
X014415Y003382D01*
X014454Y003325D01*
X014491Y003266D01*
X014524Y003205D01*
X014553Y003143D01*
X014579Y003079D01*
X014601Y003013D01*
X014619Y002946D01*
X014634Y002879D01*
X014644Y002810D01*
X014651Y002741D01*
X014654Y002672D01*
X014653Y002603D01*
X014648Y002534D01*
X014639Y002465D01*
X014626Y002397D01*
X014609Y002330D01*
X014589Y002264D01*
X014565Y002199D01*
X014537Y002136D01*
X014506Y002074D01*
X014471Y002015D01*
X014433Y001957D01*
X014391Y001901D01*
X014347Y001848D01*
X014299Y001798D01*
X014249Y001750D01*
X014196Y001706D01*
X014141Y001664D01*
X014084Y001625D01*
X014024Y001590D01*
X013962Y001559D01*
X013899Y001531D01*
X013835Y001506D01*
X013769Y001485D01*
X012213Y002656D02*
X012215Y002726D01*
X012221Y002795D01*
X012231Y002864D01*
X012245Y002933D01*
X012262Y003000D01*
X012284Y003066D01*
X012309Y003131D01*
X012338Y003195D01*
X012371Y003256D01*
X012407Y003316D01*
X012446Y003374D01*
X012489Y003429D01*
X012534Y003482D01*
X012583Y003532D01*
X012634Y003579D01*
X012688Y003623D01*
X012745Y003664D01*
X012803Y003702D01*
X012864Y003736D01*
X012927Y003767D01*
X012991Y003794D01*
X013057Y003817D01*
X013124Y003837D01*
X013192Y003853D01*
X013260Y003865D01*
X013330Y003873D01*
X013399Y003877D01*
X013469Y003877D01*
X013538Y003873D01*
X013608Y003865D01*
X013676Y003853D01*
X013744Y003837D01*
X013811Y003817D01*
X013877Y003794D01*
X013941Y003767D01*
X014004Y003736D01*
X014065Y003702D01*
X014123Y003664D01*
X014180Y003623D01*
X014234Y003579D01*
X014285Y003532D01*
X014334Y003482D01*
X014379Y003429D01*
X014422Y003374D01*
X014461Y003316D01*
X014497Y003256D01*
X014530Y003195D01*
X014559Y003131D01*
X014584Y003066D01*
X014606Y003000D01*
X014623Y002933D01*
X014637Y002864D01*
X014647Y002795D01*
X014653Y002726D01*
X014655Y002656D01*
X014653Y002586D01*
X014647Y002517D01*
X014637Y002448D01*
X014623Y002379D01*
X014606Y002312D01*
X014584Y002246D01*
X014559Y002181D01*
X014530Y002117D01*
X014497Y002056D01*
X014461Y001996D01*
X014422Y001938D01*
X014379Y001883D01*
X014334Y001830D01*
X014285Y001780D01*
X014234Y001733D01*
X014180Y001689D01*
X014123Y001648D01*
X014065Y001610D01*
X014004Y001576D01*
X013941Y001545D01*
X013877Y001518D01*
X013811Y001495D01*
X013744Y001475D01*
X013676Y001459D01*
X013608Y001447D01*
X013538Y001439D01*
X013469Y001435D01*
X013399Y001435D01*
X013330Y001439D01*
X013260Y001447D01*
X013192Y001459D01*
X013124Y001475D01*
X013057Y001495D01*
X012991Y001518D01*
X012927Y001545D01*
X012864Y001576D01*
X012803Y001610D01*
X012745Y001648D01*
X012688Y001689D01*
X012634Y001733D01*
X012583Y001780D01*
X012534Y001830D01*
X012489Y001883D01*
X012446Y001938D01*
X012407Y001996D01*
X012371Y002056D01*
X012338Y002117D01*
X012309Y002181D01*
X012284Y002246D01*
X012262Y002312D01*
X012245Y002379D01*
X012231Y002448D01*
X012221Y002517D01*
X012215Y002586D01*
X012213Y002656D01*
X016947Y003508D02*
X017100Y003508D01*
X017023Y003508D02*
X017023Y003968D01*
X016947Y003968D02*
X017100Y003968D01*
X017254Y003891D02*
X017254Y003584D01*
X017330Y003508D01*
X017484Y003508D01*
X017561Y003584D01*
X017714Y003508D02*
X018021Y003815D01*
X018021Y003891D01*
X017944Y003968D01*
X017791Y003968D01*
X017714Y003891D01*
X017561Y003891D02*
X017484Y003968D01*
X017330Y003968D01*
X017254Y003891D01*
X017714Y003508D02*
X018021Y003508D01*
X018779Y004370D02*
X018702Y004447D01*
X018702Y004754D01*
X018779Y004830D01*
X018933Y004830D01*
X019009Y004754D01*
X019163Y004754D02*
X019239Y004830D01*
X019393Y004830D01*
X019470Y004754D01*
X019470Y004677D01*
X019393Y004600D01*
X019470Y004523D01*
X019470Y004447D01*
X019393Y004370D01*
X019239Y004370D01*
X019163Y004447D01*
X019009Y004447D02*
X018933Y004370D01*
X018779Y004370D01*
X019316Y004600D02*
X019393Y004600D01*
X019623Y004447D02*
X019623Y004370D01*
X019623Y004447D02*
X019930Y004754D01*
X019930Y004830D01*
X019623Y004830D01*
X019673Y004930D02*
X019954Y004930D01*
X019954Y005265D02*
X019673Y005265D01*
X019700Y005370D02*
X019853Y005370D01*
X019930Y005447D01*
X019930Y005523D01*
X019853Y005600D01*
X019623Y005600D01*
X019623Y005447D01*
X019700Y005370D01*
X019623Y005600D02*
X019777Y005754D01*
X019930Y005830D01*
X019470Y005600D02*
X019163Y005600D01*
X019393Y005830D01*
X019393Y005370D01*
X019009Y005370D02*
X018856Y005523D01*
X018933Y005523D02*
X018702Y005523D01*
X018702Y005370D02*
X018702Y005830D01*
X018933Y005830D01*
X019009Y005754D01*
X019009Y005600D01*
X018933Y005523D01*
X018933Y006370D02*
X019009Y006447D01*
X018933Y006370D02*
X018779Y006370D01*
X018702Y006447D01*
X018702Y006754D01*
X018779Y006830D01*
X018933Y006830D01*
X019009Y006754D01*
X019163Y006754D02*
X019239Y006830D01*
X019393Y006830D01*
X019470Y006754D01*
X019470Y006677D01*
X019393Y006600D01*
X019470Y006523D01*
X019470Y006447D01*
X019393Y006370D01*
X019239Y006370D01*
X019163Y006447D01*
X019316Y006600D02*
X019393Y006600D01*
X019623Y006677D02*
X019700Y006600D01*
X019930Y006600D01*
X019930Y006447D02*
X019930Y006754D01*
X019853Y006830D01*
X019700Y006830D01*
X019623Y006754D01*
X019623Y006677D01*
X019623Y006447D02*
X019700Y006370D01*
X019853Y006370D01*
X019930Y006447D01*
X019954Y006930D02*
X019673Y006930D01*
X019673Y007265D02*
X019954Y007265D01*
X020571Y006830D02*
X020571Y006370D01*
X020571Y006523D02*
X020802Y006523D01*
X020878Y006600D01*
X020878Y006754D01*
X020802Y006830D01*
X020571Y006830D01*
X020725Y006523D02*
X020878Y006370D01*
X021032Y006600D02*
X021262Y006830D01*
X021262Y006370D01*
X021339Y006600D02*
X021032Y006600D01*
X021492Y006600D02*
X021799Y006600D01*
X021722Y006370D02*
X021722Y006830D01*
X021492Y006600D01*
X022071Y006523D02*
X022302Y006523D01*
X022378Y006600D01*
X022378Y006754D01*
X022302Y006830D01*
X022071Y006830D01*
X022071Y006370D01*
X022225Y006523D02*
X022378Y006370D01*
X022532Y006600D02*
X022839Y006600D01*
X022992Y006754D02*
X023069Y006830D01*
X023222Y006830D01*
X023299Y006754D01*
X023299Y006677D01*
X022992Y006370D01*
X023299Y006370D01*
X023578Y006354D02*
X023578Y006815D01*
X023809Y006815D01*
X023885Y006738D01*
X023885Y006584D01*
X023809Y006508D01*
X023578Y006508D01*
X023732Y006508D02*
X023885Y006354D01*
X024039Y006584D02*
X024346Y006584D01*
X024499Y006661D02*
X024653Y006815D01*
X024653Y006354D01*
X024806Y006354D02*
X024499Y006354D01*
X024269Y006354D02*
X024269Y006815D01*
X024039Y006584D01*
X023735Y007370D02*
X023581Y007370D01*
X023504Y007447D01*
X023504Y007600D02*
X023658Y007677D01*
X023735Y007677D01*
X023811Y007600D01*
X023811Y007447D01*
X023735Y007370D01*
X023504Y007600D02*
X023504Y007830D01*
X023811Y007830D01*
X023351Y007600D02*
X023044Y007600D01*
X023274Y007830D01*
X023274Y007370D01*
X022890Y007370D02*
X022737Y007523D01*
X022814Y007523D02*
X022584Y007523D01*
X022584Y007370D02*
X022584Y007830D01*
X022814Y007830D01*
X022890Y007754D01*
X022890Y007600D01*
X022814Y007523D01*
X022762Y006830D02*
X022532Y006600D01*
X022762Y006370D02*
X022762Y006830D01*
X022673Y005270D02*
X022954Y005270D01*
X022954Y004935D02*
X022673Y004935D01*
X022752Y004723D02*
X022905Y004723D01*
X022982Y004646D01*
X022982Y004570D01*
X022905Y004493D01*
X022982Y004416D01*
X022982Y004339D01*
X022905Y004263D01*
X022752Y004263D01*
X022675Y004339D01*
X022521Y004339D02*
X022445Y004263D01*
X022291Y004263D01*
X022214Y004339D01*
X022214Y004646D01*
X022291Y004723D01*
X022445Y004723D01*
X022521Y004646D01*
X022675Y004646D02*
X022752Y004723D01*
X022828Y004493D02*
X022905Y004493D01*
X023135Y004493D02*
X023289Y004570D01*
X023365Y004570D01*
X023442Y004493D01*
X023442Y004339D01*
X023365Y004263D01*
X023212Y004263D01*
X023135Y004339D01*
X023135Y004493D02*
X023135Y004723D01*
X023442Y004723D01*
X023714Y004646D02*
X023714Y004339D01*
X023791Y004263D01*
X023945Y004263D01*
X024021Y004339D01*
X024175Y004339D02*
X024252Y004263D01*
X024405Y004263D01*
X024482Y004339D01*
X024482Y004416D01*
X024405Y004493D01*
X024328Y004493D01*
X024405Y004493D02*
X024482Y004570D01*
X024482Y004646D01*
X024405Y004723D01*
X024252Y004723D01*
X024175Y004646D01*
X024021Y004646D02*
X023945Y004723D01*
X023791Y004723D01*
X023714Y004646D01*
X024173Y004935D02*
X024454Y004935D01*
X024454Y005270D02*
X024173Y005270D01*
X024865Y004723D02*
X024635Y004493D01*
X024942Y004493D01*
X025048Y004416D02*
X025278Y004416D01*
X025355Y004493D01*
X025355Y004646D01*
X025278Y004723D01*
X025048Y004723D01*
X025048Y004263D01*
X024865Y004263D02*
X024865Y004723D01*
X025201Y004416D02*
X025355Y004263D01*
X025508Y004493D02*
X025815Y004493D01*
X025969Y004339D02*
X025969Y004646D01*
X026045Y004723D01*
X026199Y004723D01*
X026276Y004646D01*
X025969Y004339D01*
X026045Y004263D01*
X026199Y004263D01*
X026276Y004339D01*
X026276Y004646D01*
X025738Y004723D02*
X025738Y004263D01*
X025508Y004493D02*
X025738Y004723D01*
X028491Y006911D02*
X028491Y007142D01*
X028567Y007218D01*
X028721Y007218D01*
X028798Y007142D01*
X028798Y006911D01*
X028951Y006911D02*
X028491Y006911D01*
X028491Y007372D02*
X028951Y007372D01*
X028798Y007525D01*
X028951Y007679D01*
X028491Y007679D01*
X028491Y007832D02*
X028491Y008062D01*
X028567Y008139D01*
X028721Y008139D01*
X028798Y008062D01*
X028798Y007832D01*
X028951Y007832D02*
X028491Y007832D01*
X028798Y007986D02*
X028951Y008139D01*
X029148Y007856D02*
X029148Y007108D01*
X029581Y007108D01*
X029581Y007856D01*
X029148Y007856D01*
X029634Y007970D02*
X029634Y008200D01*
X029711Y008277D01*
X029865Y008277D01*
X029941Y008200D01*
X029941Y007970D01*
X030090Y007986D02*
X030090Y007832D01*
X030090Y007909D02*
X030550Y007909D01*
X030550Y007832D02*
X030550Y007986D01*
X030397Y008139D02*
X030550Y008293D01*
X030397Y008446D01*
X030090Y008446D01*
X030095Y008507D02*
X030018Y008431D01*
X030095Y008507D02*
X030095Y008661D01*
X030018Y008737D01*
X029941Y008737D01*
X029865Y008661D01*
X029865Y008584D01*
X029865Y008661D02*
X029788Y008737D01*
X029711Y008737D01*
X029634Y008661D01*
X029634Y008507D01*
X029711Y008431D01*
X029941Y008124D02*
X030095Y008277D01*
X030090Y008139D02*
X030397Y008139D01*
X030095Y007970D02*
X029634Y007970D01*
X030090Y007372D02*
X030550Y007372D01*
X030550Y007679D01*
X030748Y007856D02*
X030748Y007108D01*
X031181Y007108D01*
X031181Y007856D01*
X030748Y007856D01*
X031234Y007970D02*
X031234Y008200D01*
X031310Y008277D01*
X031464Y008277D01*
X031541Y008200D01*
X031541Y007970D01*
X031694Y007970D02*
X031234Y007970D01*
X031541Y008124D02*
X031694Y008277D01*
X031617Y008431D02*
X031694Y008507D01*
X031694Y008661D01*
X031617Y008737D01*
X031541Y008737D01*
X031464Y008661D01*
X031464Y008584D01*
X031464Y008661D02*
X031387Y008737D01*
X031310Y008737D01*
X031234Y008661D01*
X031234Y008507D01*
X031310Y008431D01*
X031310Y008891D02*
X031234Y008968D01*
X031234Y009121D01*
X031310Y009198D01*
X031387Y009198D01*
X031464Y009121D01*
X031541Y009198D01*
X031617Y009198D01*
X031694Y009121D01*
X031694Y008968D01*
X031617Y008891D01*
X031464Y009044D02*
X031464Y009121D01*
X030550Y008906D02*
X030550Y008599D01*
X030090Y008599D01*
X030090Y008906D01*
X030095Y008891D02*
X029788Y009198D01*
X029711Y009198D01*
X029634Y009121D01*
X029634Y008968D01*
X029711Y008891D01*
X030095Y008891D02*
X030095Y009198D01*
X030320Y008753D02*
X030320Y008599D01*
X030163Y010120D02*
X030163Y010580D01*
X030393Y010580D01*
X030470Y010504D01*
X030470Y010350D01*
X030393Y010273D01*
X030163Y010273D01*
X029933Y010197D02*
X029856Y010120D01*
X029779Y010120D01*
X029702Y010197D01*
X029933Y010197D02*
X029933Y010580D01*
X030009Y010580D02*
X029856Y010580D01*
X030623Y010350D02*
X030853Y010350D01*
X030930Y010273D01*
X030930Y010197D01*
X030853Y010120D01*
X030700Y010120D01*
X030623Y010197D01*
X030623Y010350D01*
X030777Y010504D01*
X030930Y010580D01*
X027942Y008830D02*
X027789Y008754D01*
X027635Y008600D01*
X027865Y008600D01*
X027942Y008523D01*
X027942Y008447D01*
X027865Y008370D01*
X027712Y008370D01*
X027635Y008447D01*
X027635Y008600D01*
X027482Y008677D02*
X027482Y008754D01*
X027405Y008830D01*
X027252Y008830D01*
X027175Y008754D01*
X027021Y008754D02*
X026945Y008830D01*
X026791Y008830D01*
X026714Y008754D01*
X026714Y008447D01*
X026791Y008370D01*
X026945Y008370D01*
X027021Y008447D01*
X027175Y008370D02*
X027482Y008677D01*
X027482Y008370D02*
X027175Y008370D01*
X027085Y008270D02*
X026804Y008270D01*
X026804Y007935D02*
X027085Y007935D01*
X030090Y007065D02*
X030244Y007218D01*
X030550Y007218D01*
X030320Y007218D02*
X030320Y006911D01*
X030244Y006911D02*
X030090Y007065D01*
X030244Y006911D02*
X030550Y006911D01*
X028675Y014153D02*
X028369Y014153D01*
X028292Y014230D01*
X028292Y014384D01*
X028369Y014460D01*
X028369Y014614D02*
X028292Y014691D01*
X028292Y014844D01*
X028369Y014921D01*
X028445Y014921D01*
X028752Y014614D01*
X028752Y014921D01*
X028752Y015074D02*
X028675Y015074D01*
X028369Y015381D01*
X028292Y015381D01*
X028292Y015074D01*
X028187Y014524D02*
X028187Y014243D01*
X027852Y014243D02*
X027852Y014524D01*
X028675Y014460D02*
X028752Y014384D01*
X028752Y014230D01*
X028675Y014153D01*
X027193Y016090D02*
X027193Y016370D01*
X026858Y016370D02*
X026858Y016090D01*
X026758Y016077D02*
X026758Y016230D01*
X026681Y016307D01*
X026758Y016460D02*
X026451Y016767D01*
X026374Y016767D01*
X026298Y016691D01*
X026298Y016537D01*
X026374Y016460D01*
X026374Y016307D02*
X026298Y016230D01*
X026298Y016077D01*
X026374Y016000D01*
X026681Y016000D01*
X026758Y016077D01*
X026758Y016460D02*
X026758Y016767D01*
X026758Y016921D02*
X026758Y017228D01*
X026758Y017074D02*
X026298Y017074D01*
X026451Y016921D01*
X025544Y017151D02*
X025083Y017151D01*
X025313Y016921D01*
X025313Y017228D01*
X025237Y016767D02*
X025313Y016691D01*
X025390Y016767D01*
X025467Y016767D01*
X025544Y016691D01*
X025544Y016537D01*
X025467Y016460D01*
X025544Y016307D02*
X025390Y016153D01*
X025390Y016230D02*
X025390Y016000D01*
X025544Y016000D02*
X025083Y016000D01*
X025083Y016230D01*
X025160Y016307D01*
X025313Y016307D01*
X025390Y016230D01*
X025160Y016460D02*
X025083Y016537D01*
X025083Y016691D01*
X025160Y016767D01*
X025237Y016767D01*
X025313Y016691D02*
X025313Y016614D01*
X024605Y018283D02*
X024605Y018744D01*
X024375Y018514D01*
X024682Y018514D01*
X024222Y018590D02*
X024222Y018667D01*
X024145Y018744D01*
X023991Y018744D01*
X023915Y018667D01*
X023761Y018667D02*
X023685Y018744D01*
X023531Y018744D01*
X023454Y018667D01*
X023454Y018360D01*
X023531Y018283D01*
X023685Y018283D01*
X023761Y018360D01*
X023915Y018283D02*
X024222Y018590D01*
X024222Y018283D02*
X023915Y018283D01*
X023706Y018178D02*
X023425Y018178D01*
X023425Y017843D02*
X023706Y017843D01*
X023562Y019075D02*
X023562Y019755D01*
X023757Y020079D02*
X024218Y020079D01*
X024218Y020386D01*
X024141Y020539D02*
X024218Y020616D01*
X024218Y020769D01*
X024141Y020846D01*
X024064Y020846D01*
X023988Y020769D01*
X023988Y020693D01*
X023988Y020769D02*
X023911Y020846D01*
X023834Y020846D01*
X023757Y020769D01*
X023757Y020616D01*
X023834Y020539D01*
X024045Y020552D02*
X023365Y020552D01*
X023365Y020982D02*
X024045Y020982D01*
X023743Y021289D02*
X023436Y021289D01*
X023589Y021289D02*
X023589Y021750D01*
X023436Y021596D01*
X023282Y021289D02*
X022975Y021289D01*
X022975Y021750D01*
X023955Y021750D02*
X023955Y021596D01*
X024032Y021520D01*
X024339Y021520D01*
X024416Y021596D01*
X024416Y021750D01*
X024339Y021827D01*
X024416Y021980D02*
X024109Y022287D01*
X024032Y022287D01*
X023955Y022210D01*
X023955Y022057D01*
X024032Y021980D01*
X024032Y021827D02*
X023955Y021750D01*
X024416Y021980D02*
X024416Y022287D01*
X024676Y022150D02*
X024676Y021850D01*
X025195Y021859D02*
X025195Y022150D01*
X025190Y022842D02*
X025036Y022842D01*
X024960Y022919D01*
X024960Y022996D01*
X025036Y023073D01*
X025190Y023073D01*
X025267Y022996D01*
X025267Y022919D01*
X025190Y022842D01*
X025190Y023073D02*
X025267Y023149D01*
X025267Y023226D01*
X025190Y023303D01*
X025036Y023303D01*
X024960Y023226D01*
X024960Y023149D01*
X025036Y023073D01*
X024806Y023149D02*
X024730Y023073D01*
X024806Y022996D01*
X024806Y022919D01*
X024730Y022842D01*
X024576Y022842D01*
X024499Y022919D01*
X024346Y022842D02*
X024192Y022996D01*
X024269Y022996D02*
X024039Y022996D01*
X024039Y022842D02*
X024039Y023303D01*
X024269Y023303D01*
X024346Y023226D01*
X024346Y023073D01*
X024269Y022996D01*
X024499Y023226D02*
X024576Y023303D01*
X024730Y023303D01*
X024806Y023226D01*
X024806Y023149D01*
X024730Y023073D02*
X024653Y023073D01*
X024728Y023476D02*
X024574Y023476D01*
X024497Y023553D01*
X024344Y023553D02*
X024267Y023476D01*
X024114Y023476D01*
X024037Y023553D01*
X024037Y023860D01*
X024114Y023937D01*
X024267Y023937D01*
X024344Y023860D01*
X024497Y023860D02*
X024574Y023937D01*
X024728Y023937D01*
X024804Y023860D01*
X024804Y023783D01*
X024728Y023706D01*
X024804Y023630D01*
X024804Y023553D01*
X024728Y023476D01*
X024728Y023706D02*
X024651Y023706D01*
X024958Y023553D02*
X025035Y023476D01*
X025188Y023476D01*
X025265Y023553D01*
X025265Y023630D01*
X025188Y023706D01*
X025111Y023706D01*
X025188Y023706D02*
X025265Y023783D01*
X025265Y023860D01*
X025188Y023937D01*
X025035Y023937D01*
X024958Y023860D01*
X025334Y024120D02*
X025334Y024580D01*
X025564Y024580D01*
X025640Y024504D01*
X025640Y024350D01*
X025564Y024273D01*
X025334Y024273D01*
X025487Y024273D02*
X025640Y024120D01*
X025794Y024197D02*
X025871Y024120D01*
X026024Y024120D01*
X026101Y024197D01*
X026101Y024350D01*
X026024Y024427D01*
X025947Y024427D01*
X025794Y024350D01*
X025794Y024580D01*
X026101Y024580D01*
X026254Y024427D02*
X026408Y024580D01*
X026408Y024120D01*
X026561Y024120D02*
X026254Y024120D01*
X025799Y025370D02*
X025492Y025370D01*
X025799Y025677D01*
X025799Y025754D01*
X025722Y025830D01*
X025569Y025830D01*
X025492Y025754D01*
X025454Y025930D02*
X025173Y025930D01*
X025262Y025830D02*
X025032Y025600D01*
X025339Y025600D01*
X025262Y025370D02*
X025262Y025830D01*
X025173Y026265D02*
X025454Y026265D01*
X024878Y025754D02*
X024802Y025830D01*
X024648Y025830D01*
X024571Y025754D01*
X024571Y025447D01*
X024648Y025370D01*
X024802Y025370D01*
X024878Y025447D01*
X024561Y025447D02*
X024561Y025754D01*
X024254Y025447D01*
X024331Y025370D01*
X024485Y025370D01*
X024561Y025447D01*
X024561Y025754D02*
X024485Y025830D01*
X024331Y025830D01*
X024254Y025754D01*
X024254Y025447D01*
X024101Y025447D02*
X024024Y025370D01*
X023871Y025370D01*
X023794Y025447D01*
X023794Y025600D02*
X023947Y025677D01*
X024024Y025677D01*
X024101Y025600D01*
X024101Y025447D01*
X023794Y025600D02*
X023794Y025830D01*
X024101Y025830D01*
X023714Y025930D02*
X023433Y025930D01*
X023334Y025830D02*
X023564Y025830D01*
X023640Y025754D01*
X023640Y025600D01*
X023564Y025523D01*
X023334Y025523D01*
X023334Y025370D02*
X023334Y025830D01*
X023107Y025720D02*
X023107Y025567D01*
X023030Y025490D01*
X022723Y025490D01*
X022646Y025567D01*
X022646Y025720D01*
X022723Y025797D01*
X022876Y025950D02*
X022876Y026257D01*
X022800Y026411D02*
X022646Y026564D01*
X023107Y026564D01*
X023107Y026411D02*
X023107Y026718D01*
X023107Y026180D02*
X022646Y026180D01*
X022876Y025950D01*
X023030Y025797D02*
X023107Y025720D01*
X023487Y025523D02*
X023640Y025370D01*
X023714Y026265D02*
X023433Y026265D01*
X022319Y026337D02*
X022242Y026260D01*
X021935Y026567D01*
X022242Y026567D01*
X022319Y026490D01*
X022319Y026337D01*
X022242Y026260D02*
X021935Y026260D01*
X021859Y026337D01*
X021859Y026490D01*
X021935Y026567D01*
X022089Y026107D02*
X022089Y025800D01*
X021859Y026030D01*
X022319Y026030D01*
X022242Y025646D02*
X022319Y025569D01*
X022319Y025416D01*
X022242Y025339D01*
X021935Y025339D01*
X021859Y025416D01*
X021859Y025569D01*
X021935Y025646D01*
X021324Y025930D02*
X021043Y025930D01*
X021043Y026265D02*
X021324Y026265D01*
X021324Y025265D02*
X021043Y025265D01*
X021043Y024930D02*
X021324Y024930D01*
X020513Y025071D02*
X020513Y025147D01*
X020436Y025224D01*
X020283Y025224D01*
X020206Y025147D01*
X020052Y025147D02*
X020052Y025071D01*
X019976Y024994D01*
X020052Y024917D01*
X020052Y024840D01*
X019976Y024764D01*
X019822Y024764D01*
X019745Y024840D01*
X019592Y024840D02*
X019515Y024764D01*
X019362Y024764D01*
X019285Y024840D01*
X019285Y025147D01*
X019362Y025224D01*
X019515Y025224D01*
X019592Y025147D01*
X019745Y025147D02*
X019822Y025224D01*
X019976Y025224D01*
X020052Y025147D01*
X020059Y024988D02*
X020374Y025303D01*
X020374Y027547D01*
X019409Y027547D01*
X019403Y027435D02*
X018785Y027435D01*
X018840Y027451D02*
X018677Y027404D01*
X018522Y027334D01*
X018378Y027243D01*
X018248Y027133D01*
X019941Y027133D01*
X019811Y027243D01*
X019667Y027334D01*
X019511Y027404D01*
X019348Y027451D01*
X019179Y027475D01*
X019009Y027475D01*
X018840Y027451D01*
X018818Y027547D02*
X017815Y027547D01*
X017815Y025303D01*
X018129Y024988D01*
X017815Y025303D01*
X017815Y027547D01*
X020374Y027547D01*
X020374Y025303D01*
X020059Y024988D01*
X018129Y024988D01*
X018186Y024083D02*
X018110Y024006D01*
X018110Y023852D01*
X018186Y023776D01*
X018263Y023776D01*
X018340Y023852D01*
X018340Y024083D01*
X018493Y024083D02*
X018186Y024083D01*
X018493Y024083D02*
X018570Y024006D01*
X018570Y023852D01*
X018493Y023776D01*
X018570Y023622D02*
X018570Y023315D01*
X018570Y023469D02*
X018110Y023469D01*
X018263Y023315D01*
X018186Y023162D02*
X018110Y023085D01*
X018110Y022932D01*
X018186Y022855D01*
X018493Y022855D01*
X018570Y022932D01*
X018570Y023085D01*
X018493Y023162D01*
X018637Y022874D02*
X018637Y022567D01*
X018637Y022721D02*
X018177Y022721D01*
X018330Y022567D01*
X018330Y022414D02*
X018407Y022337D01*
X018484Y022414D01*
X018560Y022414D01*
X018637Y022337D01*
X018637Y022184D01*
X018560Y022107D01*
X018560Y021954D02*
X018637Y021877D01*
X018637Y021723D01*
X018560Y021647D01*
X018253Y021647D01*
X018177Y021723D01*
X018177Y021877D01*
X018253Y021954D01*
X018253Y022107D02*
X018177Y022184D01*
X018177Y022337D01*
X018253Y022414D01*
X018330Y022414D01*
X018407Y022337D02*
X018407Y022260D01*
X018860Y022386D02*
X018860Y022106D01*
X019195Y022106D02*
X019195Y022386D01*
X019530Y022246D02*
X019530Y022016D01*
X019990Y022016D01*
X019837Y022016D02*
X019837Y022246D01*
X019760Y022323D01*
X019607Y022323D01*
X019530Y022246D01*
X019607Y022476D02*
X019530Y022553D01*
X019530Y022706D01*
X019607Y022783D01*
X019683Y022783D01*
X019760Y022706D01*
X019837Y022783D01*
X019914Y022783D01*
X019990Y022706D01*
X019990Y022553D01*
X019914Y022476D01*
X019990Y022323D02*
X019837Y022169D01*
X019760Y022630D02*
X019760Y022706D01*
X019683Y022936D02*
X019607Y022936D01*
X019530Y023013D01*
X019530Y023167D01*
X019607Y023243D01*
X019914Y023243D01*
X019990Y023167D01*
X019990Y023013D01*
X019914Y022936D01*
X019760Y023013D02*
X019760Y023243D01*
X019760Y023013D02*
X019683Y022936D01*
X019191Y023432D02*
X019191Y023713D01*
X018856Y023713D02*
X018856Y023432D01*
X019391Y024043D02*
X019391Y024504D01*
X019621Y024504D01*
X019698Y024427D01*
X019698Y024273D01*
X019621Y024197D01*
X019391Y024197D01*
X019544Y024197D02*
X019698Y024043D01*
X019851Y024120D02*
X019928Y024043D01*
X020081Y024043D01*
X020158Y024120D01*
X020158Y024197D01*
X020081Y024273D01*
X020004Y024273D01*
X020081Y024273D02*
X020158Y024350D01*
X020158Y024427D01*
X020081Y024504D01*
X019928Y024504D01*
X019851Y024427D01*
X020311Y024504D02*
X020618Y024504D01*
X020618Y024427D01*
X020311Y024120D01*
X020311Y024043D01*
X020206Y024764D02*
X020513Y025071D01*
X020513Y024764D02*
X020206Y024764D01*
X019976Y024994D02*
X019899Y024994D01*
X019429Y025096D02*
X019495Y025117D01*
X019559Y025142D01*
X019622Y025170D01*
X019684Y025201D01*
X019744Y025236D01*
X019801Y025275D01*
X019856Y025317D01*
X019909Y025361D01*
X019959Y025409D01*
X020007Y025459D01*
X020051Y025512D01*
X020093Y025568D01*
X020131Y025626D01*
X020166Y025685D01*
X020197Y025747D01*
X020225Y025810D01*
X020249Y025875D01*
X020269Y025941D01*
X020286Y026008D01*
X020299Y026076D01*
X020308Y026145D01*
X020313Y026214D01*
X020314Y026283D01*
X020311Y026352D01*
X020304Y026421D01*
X020294Y026490D01*
X020279Y026557D01*
X020261Y026624D01*
X020239Y026690D01*
X020213Y026754D01*
X020184Y026816D01*
X020151Y026877D01*
X020114Y026936D01*
X020075Y026993D01*
X020032Y027047D01*
X019986Y027099D01*
X019938Y027149D01*
X019886Y027195D01*
X019832Y027238D01*
X019776Y027279D01*
X019718Y027315D01*
X019657Y027349D01*
X019595Y027379D01*
X019531Y027406D01*
X019465Y027429D01*
X019399Y027448D01*
X019527Y027397D02*
X018661Y027397D01*
X018575Y027358D02*
X019613Y027358D01*
X019690Y027320D02*
X018498Y027320D01*
X018437Y027281D02*
X019751Y027281D01*
X019812Y027243D02*
X018377Y027243D01*
X018331Y027204D02*
X019857Y027204D01*
X019902Y027166D02*
X018286Y027166D01*
X019000Y027474D02*
X019188Y027474D01*
X017873Y026267D02*
X017875Y026337D01*
X017881Y026406D01*
X017891Y026475D01*
X017905Y026544D01*
X017922Y026611D01*
X017944Y026677D01*
X017969Y026742D01*
X017998Y026806D01*
X018031Y026867D01*
X018067Y026927D01*
X018106Y026985D01*
X018149Y027040D01*
X018194Y027093D01*
X018243Y027143D01*
X018294Y027190D01*
X018348Y027234D01*
X018405Y027275D01*
X018463Y027313D01*
X018524Y027347D01*
X018587Y027378D01*
X018651Y027405D01*
X018717Y027428D01*
X018784Y027448D01*
X018852Y027464D01*
X018920Y027476D01*
X018990Y027484D01*
X019059Y027488D01*
X019129Y027488D01*
X019198Y027484D01*
X019268Y027476D01*
X019336Y027464D01*
X019404Y027448D01*
X019471Y027428D01*
X019537Y027405D01*
X019601Y027378D01*
X019664Y027347D01*
X019725Y027313D01*
X019783Y027275D01*
X019840Y027234D01*
X019894Y027190D01*
X019945Y027143D01*
X019994Y027093D01*
X020039Y027040D01*
X020082Y026985D01*
X020121Y026927D01*
X020157Y026867D01*
X020190Y026806D01*
X020219Y026742D01*
X020244Y026677D01*
X020266Y026611D01*
X020283Y026544D01*
X020297Y026475D01*
X020307Y026406D01*
X020313Y026337D01*
X020315Y026267D01*
X020313Y026197D01*
X020307Y026128D01*
X020297Y026059D01*
X020283Y025990D01*
X020266Y025923D01*
X020244Y025857D01*
X020219Y025792D01*
X020190Y025728D01*
X020157Y025667D01*
X020121Y025607D01*
X020082Y025549D01*
X020039Y025494D01*
X019994Y025441D01*
X019945Y025391D01*
X019894Y025344D01*
X019840Y025300D01*
X019783Y025259D01*
X019725Y025221D01*
X019664Y025187D01*
X019601Y025156D01*
X019537Y025129D01*
X019471Y025106D01*
X019404Y025086D01*
X019336Y025070D01*
X019268Y025058D01*
X019198Y025050D01*
X019129Y025046D01*
X019059Y025046D01*
X018990Y025050D01*
X018920Y025058D01*
X018852Y025070D01*
X018784Y025086D01*
X018717Y025106D01*
X018651Y025129D01*
X018587Y025156D01*
X018524Y025187D01*
X018463Y025221D01*
X018405Y025259D01*
X018348Y025300D01*
X018294Y025344D01*
X018243Y025391D01*
X018194Y025441D01*
X018149Y025494D01*
X018106Y025549D01*
X018067Y025607D01*
X018031Y025667D01*
X017998Y025728D01*
X017969Y025792D01*
X017944Y025857D01*
X017922Y025923D01*
X017905Y025990D01*
X017891Y026059D01*
X017881Y026128D01*
X017875Y026197D01*
X017873Y026267D01*
X018759Y027438D02*
X018693Y027417D01*
X018629Y027392D01*
X018566Y027364D01*
X018504Y027333D01*
X018444Y027298D01*
X018387Y027259D01*
X018332Y027217D01*
X018279Y027173D01*
X018229Y027125D01*
X018181Y027075D01*
X018137Y027022D01*
X018095Y026966D01*
X018057Y026908D01*
X018022Y026849D01*
X017991Y026787D01*
X017963Y026724D01*
X017939Y026659D01*
X017919Y026593D01*
X017902Y026526D01*
X017889Y026458D01*
X017880Y026389D01*
X017875Y026320D01*
X017874Y026251D01*
X017877Y026182D01*
X017884Y026113D01*
X017894Y026044D01*
X017909Y025977D01*
X017927Y025910D01*
X017949Y025844D01*
X017975Y025780D01*
X018004Y025718D01*
X018037Y025657D01*
X018074Y025598D01*
X018113Y025541D01*
X018156Y025487D01*
X018202Y025435D01*
X018250Y025385D01*
X018302Y025339D01*
X018356Y025296D01*
X018412Y025255D01*
X018470Y025219D01*
X018531Y025185D01*
X018593Y025155D01*
X018657Y025128D01*
X018723Y025105D01*
X018789Y025086D01*
X020954Y027370D02*
X020954Y027830D01*
X021184Y027830D01*
X021261Y027754D01*
X021261Y027600D01*
X021184Y027523D01*
X020954Y027523D01*
X021107Y027523D02*
X021261Y027370D01*
X021414Y027600D02*
X021721Y027600D01*
X021874Y027447D02*
X021874Y027370D01*
X021874Y027447D02*
X022181Y027754D01*
X022181Y027830D01*
X021874Y027830D01*
X021644Y027830D02*
X021414Y027600D01*
X021644Y027370D02*
X021644Y027830D01*
X023343Y027830D02*
X023343Y027370D01*
X023343Y027523D02*
X023574Y027523D01*
X023650Y027600D01*
X023650Y027754D01*
X023574Y027830D01*
X023343Y027830D01*
X023497Y027523D02*
X023650Y027370D01*
X023804Y027600D02*
X024111Y027600D01*
X024264Y027523D02*
X024341Y027600D01*
X024494Y027600D01*
X024571Y027523D01*
X024571Y027447D01*
X024494Y027370D01*
X024341Y027370D01*
X024264Y027447D01*
X024264Y027523D01*
X024341Y027600D02*
X024264Y027677D01*
X024264Y027754D01*
X024341Y027830D01*
X024494Y027830D01*
X024571Y027754D01*
X024571Y027677D01*
X024494Y027600D01*
X024034Y027370D02*
X024034Y027830D01*
X023804Y027600D01*
X025084Y027523D02*
X025314Y027523D01*
X025390Y027600D01*
X025390Y027754D01*
X025314Y027830D01*
X025084Y027830D01*
X025084Y027370D01*
X025237Y027523D02*
X025390Y027370D01*
X025544Y027600D02*
X025851Y027600D01*
X026004Y027677D02*
X026081Y027600D01*
X026311Y027600D01*
X026311Y027447D02*
X026311Y027754D01*
X026235Y027830D01*
X026081Y027830D01*
X026004Y027754D01*
X026004Y027677D01*
X026004Y027447D02*
X026081Y027370D01*
X026235Y027370D01*
X026311Y027447D01*
X025774Y027370D02*
X025774Y027830D01*
X025544Y027600D01*
X023714Y024265D02*
X023433Y024265D01*
X023433Y023930D02*
X023714Y023930D01*
X022055Y020835D02*
X021902Y020835D01*
X021825Y020759D01*
X022055Y020835D02*
X022132Y020759D01*
X022132Y020682D01*
X021825Y020375D01*
X022132Y020375D01*
X021672Y020375D02*
X021365Y020375D01*
X021275Y020275D02*
X020994Y020275D01*
X020981Y020375D02*
X021135Y020375D01*
X021211Y020452D01*
X020981Y020375D02*
X020904Y020452D01*
X020904Y020759D01*
X020981Y020835D01*
X021135Y020835D01*
X021211Y020759D01*
X021365Y020682D02*
X021518Y020835D01*
X021518Y020375D01*
X021275Y019940D02*
X020994Y019940D01*
X021300Y019165D02*
X021300Y018885D01*
X021635Y018885D02*
X021635Y019165D01*
X021735Y019142D02*
X021735Y018835D01*
X021965Y018835D01*
X021888Y018988D01*
X021888Y019065D01*
X021965Y019142D01*
X022118Y019142D01*
X022195Y019065D01*
X022195Y018912D01*
X022118Y018835D01*
X022195Y018681D02*
X022195Y018374D01*
X021888Y018681D01*
X021811Y018681D01*
X021735Y018605D01*
X021735Y018451D01*
X021811Y018374D01*
X021811Y018221D02*
X021735Y018144D01*
X021735Y017991D01*
X021811Y017914D01*
X022118Y017914D01*
X022195Y017991D01*
X022195Y018144D01*
X022118Y018221D01*
X023131Y019075D02*
X023131Y019755D01*
X018790Y019140D02*
X018790Y018986D01*
X018713Y018910D01*
X018790Y018756D02*
X018790Y018449D01*
X018483Y018756D01*
X018406Y018756D01*
X018329Y018679D01*
X018329Y018526D01*
X018406Y018449D01*
X018406Y018296D02*
X018329Y018219D01*
X018329Y018066D01*
X018406Y017989D01*
X018713Y017989D01*
X018790Y018066D01*
X018790Y018219D01*
X018713Y018296D01*
X018230Y018240D02*
X018230Y017960D01*
X017895Y017960D02*
X017895Y018240D01*
X017679Y018869D02*
X017372Y018869D01*
X017219Y018869D02*
X016912Y018869D01*
X016822Y018769D02*
X016542Y018769D01*
X016528Y018869D02*
X016682Y018869D01*
X016759Y018946D01*
X016528Y018869D02*
X016452Y018946D01*
X016452Y019253D01*
X016528Y019329D01*
X016682Y019329D01*
X016759Y019253D01*
X016912Y019176D02*
X017066Y019329D01*
X017066Y018869D01*
X017372Y019176D02*
X017526Y019329D01*
X017526Y018869D01*
X018329Y018986D02*
X018329Y019140D01*
X018406Y019217D01*
X018483Y019217D01*
X018559Y019140D01*
X018636Y019217D01*
X018713Y019217D01*
X018790Y019140D01*
X018559Y019140D02*
X018559Y019063D01*
X018406Y018910D02*
X018329Y018986D01*
X016822Y018434D02*
X016542Y018434D01*
X014044Y018526D02*
X014044Y018679D01*
X013967Y018756D01*
X013967Y018910D02*
X014044Y018986D01*
X014044Y019140D01*
X013967Y019217D01*
X013890Y019217D01*
X013813Y019140D01*
X013813Y019063D01*
X013813Y019140D02*
X013737Y019217D01*
X013660Y019217D01*
X013583Y019140D01*
X013583Y018986D01*
X013660Y018910D01*
X013660Y018756D02*
X013583Y018679D01*
X013583Y018526D01*
X013660Y018449D01*
X013967Y018449D01*
X014044Y018526D01*
X013484Y018960D02*
X013484Y019240D01*
X013149Y019240D02*
X013149Y018960D01*
X013149Y017740D02*
X013149Y017460D01*
X013484Y017460D02*
X013484Y017740D01*
X013583Y017640D02*
X013813Y017410D01*
X013813Y017717D01*
X013583Y017640D02*
X014044Y017640D01*
X013967Y017256D02*
X014044Y017179D01*
X014044Y017026D01*
X013967Y016949D01*
X013660Y016949D01*
X013583Y017026D01*
X013583Y017179D01*
X013660Y017256D01*
X013484Y016240D02*
X013484Y015960D01*
X013583Y015910D02*
X013813Y015910D01*
X013737Y016063D01*
X013737Y016140D01*
X013813Y016217D01*
X013967Y016217D01*
X014044Y016140D01*
X014044Y015986D01*
X013967Y015910D01*
X013967Y015756D02*
X014044Y015679D01*
X014044Y015526D01*
X013967Y015449D01*
X013660Y015449D01*
X013583Y015526D01*
X013583Y015679D01*
X013660Y015756D01*
X013583Y015910D02*
X013583Y016217D01*
X013149Y016240D02*
X013149Y015960D01*
X012044Y015870D02*
X011583Y015870D01*
X011259Y016161D02*
X010952Y016161D01*
X010952Y016237D01*
X011029Y016314D01*
X010952Y016391D01*
X011029Y016468D01*
X011259Y016468D01*
X011259Y016314D02*
X011029Y016314D01*
X011182Y016621D02*
X011106Y016698D01*
X011106Y016928D01*
X011029Y016928D02*
X011259Y016928D01*
X011259Y016698D01*
X011182Y016621D01*
X010952Y016698D02*
X010952Y016851D01*
X011029Y016928D01*
X010952Y017081D02*
X010952Y017158D01*
X011259Y017158D01*
X011259Y017081D02*
X011259Y017235D01*
X011259Y017388D02*
X010952Y017388D01*
X010952Y017619D01*
X011029Y017695D01*
X011259Y017695D01*
X011259Y018309D02*
X010799Y018309D01*
X010952Y018309D02*
X010952Y018539D01*
X011029Y018616D01*
X011182Y018616D01*
X011259Y018539D01*
X011259Y018309D01*
X010799Y017158D02*
X010722Y017158D01*
X010658Y019370D02*
X010658Y019830D01*
X010504Y019677D01*
X010351Y019677D02*
X010274Y019600D01*
X010351Y019523D01*
X010351Y019447D01*
X010274Y019370D01*
X010121Y019370D01*
X010044Y019447D01*
X009890Y019370D02*
X009737Y019523D01*
X009814Y019523D02*
X009584Y019523D01*
X009584Y019370D02*
X009584Y019830D01*
X009814Y019830D01*
X009890Y019754D01*
X009890Y019600D01*
X009814Y019523D01*
X010044Y019754D02*
X010121Y019830D01*
X010274Y019830D01*
X010351Y019754D01*
X010351Y019677D01*
X010274Y019600D02*
X010197Y019600D01*
X010504Y019370D02*
X010811Y019370D01*
X009954Y019930D02*
X009673Y019930D01*
X009673Y020265D02*
X009954Y020265D01*
X009933Y020370D02*
X009779Y020370D01*
X009702Y020447D01*
X009702Y020754D01*
X009779Y020830D01*
X009933Y020830D01*
X010009Y020754D01*
X010163Y020677D02*
X010316Y020830D01*
X010316Y020370D01*
X010163Y020370D02*
X010470Y020370D01*
X010623Y020370D02*
X010623Y020447D01*
X010930Y020754D01*
X010930Y020830D01*
X010623Y020830D01*
X010635Y021151D02*
X010558Y021227D01*
X010635Y021304D01*
X010865Y021304D01*
X010865Y021381D02*
X010865Y021151D01*
X010635Y021151D01*
X010405Y021151D02*
X010405Y021381D01*
X010328Y021457D01*
X010174Y021457D01*
X010098Y021381D01*
X009944Y021381D02*
X009867Y021457D01*
X009714Y021457D01*
X009637Y021381D01*
X009637Y021227D01*
X009714Y021151D01*
X009867Y021151D01*
X009944Y021227D01*
X009944Y021381D01*
X010098Y021611D02*
X010098Y021151D01*
X010635Y021457D02*
X010788Y021457D01*
X010865Y021381D01*
X010952Y021455D02*
X010952Y021609D01*
X011029Y021685D01*
X011106Y021685D01*
X011106Y021378D01*
X011182Y021378D02*
X011029Y021378D01*
X010952Y021455D01*
X011018Y021457D02*
X011249Y021457D01*
X011325Y021381D01*
X011325Y021151D01*
X011479Y021151D02*
X011479Y021457D01*
X011709Y021457D01*
X011786Y021381D01*
X011786Y021151D01*
X011939Y021227D02*
X011939Y021381D01*
X012016Y021457D01*
X012169Y021457D01*
X012246Y021381D01*
X012246Y021304D01*
X011939Y021304D01*
X011939Y021227D02*
X012016Y021151D01*
X012169Y021151D01*
X012400Y021151D02*
X012630Y021151D01*
X012707Y021227D01*
X012630Y021304D01*
X012476Y021304D01*
X012400Y021381D01*
X012476Y021457D01*
X012707Y021457D01*
X013320Y021381D02*
X013627Y021381D01*
X013781Y021457D02*
X013781Y021227D01*
X013858Y021151D01*
X014088Y021151D01*
X014088Y021457D01*
X014241Y021381D02*
X014241Y021227D01*
X014318Y021151D01*
X014471Y021151D01*
X014548Y021304D02*
X014241Y021304D01*
X014241Y021381D02*
X014318Y021457D01*
X014471Y021457D01*
X014548Y021381D01*
X014548Y021304D01*
X014702Y021457D02*
X014932Y021457D01*
X015008Y021381D01*
X015008Y021227D01*
X014932Y021151D01*
X014702Y021151D01*
X014702Y021611D01*
X015162Y021457D02*
X015162Y021151D01*
X015162Y021457D02*
X015392Y021457D01*
X015469Y021381D01*
X015469Y021151D01*
X015622Y021227D02*
X015622Y021381D01*
X015699Y021457D01*
X015853Y021457D01*
X015929Y021381D01*
X015929Y021304D01*
X015622Y021304D01*
X015622Y021227D02*
X015699Y021151D01*
X015853Y021151D01*
X016083Y021151D02*
X016083Y021457D01*
X016083Y021304D02*
X016236Y021457D01*
X016313Y021457D01*
X013627Y021611D02*
X013627Y021151D01*
X013320Y021151D02*
X013320Y021611D01*
X011259Y021609D02*
X011259Y021455D01*
X011182Y021378D01*
X011018Y021457D02*
X011018Y021151D01*
X010952Y021148D02*
X010952Y021225D01*
X010952Y021148D02*
X011106Y020995D01*
X011259Y020995D02*
X010952Y020995D01*
X010952Y021839D02*
X011259Y021992D01*
X010952Y022146D01*
X010564Y022210D02*
X009064Y022210D01*
X009064Y023990D01*
X010564Y023990D01*
X010564Y022210D01*
X010952Y022760D02*
X010799Y022913D01*
X011259Y022913D01*
X011259Y022760D02*
X011259Y023067D01*
X011144Y023049D02*
X011144Y023279D01*
X011067Y023356D01*
X010760Y023356D01*
X010683Y023279D01*
X010683Y023049D01*
X011144Y023049D01*
X011182Y023220D02*
X011182Y023297D01*
X011259Y023297D01*
X011259Y023220D01*
X011182Y023220D01*
X011259Y023450D02*
X010952Y023757D01*
X010875Y023757D01*
X010799Y023680D01*
X010799Y023527D01*
X010875Y023450D01*
X010760Y023510D02*
X010683Y023586D01*
X010683Y023740D01*
X010760Y023817D01*
X010837Y023817D01*
X011144Y023510D01*
X011144Y023817D01*
X011259Y023757D02*
X011259Y023450D01*
X009484Y021611D02*
X009330Y021611D01*
X009407Y021611D02*
X009407Y021227D01*
X009330Y021151D01*
X009254Y021151D01*
X009177Y021227D01*
X008563Y021227D02*
X008563Y021534D01*
X008256Y021227D01*
X008333Y021151D01*
X008486Y021151D01*
X008563Y021227D01*
X008256Y021227D02*
X008256Y021534D01*
X008333Y021611D01*
X008486Y021611D01*
X008563Y021534D01*
X008103Y021534D02*
X008026Y021611D01*
X007872Y021611D01*
X007796Y021534D01*
X007642Y021534D02*
X007335Y021227D01*
X007412Y021151D01*
X007565Y021151D01*
X007642Y021227D01*
X007642Y021534D01*
X007565Y021611D01*
X007412Y021611D01*
X007335Y021534D01*
X007335Y021227D01*
X007182Y021151D02*
X006875Y021151D01*
X007182Y021457D01*
X007182Y021534D01*
X007105Y021611D01*
X006952Y021611D01*
X006875Y021534D01*
X006261Y021457D02*
X006108Y021611D01*
X005954Y021534D02*
X005877Y021611D01*
X005724Y021611D01*
X005647Y021534D01*
X005647Y021227D01*
X005724Y021151D01*
X005877Y021151D01*
X005954Y021227D01*
X006108Y021151D02*
X006261Y021304D01*
X006261Y021457D01*
X005494Y021611D02*
X005340Y021457D01*
X005340Y021304D01*
X005494Y021151D01*
X004794Y021236D02*
X004717Y021160D01*
X004794Y021236D02*
X004794Y021390D01*
X004717Y021467D01*
X004640Y021467D01*
X004563Y021390D01*
X004563Y021313D01*
X004563Y021390D02*
X004487Y021467D01*
X004410Y021467D01*
X004333Y021390D01*
X004333Y021236D01*
X004410Y021160D01*
X004410Y021006D02*
X004333Y020929D01*
X004333Y020776D01*
X004410Y020699D01*
X004717Y020699D01*
X004794Y020776D01*
X004794Y020929D01*
X004717Y021006D01*
X004794Y020546D02*
X004794Y020392D01*
X004794Y020469D02*
X004333Y020469D01*
X004333Y020392D02*
X004333Y020546D01*
X004337Y022269D02*
X004337Y022729D01*
X004184Y022576D01*
X004030Y022653D02*
X003954Y022729D01*
X003723Y022729D01*
X003723Y022269D01*
X003954Y022269D01*
X004030Y022346D01*
X004030Y022653D01*
X004184Y022269D02*
X004491Y022269D01*
X004664Y022849D02*
X004664Y024349D01*
X002884Y024349D01*
X002884Y022849D01*
X004664Y022849D01*
X004339Y025115D02*
X004024Y025430D01*
X004024Y029131D01*
X005697Y029131D01*
X005792Y029049D02*
X005560Y029007D01*
X005336Y028936D01*
X005121Y028839D01*
X004920Y028717D01*
X007134Y028717D01*
X006933Y028839D01*
X006719Y028936D01*
X006494Y029007D01*
X006262Y029049D01*
X006027Y029063D01*
X005792Y029049D01*
X005842Y029052D02*
X006212Y029052D01*
X006377Y029131D02*
X008040Y029131D01*
X008040Y025430D01*
X007725Y025115D01*
X004339Y025115D01*
X004024Y025430D01*
X004024Y029131D01*
X008040Y029131D01*
X008040Y025430D01*
X007725Y025115D01*
X008005Y024681D02*
X008285Y024681D01*
X008285Y024346D02*
X008005Y024346D01*
X008032Y024247D02*
X008185Y024247D01*
X008262Y024170D01*
X007955Y023863D01*
X008032Y023786D01*
X008185Y023786D01*
X008262Y023863D01*
X008262Y024170D01*
X008032Y024247D02*
X007955Y024170D01*
X007955Y023863D01*
X007801Y023786D02*
X007494Y023786D01*
X007648Y023786D02*
X007648Y024247D01*
X007494Y024093D01*
X007341Y024170D02*
X007264Y024247D01*
X007111Y024247D01*
X007034Y024170D01*
X007034Y023863D01*
X007111Y023786D01*
X007264Y023786D01*
X007341Y023863D01*
X008103Y021534D02*
X008103Y021457D01*
X007796Y021151D01*
X008103Y021151D01*
X009933Y020370D02*
X010009Y020447D01*
X004930Y017830D02*
X004623Y017830D01*
X004623Y017600D01*
X004777Y017677D01*
X004853Y017677D01*
X004930Y017600D01*
X004930Y017447D01*
X004853Y017370D01*
X004700Y017370D01*
X004623Y017447D01*
X004470Y017370D02*
X004163Y017370D01*
X004316Y017370D02*
X004316Y017830D01*
X004163Y017677D01*
X004009Y017754D02*
X004009Y017600D01*
X003933Y017523D01*
X003702Y017523D01*
X003702Y017370D02*
X003702Y017830D01*
X003933Y017830D01*
X004009Y017754D01*
X003856Y017523D02*
X004009Y017370D01*
X002586Y019891D02*
X002586Y020171D01*
X002251Y020171D02*
X002251Y019891D01*
X002151Y019878D02*
X002151Y020031D01*
X002074Y020108D01*
X001921Y020261D02*
X001921Y020568D01*
X001997Y020722D02*
X001921Y020799D01*
X001921Y020952D01*
X001997Y021029D01*
X002074Y021029D01*
X002151Y020952D01*
X002151Y020799D01*
X002074Y020722D01*
X001997Y020722D01*
X001921Y020799D02*
X001844Y020722D01*
X001767Y020722D01*
X001690Y020799D01*
X001690Y020952D01*
X001767Y021029D01*
X001844Y021029D01*
X001921Y020952D01*
X002151Y020492D02*
X001690Y020492D01*
X001921Y020261D01*
X001767Y020108D02*
X001690Y020031D01*
X001690Y019878D01*
X001767Y019801D01*
X002074Y019801D01*
X002151Y019878D01*
X005697Y025204D02*
X005603Y025223D01*
X005511Y025246D01*
X005419Y025274D01*
X005329Y025306D01*
X005241Y025342D01*
X005155Y025383D01*
X005070Y025428D01*
X004988Y025478D01*
X004909Y025531D01*
X004832Y025588D01*
X004758Y025648D01*
X004687Y025713D01*
X004620Y025780D01*
X004556Y025851D01*
X004495Y025925D01*
X004438Y026002D01*
X004385Y026081D01*
X004336Y026163D01*
X004291Y026247D01*
X004250Y026334D01*
X004213Y026422D01*
X004181Y026512D01*
X004154Y026604D01*
X004130Y026696D01*
X004112Y026790D01*
X004098Y026885D01*
X004088Y026980D01*
X004084Y027075D01*
X004084Y027171D01*
X004088Y027266D01*
X004098Y027361D01*
X004112Y027456D01*
X004130Y027550D01*
X004154Y027642D01*
X004181Y027734D01*
X004213Y027824D01*
X004250Y027912D01*
X004291Y027999D01*
X004336Y028083D01*
X004385Y028165D01*
X004438Y028244D01*
X004495Y028321D01*
X004556Y028395D01*
X004620Y028466D01*
X004687Y028533D01*
X004758Y028598D01*
X004832Y028658D01*
X004909Y028715D01*
X004988Y028768D01*
X005070Y028818D01*
X005155Y028863D01*
X005241Y028904D01*
X005329Y028940D01*
X005419Y028972D01*
X005511Y029000D01*
X005603Y029023D01*
X005697Y029042D01*
X005599Y029014D02*
X006455Y029014D01*
X006594Y028975D02*
X005460Y028975D01*
X005337Y028937D02*
X006717Y028937D01*
X006803Y028898D02*
X005251Y028898D01*
X005166Y028860D02*
X006888Y028860D01*
X006963Y028821D02*
X005091Y028821D01*
X005028Y028783D02*
X007026Y028783D01*
X007090Y028744D02*
X004964Y028744D01*
X004083Y027123D02*
X004085Y027219D01*
X004092Y027314D01*
X004104Y027409D01*
X004120Y027503D01*
X004141Y027597D01*
X004167Y027689D01*
X004197Y027780D01*
X004231Y027869D01*
X004270Y027956D01*
X004313Y028042D01*
X004360Y028125D01*
X004411Y028206D01*
X004467Y028284D01*
X004525Y028359D01*
X004588Y028432D01*
X004654Y028501D01*
X004723Y028567D01*
X004796Y028630D01*
X004871Y028688D01*
X004949Y028744D01*
X005030Y028795D01*
X005113Y028842D01*
X005199Y028885D01*
X005286Y028924D01*
X005375Y028958D01*
X005466Y028988D01*
X005558Y029014D01*
X005652Y029035D01*
X005746Y029051D01*
X005841Y029063D01*
X005936Y029070D01*
X006032Y029072D01*
X006128Y029070D01*
X006223Y029063D01*
X006318Y029051D01*
X006412Y029035D01*
X006506Y029014D01*
X006598Y028988D01*
X006689Y028958D01*
X006778Y028924D01*
X006865Y028885D01*
X006951Y028842D01*
X007034Y028795D01*
X007115Y028744D01*
X007193Y028688D01*
X007268Y028630D01*
X007341Y028567D01*
X007410Y028501D01*
X007476Y028432D01*
X007539Y028359D01*
X007597Y028284D01*
X007653Y028206D01*
X007704Y028125D01*
X007751Y028042D01*
X007794Y027956D01*
X007833Y027869D01*
X007867Y027780D01*
X007897Y027689D01*
X007923Y027597D01*
X007944Y027503D01*
X007960Y027409D01*
X007972Y027314D01*
X007979Y027219D01*
X007981Y027123D01*
X007979Y027027D01*
X007972Y026932D01*
X007960Y026837D01*
X007944Y026743D01*
X007923Y026649D01*
X007897Y026557D01*
X007867Y026466D01*
X007833Y026377D01*
X007794Y026290D01*
X007751Y026204D01*
X007704Y026121D01*
X007653Y026040D01*
X007597Y025962D01*
X007539Y025887D01*
X007476Y025814D01*
X007410Y025745D01*
X007341Y025679D01*
X007268Y025616D01*
X007193Y025558D01*
X007115Y025502D01*
X007034Y025451D01*
X006951Y025404D01*
X006865Y025361D01*
X006778Y025322D01*
X006689Y025288D01*
X006598Y025258D01*
X006506Y025232D01*
X006412Y025211D01*
X006318Y025195D01*
X006223Y025183D01*
X006128Y025176D01*
X006032Y025174D01*
X005936Y025176D01*
X005841Y025183D01*
X005746Y025195D01*
X005652Y025211D01*
X005558Y025232D01*
X005466Y025258D01*
X005375Y025288D01*
X005286Y025322D01*
X005199Y025361D01*
X005113Y025404D01*
X005030Y025451D01*
X004949Y025502D01*
X004871Y025558D01*
X004796Y025616D01*
X004723Y025679D01*
X004654Y025745D01*
X004588Y025814D01*
X004525Y025887D01*
X004467Y025962D01*
X004411Y026040D01*
X004360Y026121D01*
X004313Y026204D01*
X004270Y026290D01*
X004231Y026377D01*
X004197Y026466D01*
X004167Y026557D01*
X004141Y026649D01*
X004120Y026743D01*
X004104Y026837D01*
X004092Y026932D01*
X004085Y027027D01*
X004083Y027123D01*
X006367Y025204D02*
X006461Y025223D01*
X006553Y025246D01*
X006645Y025274D01*
X006735Y025306D01*
X006823Y025342D01*
X006909Y025383D01*
X006994Y025428D01*
X007076Y025478D01*
X007155Y025531D01*
X007232Y025588D01*
X007306Y025648D01*
X007377Y025713D01*
X007444Y025780D01*
X007508Y025851D01*
X007569Y025925D01*
X007626Y026002D01*
X007679Y026081D01*
X007728Y026163D01*
X007773Y026247D01*
X007814Y026334D01*
X007851Y026422D01*
X007883Y026512D01*
X007910Y026604D01*
X007934Y026696D01*
X007952Y026790D01*
X007966Y026885D01*
X007976Y026980D01*
X007980Y027075D01*
X007980Y027171D01*
X007976Y027266D01*
X007966Y027361D01*
X007952Y027456D01*
X007934Y027550D01*
X007910Y027642D01*
X007883Y027734D01*
X007851Y027824D01*
X007814Y027912D01*
X007773Y027999D01*
X007728Y028083D01*
X007679Y028165D01*
X007626Y028244D01*
X007569Y028321D01*
X007508Y028395D01*
X007444Y028466D01*
X007377Y028533D01*
X007306Y028598D01*
X007232Y028658D01*
X007155Y028715D01*
X007076Y028768D01*
X006994Y028818D01*
X006909Y028863D01*
X006823Y028904D01*
X006735Y028940D01*
X006645Y028972D01*
X006553Y029000D01*
X006461Y029023D01*
X006367Y029042D01*
X012677Y029033D02*
X012677Y028879D01*
X012754Y028803D01*
X013061Y028803D01*
X013138Y028879D01*
X013138Y029033D01*
X013061Y029110D01*
X013138Y029263D02*
X013138Y029570D01*
X013138Y029417D02*
X012677Y029417D01*
X012831Y029263D01*
X012754Y029110D02*
X012677Y029033D01*
X012677Y028649D02*
X012677Y028496D01*
X012677Y028573D02*
X013138Y028573D01*
X013138Y028649D02*
X013138Y028496D01*
X017410Y013080D02*
X017334Y013004D01*
X017334Y012697D01*
X017410Y012620D01*
X017564Y012620D01*
X017640Y012697D01*
X017794Y012620D02*
X018101Y012927D01*
X018101Y013004D01*
X018024Y013080D01*
X017871Y013080D01*
X017794Y013004D01*
X017640Y013004D02*
X017564Y013080D01*
X017410Y013080D01*
X017423Y012520D02*
X017704Y012520D01*
X017794Y012620D02*
X018101Y012620D01*
X018254Y012697D02*
X018331Y012620D01*
X018485Y012620D01*
X018561Y012697D01*
X018561Y013004D01*
X018485Y013080D01*
X018331Y013080D01*
X018254Y013004D01*
X018254Y012927D01*
X018331Y012850D01*
X018561Y012850D01*
X017704Y012185D02*
X017423Y012185D01*
X017390Y011610D02*
X017680Y011610D01*
X017690Y011090D02*
X017390Y011090D01*
X017369Y010830D02*
X017446Y010754D01*
X017446Y010677D01*
X017139Y010370D01*
X017446Y010370D01*
X017600Y010370D02*
X017906Y010677D01*
X017906Y010754D01*
X017830Y010830D01*
X017676Y010830D01*
X017600Y010754D01*
X017369Y010830D02*
X017216Y010830D01*
X017139Y010754D01*
X016986Y010754D02*
X016909Y010830D01*
X016755Y010830D01*
X016679Y010754D01*
X016679Y010447D01*
X016755Y010370D01*
X016909Y010370D01*
X016986Y010447D01*
X017600Y010370D02*
X017906Y010370D01*
X020302Y008968D02*
X020302Y008661D01*
X020379Y008585D01*
X020532Y008585D01*
X020609Y008661D01*
X020762Y008661D02*
X020839Y008585D01*
X020992Y008585D01*
X021069Y008661D01*
X021069Y008738D01*
X020992Y008815D01*
X020916Y008815D01*
X020992Y008815D02*
X021069Y008891D01*
X021069Y008968D01*
X020992Y009045D01*
X020839Y009045D01*
X020762Y008968D01*
X020609Y008968D02*
X020532Y009045D01*
X020379Y009045D01*
X020302Y008968D01*
X021223Y008968D02*
X021223Y008891D01*
X021299Y008815D01*
X021453Y008815D01*
X021529Y008738D01*
X021529Y008661D01*
X021453Y008585D01*
X021299Y008585D01*
X021223Y008661D01*
X021223Y008738D01*
X021299Y008815D01*
X021453Y008815D02*
X021529Y008891D01*
X021529Y008968D01*
X021453Y009045D01*
X021299Y009045D01*
X021223Y008968D01*
X021307Y008249D02*
X021027Y008249D01*
X021027Y007914D02*
X021307Y007914D01*
X021173Y005270D02*
X021454Y005270D01*
X021454Y004935D02*
X021173Y004935D01*
X021252Y004723D02*
X021405Y004723D01*
X021482Y004646D01*
X021482Y004570D01*
X021405Y004493D01*
X021482Y004416D01*
X021482Y004339D01*
X021405Y004263D01*
X021252Y004263D01*
X021175Y004339D01*
X021021Y004339D02*
X020945Y004263D01*
X020791Y004263D01*
X020714Y004339D01*
X020714Y004646D01*
X020791Y004723D01*
X020945Y004723D01*
X021021Y004646D01*
X021175Y004646D02*
X021252Y004723D01*
X021328Y004493D02*
X021405Y004493D01*
X021635Y004493D02*
X021865Y004493D01*
X021942Y004416D01*
X021942Y004339D01*
X021865Y004263D01*
X021712Y004263D01*
X021635Y004339D01*
X021635Y004493D01*
X021789Y004646D01*
X021942Y004723D01*
X021933Y011870D02*
X022009Y011947D01*
X021933Y011870D02*
X021779Y011870D01*
X021702Y011947D01*
X021702Y012254D01*
X021779Y012330D01*
X021933Y012330D01*
X022009Y012254D01*
X022163Y012254D02*
X022239Y012330D01*
X022393Y012330D01*
X022470Y012254D01*
X022470Y012177D01*
X022393Y012100D01*
X022470Y012023D01*
X022470Y011947D01*
X022393Y011870D01*
X022239Y011870D01*
X022163Y011947D01*
X022316Y012100D02*
X022393Y012100D01*
X022623Y011947D02*
X022930Y012254D01*
X022930Y011947D01*
X022853Y011870D01*
X022700Y011870D01*
X022623Y011947D01*
X022623Y012254D01*
X022700Y012330D01*
X022853Y012330D01*
X022930Y012254D01*
X022954Y012430D02*
X022673Y012430D01*
X022673Y012765D02*
X022954Y012765D01*
X014044Y011640D02*
X013967Y011717D01*
X013660Y011717D01*
X013583Y011640D01*
X013583Y011486D01*
X013660Y011410D01*
X013737Y011410D01*
X013813Y011486D01*
X013813Y011717D01*
X014044Y011640D02*
X014044Y011486D01*
X013967Y011410D01*
X013967Y011256D02*
X014044Y011179D01*
X014044Y011026D01*
X013967Y010949D01*
X013660Y010949D01*
X013583Y011026D01*
X013583Y011179D01*
X013660Y011256D01*
X013484Y011460D02*
X013484Y011740D01*
X013149Y011740D02*
X013149Y011460D01*
X013149Y010240D02*
X013149Y009960D01*
X013484Y009960D02*
X013484Y010240D01*
X013583Y010217D02*
X013583Y009910D01*
X013813Y009910D01*
X013737Y010063D01*
X013737Y010140D01*
X013813Y010217D01*
X013967Y010217D01*
X014044Y010140D01*
X014044Y009986D01*
X013967Y009910D01*
X014044Y009756D02*
X014044Y009449D01*
X014044Y009603D02*
X013583Y009603D01*
X013737Y009449D01*
X013660Y009296D02*
X013583Y009219D01*
X013583Y009066D01*
X013660Y008989D01*
X013967Y008989D01*
X014044Y009066D01*
X014044Y009219D01*
X013967Y009296D01*
X011583Y010791D02*
X011583Y011098D01*
X011660Y011098D01*
X011259Y011250D02*
X010952Y011250D01*
X010351Y010754D02*
X010274Y010830D01*
X010121Y010830D01*
X010044Y010754D01*
X009890Y010754D02*
X009890Y010600D01*
X009814Y010523D01*
X009584Y010523D01*
X009584Y010370D02*
X009584Y010830D01*
X009814Y010830D01*
X009890Y010754D01*
X009737Y010523D02*
X009890Y010370D01*
X010044Y010370D02*
X010351Y010677D01*
X010351Y010754D01*
X010351Y010370D02*
X010044Y010370D01*
X030010Y025511D02*
X030010Y025665D01*
X030010Y025588D02*
X030471Y025588D01*
X030471Y025511D02*
X030471Y025665D01*
X030394Y025818D02*
X030087Y025818D01*
X030010Y025895D01*
X030010Y026049D01*
X030087Y026125D01*
X030010Y026279D02*
X030010Y026586D01*
X030087Y026586D01*
X030394Y026279D01*
X030471Y026279D01*
X030394Y026125D02*
X030471Y026049D01*
X030471Y025895D01*
X030394Y025818D01*
X030871Y026403D02*
X030871Y026634D01*
X030947Y026710D01*
X031101Y026710D01*
X031177Y026634D01*
X031177Y026403D01*
X031177Y026557D02*
X031331Y026710D01*
X031101Y026864D02*
X031101Y027171D01*
X031254Y027324D02*
X031331Y027401D01*
X031331Y027554D01*
X031254Y027631D01*
X031177Y027631D01*
X031101Y027554D01*
X031101Y027478D01*
X031101Y027554D02*
X031024Y027631D01*
X030947Y027631D01*
X030871Y027554D01*
X030871Y027401D01*
X030947Y027324D01*
X030871Y027094D02*
X031101Y026864D01*
X031331Y027094D02*
X030871Y027094D01*
X030871Y026403D02*
X031331Y026403D01*
D11*
X030954Y026016D02*
X030954Y025676D01*
X030673Y025676D02*
X030673Y026016D01*
X028564Y022600D02*
X027564Y022600D01*
X027564Y021600D01*
X027564Y020600D01*
X027564Y019600D01*
X027564Y018600D01*
X027564Y017600D01*
X028564Y017600D01*
X028564Y018600D01*
X028564Y019600D01*
X028564Y020600D01*
X028564Y021600D01*
X028564Y022600D01*
X028564Y021600D02*
X027564Y021600D01*
X027564Y020600D02*
X028564Y020600D01*
X028564Y019600D02*
X027564Y019600D01*
X027564Y018600D02*
X028564Y018600D01*
X025954Y016400D02*
X025954Y016060D01*
X025673Y016060D02*
X025673Y016400D01*
X026164Y014650D02*
X026164Y014350D01*
X026464Y014350D01*
X026464Y014650D01*
X026164Y014650D01*
X026164Y014350D02*
X025864Y014350D01*
X025464Y014350D01*
X025447Y014348D01*
X025430Y014344D01*
X025414Y014337D01*
X025400Y014327D01*
X025387Y014314D01*
X025377Y014300D01*
X025370Y014284D01*
X025366Y014267D01*
X025364Y014250D01*
X025364Y009950D01*
X025366Y009933D01*
X025370Y009916D01*
X025377Y009900D01*
X025387Y009886D01*
X025400Y009873D01*
X025414Y009863D01*
X025430Y009856D01*
X025447Y009852D01*
X025464Y009850D01*
X025864Y009850D01*
X026764Y009850D01*
X027164Y009850D01*
X027181Y009852D01*
X027198Y009856D01*
X027214Y009863D01*
X027228Y009873D01*
X027241Y009886D01*
X027251Y009900D01*
X027258Y009916D01*
X027262Y009933D01*
X027264Y009950D01*
X027264Y014250D01*
X027262Y014267D01*
X027258Y014284D01*
X027251Y014300D01*
X027241Y014314D01*
X027228Y014327D01*
X027214Y014337D01*
X027198Y014344D01*
X027181Y014348D01*
X027164Y014350D01*
X026764Y014350D01*
X026464Y014350D01*
X026564Y012350D02*
X026314Y012350D01*
X026064Y012350D01*
X026064Y012200D02*
X026064Y012000D01*
X026564Y012000D01*
X026564Y012200D01*
X026064Y012200D01*
X026064Y011850D02*
X026314Y011850D01*
X026564Y011850D01*
X026464Y009850D02*
X026464Y009550D01*
X026164Y009550D01*
X026164Y009850D01*
X022984Y007240D02*
X022643Y007240D01*
X022643Y006960D02*
X022984Y006960D01*
X022984Y006240D02*
X022643Y006240D01*
X022643Y005960D02*
X022984Y005960D01*
X024150Y005960D02*
X024491Y005960D01*
X024491Y006240D02*
X024150Y006240D01*
X025620Y005240D02*
X025960Y005240D01*
X025960Y004960D02*
X025620Y004960D01*
X025564Y003600D02*
X026064Y003600D01*
X026314Y003350D01*
X026314Y001850D01*
X026064Y001600D01*
X025564Y001600D01*
X025314Y001850D01*
X025314Y003350D01*
X025064Y003600D01*
X024564Y003600D01*
X024314Y003350D01*
X024314Y001850D01*
X024064Y001600D01*
X023564Y001600D01*
X023314Y001850D01*
X023314Y003350D01*
X023064Y003600D01*
X022564Y003600D01*
X022314Y003350D01*
X022314Y001850D01*
X022064Y001600D01*
X021564Y001600D01*
X021314Y001850D01*
X021314Y003350D01*
X021064Y003600D01*
X020564Y003600D01*
X020314Y003350D01*
X020064Y003600D01*
X019564Y003600D01*
X019314Y003350D01*
X019314Y001850D01*
X019564Y001600D01*
X020064Y001600D01*
X020314Y001850D01*
X020314Y003350D01*
X021314Y003350D02*
X021564Y003600D01*
X022064Y003600D01*
X022314Y003350D01*
X023314Y003350D02*
X023564Y003600D01*
X024064Y003600D01*
X024314Y003350D01*
X025314Y003350D02*
X025564Y003600D01*
X025314Y001850D02*
X025064Y001600D01*
X024564Y001600D01*
X024314Y001850D01*
X023314Y001850D02*
X023064Y001600D01*
X022564Y001600D01*
X022314Y001850D01*
X021314Y001850D02*
X021064Y001600D01*
X020564Y001600D01*
X020314Y001850D01*
X019984Y005960D02*
X019643Y005960D01*
X019643Y006240D02*
X019984Y006240D01*
X021143Y006240D02*
X021484Y006240D01*
X021484Y005960D02*
X021143Y005960D01*
X019043Y007419D02*
X016584Y007419D01*
X016584Y008781D01*
X019043Y008781D01*
X019043Y007419D01*
X012454Y008430D02*
X012454Y008770D01*
X012173Y008770D02*
X012173Y008430D01*
X012173Y009930D02*
X012173Y010270D01*
X012454Y010270D02*
X012454Y009930D01*
X012454Y011430D02*
X012454Y011770D01*
X012173Y011770D02*
X012173Y011430D01*
X012173Y012930D02*
X012173Y013270D01*
X012454Y013270D02*
X012454Y012930D01*
X012454Y014430D02*
X012454Y014770D01*
X012173Y014770D02*
X012173Y014430D01*
X012173Y015930D02*
X012173Y016270D01*
X012454Y016270D02*
X012454Y015930D01*
X012454Y017430D02*
X012454Y017770D01*
X012173Y017770D02*
X012173Y017430D01*
X012173Y018930D02*
X012173Y019270D01*
X012454Y019270D02*
X012454Y018930D01*
X009984Y018960D02*
X009643Y018960D01*
X009643Y019240D02*
X009984Y019240D01*
X009984Y018240D02*
X009643Y018240D01*
X009643Y017960D02*
X009984Y017960D01*
X009984Y017240D02*
X009643Y017240D01*
X009643Y016960D02*
X009984Y016960D01*
X009984Y016240D02*
X009643Y016240D01*
X009643Y015960D02*
X009984Y015960D01*
X009984Y015240D02*
X009643Y015240D01*
X009643Y014960D02*
X009984Y014960D01*
X009984Y014240D02*
X009643Y014240D01*
X009643Y013960D02*
X009984Y013960D01*
X009984Y013240D02*
X009643Y013240D01*
X009643Y012960D02*
X009984Y012960D01*
X009984Y012240D02*
X009643Y012240D01*
X009643Y011960D02*
X009984Y011960D01*
X009984Y011240D02*
X009643Y011240D01*
X009643Y010960D02*
X009984Y010960D01*
X009984Y010240D02*
X009643Y010240D01*
X009643Y009960D02*
X009984Y009960D01*
X009984Y009240D02*
X009643Y009240D01*
X009643Y008960D02*
X009984Y008960D01*
X009984Y008240D02*
X009643Y008240D01*
X009643Y007960D02*
X009984Y007960D01*
X009984Y007240D02*
X009643Y007240D01*
X009643Y006960D02*
X009984Y006960D01*
X009984Y006240D02*
X009643Y006240D01*
X009643Y005960D02*
X009984Y005960D01*
X011700Y005406D02*
X011700Y005066D01*
X011980Y005066D02*
X011980Y005406D01*
X010160Y003700D02*
X009820Y003700D01*
X009820Y003419D02*
X010160Y003419D01*
X010263Y002132D02*
X010300Y002132D01*
X010300Y001495D01*
X010263Y001495D01*
X010300Y001495D02*
X009180Y001495D01*
X009217Y001495D01*
X009180Y001495D02*
X009180Y002132D01*
X009217Y002132D01*
X009180Y002132D02*
X010300Y002132D01*
X009945Y002132D02*
X009908Y002132D01*
X009571Y002132D02*
X009534Y002132D01*
X009534Y001495D02*
X009945Y001495D01*
X010980Y001814D02*
X010982Y001846D01*
X010988Y001877D01*
X010998Y001908D01*
X011011Y001937D01*
X011028Y001964D01*
X011048Y001989D01*
X011071Y002011D01*
X011096Y002031D01*
X011124Y002047D01*
X011154Y002059D01*
X011184Y002068D01*
X011216Y002073D01*
X011248Y002074D01*
X011280Y002071D01*
X011311Y002064D01*
X011341Y002053D01*
X011370Y002039D01*
X011397Y002021D01*
X011421Y002001D01*
X011443Y001977D01*
X011461Y001951D01*
X011476Y001923D01*
X011488Y001893D01*
X011496Y001862D01*
X011500Y001830D01*
X011500Y001798D01*
X011496Y001766D01*
X011488Y001735D01*
X011476Y001705D01*
X011461Y001677D01*
X011443Y001651D01*
X011421Y001627D01*
X011397Y001607D01*
X011370Y001589D01*
X011341Y001575D01*
X011311Y001564D01*
X011280Y001557D01*
X011248Y001554D01*
X011216Y001555D01*
X011184Y001560D01*
X011154Y001569D01*
X011124Y001581D01*
X011096Y001597D01*
X011071Y001617D01*
X011048Y001639D01*
X011028Y001664D01*
X011011Y001691D01*
X010998Y001720D01*
X010988Y001751D01*
X010982Y001782D01*
X010980Y001814D01*
X008734Y003419D02*
X008393Y003419D01*
X008393Y003700D02*
X008734Y003700D01*
X004984Y003960D02*
X004643Y003960D01*
X004643Y004240D02*
X004984Y004240D01*
X004984Y004960D02*
X004643Y004960D01*
X004643Y005240D02*
X004984Y005240D01*
X004984Y005960D02*
X004643Y005960D01*
X004643Y006240D02*
X004984Y006240D01*
X004984Y006960D02*
X004643Y006960D01*
X004643Y007240D02*
X004984Y007240D01*
X004984Y007960D02*
X004643Y007960D01*
X004643Y008240D02*
X004984Y008240D01*
X004984Y008960D02*
X004643Y008960D01*
X004643Y009240D02*
X004984Y009240D01*
X004984Y009960D02*
X004643Y009960D01*
X004643Y010240D02*
X004984Y010240D01*
X004984Y010960D02*
X004643Y010960D01*
X004643Y011240D02*
X004984Y011240D01*
X006314Y011350D02*
X006314Y010850D01*
X006564Y010600D01*
X008064Y010600D01*
X008314Y010850D01*
X008314Y011350D01*
X008064Y011600D01*
X006564Y011600D01*
X006314Y011850D01*
X006314Y012350D01*
X006564Y012600D01*
X008064Y012600D01*
X008314Y012850D01*
X008314Y013350D01*
X008064Y013600D01*
X006564Y013600D01*
X006314Y013850D01*
X006314Y014350D01*
X006564Y014600D01*
X008064Y014600D01*
X008314Y014350D01*
X008314Y013850D01*
X008064Y013600D01*
X008064Y012600D02*
X008314Y012350D01*
X008314Y011850D01*
X008064Y011600D01*
X008064Y010600D02*
X008314Y010350D01*
X008314Y009850D01*
X008064Y009600D01*
X006564Y009600D01*
X006314Y009850D01*
X006314Y010350D01*
X006564Y010600D01*
X006314Y011350D02*
X006564Y011600D01*
X006564Y012600D02*
X006314Y012850D01*
X006314Y013350D01*
X006564Y013600D01*
X006564Y014600D02*
X006314Y014850D01*
X006314Y015350D01*
X006564Y015600D01*
X008064Y015600D01*
X008314Y015350D01*
X008314Y014850D01*
X008064Y014600D01*
X008064Y015600D02*
X008314Y015850D01*
X008314Y016350D01*
X008064Y016600D01*
X006564Y016600D01*
X006314Y016850D01*
X006314Y017350D01*
X006564Y017600D01*
X008064Y017600D01*
X008314Y017350D01*
X008314Y016850D01*
X008064Y016600D01*
X008064Y017600D02*
X008314Y017850D01*
X008314Y018350D01*
X008064Y018600D01*
X006564Y018600D01*
X006314Y018850D01*
X006314Y019350D01*
X006564Y019600D01*
X006314Y019850D01*
X006314Y020350D01*
X006564Y020600D01*
X008064Y020600D01*
X008314Y020350D01*
X008314Y019850D01*
X008064Y019600D01*
X006564Y019600D01*
X006564Y018600D02*
X006314Y018350D01*
X006314Y017850D01*
X006564Y017600D01*
X006564Y016600D02*
X006314Y016350D01*
X006314Y015850D01*
X006564Y015600D01*
X004834Y016950D02*
X004834Y013250D01*
X004832Y013227D01*
X004827Y013204D01*
X004818Y013182D01*
X004805Y013162D01*
X004790Y013144D01*
X004772Y013129D01*
X004752Y013116D01*
X004730Y013107D01*
X004707Y013102D01*
X004684Y013100D01*
X003444Y013100D01*
X003421Y013102D01*
X003398Y013107D01*
X003376Y013116D01*
X003356Y013129D01*
X003338Y013144D01*
X003323Y013162D01*
X003310Y013182D01*
X003301Y013204D01*
X003296Y013227D01*
X003294Y013250D01*
X003294Y016950D01*
X003296Y016973D01*
X003301Y016996D01*
X003310Y017018D01*
X003323Y017038D01*
X003338Y017056D01*
X003356Y017071D01*
X003376Y017084D01*
X003398Y017093D01*
X003421Y017098D01*
X003444Y017100D01*
X004684Y017100D01*
X004707Y017098D01*
X004730Y017093D01*
X004752Y017084D01*
X004772Y017071D01*
X004790Y017056D01*
X004805Y017038D01*
X004818Y017018D01*
X004827Y016996D01*
X004832Y016973D01*
X004834Y016950D01*
X004264Y017100D02*
X004262Y017073D01*
X004257Y017046D01*
X004247Y017020D01*
X004235Y016996D01*
X004219Y016974D01*
X004201Y016954D01*
X004179Y016937D01*
X004156Y016922D01*
X004131Y016912D01*
X004105Y016904D01*
X004078Y016900D01*
X004050Y016900D01*
X004023Y016904D01*
X003997Y016912D01*
X003972Y016922D01*
X003949Y016937D01*
X003927Y016954D01*
X003909Y016974D01*
X003893Y016996D01*
X003881Y017020D01*
X003871Y017046D01*
X003866Y017073D01*
X003864Y017100D01*
X004643Y017960D02*
X004984Y017960D01*
X004984Y018240D02*
X004643Y018240D01*
X005023Y019170D02*
X005023Y021030D01*
X003604Y021030D01*
X003604Y019170D01*
X005023Y019170D01*
X008064Y019600D02*
X008314Y019350D01*
X008314Y018850D01*
X008064Y018600D01*
X016125Y015471D02*
X016338Y015471D01*
X016232Y015471D02*
X016232Y014830D01*
X016338Y014830D02*
X016125Y014830D01*
X016554Y014937D02*
X016661Y014830D01*
X016875Y014830D01*
X016981Y014937D01*
X017199Y015150D02*
X017626Y015150D01*
X017519Y014830D02*
X017519Y015471D01*
X017199Y015150D01*
X016981Y015364D02*
X016875Y015471D01*
X016661Y015471D01*
X016554Y015364D01*
X016554Y014937D01*
X020120Y022076D02*
X020120Y022416D01*
X020401Y022416D02*
X020401Y022076D01*
X021025Y024027D02*
X021366Y024027D01*
X021366Y024307D02*
X021025Y024307D01*
X023393Y024960D02*
X023734Y024960D01*
X023734Y025240D02*
X023393Y025240D01*
X025143Y025240D02*
X025484Y025240D01*
X025484Y024960D02*
X025143Y024960D01*
X023747Y023346D02*
X023407Y023346D01*
X023407Y023066D02*
X023747Y023066D01*
X023743Y026960D02*
X023403Y026960D01*
X023403Y027240D02*
X023743Y027240D01*
X025143Y027240D02*
X025484Y027240D01*
X025484Y026960D02*
X025143Y026960D01*
X025064Y028600D02*
X024564Y028600D01*
X024314Y028850D01*
X024314Y030350D01*
X024564Y030600D01*
X025064Y030600D01*
X025314Y030350D01*
X025314Y028850D01*
X025064Y028600D01*
X024314Y028850D02*
X024064Y028600D01*
X023564Y028600D01*
X023314Y028850D01*
X023314Y030350D01*
X023564Y030600D01*
X024064Y030600D01*
X024314Y030350D01*
X023314Y030350D02*
X023064Y030600D01*
X022564Y030600D01*
X022314Y030350D01*
X022314Y028850D01*
X022564Y028600D01*
X023064Y028600D01*
X023314Y028850D01*
X022314Y028850D02*
X022064Y028600D01*
X021564Y028600D01*
X021314Y028850D01*
X021314Y030350D01*
X021564Y030600D01*
X022064Y030600D01*
X022314Y030350D01*
X021314Y030350D02*
X021064Y030600D01*
X020564Y030600D01*
X020314Y030350D01*
X020314Y028850D01*
X020564Y028600D01*
X021064Y028600D01*
X021314Y028850D01*
X020314Y028850D02*
X020064Y028600D01*
X019564Y028600D01*
X019314Y028850D01*
X019314Y030350D01*
X019564Y030600D01*
X020064Y030600D01*
X020314Y030350D01*
X019314Y030350D02*
X019064Y030600D01*
X018564Y030600D01*
X018314Y030350D01*
X018314Y028850D01*
X018564Y028600D01*
X019064Y028600D01*
X019314Y028850D01*
X018314Y028850D02*
X018064Y028600D01*
X017564Y028600D01*
X017314Y028850D01*
X017314Y030350D01*
X017564Y030600D01*
X018064Y030600D01*
X018314Y030350D01*
X021014Y027240D02*
X021354Y027240D01*
X021354Y026960D02*
X021014Y026960D01*
X008064Y009600D02*
X008314Y009350D01*
X008314Y008850D01*
X008064Y008600D01*
X006564Y008600D01*
X006314Y008850D01*
X006314Y009350D01*
X006564Y009600D01*
X006564Y008600D02*
X006314Y008350D01*
X006314Y007850D01*
X006564Y007600D01*
X008064Y007600D01*
X008314Y007850D01*
X008314Y008350D01*
X008064Y008600D01*
X029225Y008911D02*
X029225Y009251D01*
X029505Y009251D02*
X029505Y008911D01*
X030824Y008911D02*
X030824Y009251D01*
X031104Y009251D02*
X031104Y008911D01*
D12*
X027813Y013454D02*
X027513Y013454D01*
X027438Y013529D01*
X027438Y013679D01*
X027513Y013754D01*
X027813Y013754D01*
X027889Y013679D01*
X027889Y013529D01*
X027813Y013454D01*
X027738Y013604D02*
X027889Y013754D01*
X027889Y013915D02*
X027889Y014215D01*
X027889Y014065D02*
X027438Y014065D01*
X027588Y013915D01*
X020032Y008146D02*
X020032Y008071D01*
X019957Y007996D01*
X019807Y007996D01*
X019732Y008071D01*
X019732Y008146D01*
X019807Y008221D01*
X019957Y008221D01*
X020032Y008146D01*
X019957Y007996D02*
X020032Y007921D01*
X020032Y007846D01*
X019957Y007770D01*
X019807Y007770D01*
X019732Y007846D01*
X019732Y007921D01*
X019807Y007996D01*
X019571Y008146D02*
X019496Y008221D01*
X019346Y008221D01*
X019271Y008146D01*
X019271Y007846D01*
X019346Y007770D01*
X019496Y007770D01*
X019571Y007846D01*
X019114Y007770D02*
X018964Y007770D01*
X019039Y007770D02*
X019039Y008221D01*
X018964Y008221D02*
X019114Y008221D01*
X025107Y001325D02*
X025258Y001325D01*
X025183Y001325D02*
X025183Y000950D01*
X025107Y000875D01*
X025032Y000875D01*
X024957Y000950D01*
X025418Y000875D02*
X025418Y001325D01*
X025643Y001325D01*
X025718Y001250D01*
X025718Y001100D01*
X025643Y001025D01*
X025418Y001025D01*
X025878Y000950D02*
X025953Y000875D01*
X026103Y000875D01*
X026178Y000950D01*
X026178Y001025D01*
X026103Y001100D01*
X026028Y001100D01*
X026103Y001100D02*
X026178Y001175D01*
X026178Y001250D01*
X026103Y001325D01*
X025953Y001325D01*
X025878Y001250D01*
X011569Y003015D02*
X011058Y003015D01*
X011058Y003685D01*
X011569Y003685D01*
X011569Y003015D01*
X011392Y002996D02*
X011392Y002878D01*
X011235Y002878D01*
X011235Y002996D01*
X011077Y003468D02*
X011550Y003468D01*
X011550Y003507D01*
X011077Y003507D01*
X011235Y003704D02*
X011235Y003822D01*
X011392Y003822D01*
X011392Y003704D01*
X003381Y017275D02*
X003231Y017275D01*
X003156Y017350D01*
X003156Y017500D01*
X003381Y017500D01*
X003456Y017425D01*
X003456Y017350D01*
X003381Y017275D01*
X003156Y017500D02*
X003306Y017650D01*
X003456Y017725D01*
X002996Y017650D02*
X002921Y017725D01*
X002771Y017725D01*
X002695Y017650D01*
X002695Y017350D01*
X002771Y017275D01*
X002921Y017275D01*
X002996Y017350D01*
X002539Y017275D02*
X002389Y017275D01*
X002464Y017275D02*
X002464Y017725D01*
X002389Y017725D02*
X002539Y017725D01*
X006588Y020775D02*
X006588Y020925D01*
X006588Y020850D02*
X006963Y020850D01*
X007039Y020775D01*
X007039Y020700D01*
X006963Y020625D01*
X006888Y021085D02*
X006888Y021311D01*
X006813Y021386D01*
X006663Y021386D01*
X006588Y021311D01*
X006588Y021085D01*
X007039Y021085D01*
X007039Y021546D02*
X006738Y021846D01*
X006663Y021846D01*
X006588Y021771D01*
X006588Y021621D01*
X006663Y021546D01*
X007039Y021546D02*
X007039Y021846D01*
X017339Y030950D02*
X017414Y030875D01*
X017489Y030875D01*
X017564Y030950D01*
X017564Y031325D01*
X017489Y031325D02*
X017639Y031325D01*
X017799Y031325D02*
X017799Y030875D01*
X017799Y031025D02*
X018024Y031025D01*
X018099Y031100D01*
X018099Y031250D01*
X018024Y031325D01*
X017799Y031325D01*
X018259Y031325D02*
X018560Y031325D01*
X018560Y031250D01*
X018259Y030950D01*
X018259Y030875D01*
X018138Y028139D02*
X017988Y028139D01*
X017913Y028064D01*
X017913Y027764D01*
X017988Y027689D01*
X018138Y027689D01*
X018213Y027764D01*
X018373Y027689D02*
X018674Y027989D01*
X018674Y028064D01*
X018599Y028139D01*
X018448Y028139D01*
X018373Y028064D01*
X018213Y028064D02*
X018138Y028139D01*
X018373Y027689D02*
X018674Y027689D01*
X018834Y027764D02*
X018834Y028064D01*
X018909Y028139D01*
X019059Y028139D01*
X019134Y028064D01*
X018834Y027764D01*
X018909Y027689D01*
X019059Y027689D01*
X019134Y027764D01*
X019134Y028064D01*
X026839Y022950D02*
X026914Y022875D01*
X026989Y022875D01*
X027064Y022950D01*
X027064Y023325D01*
X026989Y023325D02*
X027139Y023325D01*
X027299Y023325D02*
X027299Y022875D01*
X027299Y023025D02*
X027524Y023025D01*
X027599Y023100D01*
X027599Y023250D01*
X027524Y023325D01*
X027299Y023325D01*
X027759Y023175D02*
X027909Y023325D01*
X027909Y022875D01*
X027759Y022875D02*
X028060Y022875D01*
D13*
X024814Y029100D03*
X024814Y030100D03*
X023814Y030100D03*
X023814Y029100D03*
X022814Y029100D03*
X022814Y030100D03*
X021814Y030100D03*
X021814Y029100D03*
X020814Y029100D03*
X020814Y030100D03*
X019814Y030100D03*
X019814Y029100D03*
X018814Y029100D03*
X018814Y030100D03*
X017814Y030100D03*
X017814Y029100D03*
X007814Y020100D03*
X007814Y019100D03*
X007814Y018100D03*
X006814Y018100D03*
X006814Y019100D03*
X006814Y020100D03*
X006814Y017100D03*
X007814Y017100D03*
X007814Y016100D03*
X007814Y015100D03*
X007814Y014100D03*
X007814Y013100D03*
X007814Y012100D03*
X007814Y011100D03*
X006814Y011100D03*
X006814Y012100D03*
X006814Y013100D03*
X006814Y014100D03*
X006814Y015100D03*
X006814Y016100D03*
X006814Y010100D03*
X007814Y010100D03*
X007814Y009100D03*
X007814Y008100D03*
X006814Y008100D03*
X006814Y009100D03*
X019814Y003100D03*
X020814Y003100D03*
X021814Y003100D03*
X022814Y003100D03*
X023814Y003100D03*
X024814Y003100D03*
X025814Y003100D03*
X025814Y002100D03*
X024814Y002100D03*
X023814Y002100D03*
X022814Y002100D03*
X021814Y002100D03*
X020814Y002100D03*
X019814Y002100D03*
D14*
X020064Y006100D03*
X019564Y006100D03*
X021064Y006100D03*
X021564Y006100D03*
X022564Y006100D03*
X023064Y006100D03*
X023064Y007100D03*
X022564Y007100D03*
X024070Y006100D03*
X024570Y006100D03*
X025540Y005100D03*
X026040Y005100D03*
X010240Y003560D03*
X009740Y003560D03*
X008814Y003560D03*
X008314Y003560D03*
X009564Y006100D03*
X010064Y006100D03*
X010064Y007100D03*
X009564Y007100D03*
X009564Y008100D03*
X010064Y008100D03*
X010064Y009100D03*
X009564Y009100D03*
X009564Y010100D03*
X010064Y010100D03*
X010064Y011100D03*
X009564Y011100D03*
X009564Y012100D03*
X010064Y012100D03*
X010064Y013100D03*
X009564Y013100D03*
X009564Y014100D03*
X010064Y014100D03*
X010064Y015100D03*
X009564Y015100D03*
X009564Y016100D03*
X010064Y016100D03*
X010064Y017100D03*
X009564Y017100D03*
X009564Y018100D03*
X010064Y018100D03*
X010064Y019100D03*
X009564Y019100D03*
X005064Y018100D03*
X004564Y018100D03*
X004564Y011100D03*
X005064Y011100D03*
X005064Y010100D03*
X004564Y010100D03*
X004564Y009100D03*
X005064Y009100D03*
X005064Y008100D03*
X004564Y008100D03*
X004564Y007100D03*
X005064Y007100D03*
X005064Y006100D03*
X004564Y006100D03*
X004564Y005100D03*
X005064Y005100D03*
X005064Y004100D03*
X004564Y004100D03*
X023327Y023206D03*
X023827Y023206D03*
X023814Y025100D03*
X023314Y025100D03*
X025064Y025100D03*
X025564Y025100D03*
X025564Y027100D03*
X025064Y027100D03*
X023823Y027100D03*
X023323Y027100D03*
X021434Y027100D03*
X020934Y027100D03*
X020945Y024167D03*
X021445Y024167D03*
D15*
X021415Y025098D03*
X020955Y025098D03*
X020955Y026098D03*
X021415Y026098D03*
X023345Y026098D03*
X023805Y026098D03*
X025085Y026098D03*
X025545Y026098D03*
X023805Y024098D03*
X023345Y024098D03*
X021363Y020107D03*
X020903Y020107D03*
X023337Y018011D03*
X023797Y018011D03*
X023045Y012598D03*
X022585Y012598D03*
X021398Y008082D03*
X020938Y008082D03*
X020045Y007098D03*
X019585Y007098D03*
X019585Y005098D03*
X020045Y005098D03*
X021082Y005102D03*
X021542Y005102D03*
X022582Y005102D03*
X023042Y005102D03*
X024082Y005102D03*
X024542Y005102D03*
X026713Y008102D03*
X027173Y008102D03*
X017792Y012352D03*
X017332Y012352D03*
X016910Y018601D03*
X016450Y018601D03*
X010045Y020098D03*
X009585Y020098D03*
X008377Y024514D03*
X007917Y024514D03*
X003545Y010098D03*
X003085Y010098D03*
X003085Y008098D03*
X003545Y008098D03*
X003545Y006098D03*
X003085Y006098D03*
D16*
X008551Y001924D03*
X008551Y001464D03*
X011831Y006368D03*
X011831Y006828D03*
X012816Y006828D03*
X012816Y006368D03*
X013316Y008372D03*
X013316Y008832D03*
X013316Y009872D03*
X013316Y010332D03*
X013316Y011372D03*
X013316Y011832D03*
X013316Y012872D03*
X013316Y013332D03*
X013316Y014372D03*
X013316Y014832D03*
X013316Y015872D03*
X013316Y016332D03*
X013316Y017372D03*
X013316Y017832D03*
X013316Y018872D03*
X013316Y019332D03*
X018062Y018332D03*
X018062Y017872D03*
X021467Y018797D03*
X021467Y019257D03*
X019028Y022014D03*
X019028Y022474D03*
X019023Y023344D03*
X019023Y023804D03*
X027026Y016458D03*
X027026Y015998D03*
X028020Y014612D03*
X028020Y014152D03*
X015312Y004828D03*
X015312Y004368D03*
X002419Y019800D03*
X002419Y020260D03*
D17*
X003867Y020810D02*
X003869Y020825D01*
X003875Y020838D01*
X003884Y020850D01*
X003895Y020859D01*
X003909Y020865D01*
X003924Y020867D01*
X003939Y020865D01*
X003952Y020859D01*
X003964Y020850D01*
X003973Y020839D01*
X003979Y020825D01*
X003981Y020810D01*
X003979Y020795D01*
X003973Y020782D01*
X003964Y020770D01*
X003953Y020761D01*
X003939Y020755D01*
X003924Y020753D01*
X003909Y020755D01*
X003896Y020761D01*
X003884Y020770D01*
X003875Y020781D01*
X003869Y020795D01*
X003867Y020810D01*
X003698Y023205D02*
X003698Y023993D01*
X004101Y023599D01*
X003698Y023205D01*
X008308Y026466D02*
X008308Y030421D01*
X012319Y030421D01*
X012319Y026466D01*
X008308Y026466D01*
X009814Y023427D02*
X009420Y023024D01*
X010207Y023024D01*
X009814Y023427D01*
X012761Y022904D02*
X013746Y022904D01*
X012761Y022904D02*
X012761Y027629D01*
X013746Y027629D01*
X016502Y027629D02*
X017486Y027629D01*
X017486Y022904D01*
X016502Y022904D01*
X018581Y016990D02*
X022046Y016990D01*
X022203Y016832D01*
X022203Y013368D01*
X022046Y013210D01*
X018581Y013210D01*
X018424Y013368D01*
X018424Y016832D01*
X018581Y016990D01*
X022530Y010385D02*
X022567Y010385D01*
X022530Y010385D02*
X022530Y009746D01*
X022567Y009746D01*
X023613Y009746D02*
X023650Y009746D01*
X023650Y010385D01*
X023613Y010385D01*
X029172Y010889D02*
X030455Y010889D01*
X030455Y013309D01*
X029172Y013309D01*
X029172Y010889D01*
X018056Y006089D02*
X018056Y004199D01*
X016756Y004199D01*
X016756Y006089D01*
X018056Y006089D01*
X016756Y006089D02*
X016560Y006089D01*
X016560Y004199D01*
X016756Y004199D01*
X004714Y012126D02*
X004064Y012126D01*
X004047Y012128D01*
X004030Y012132D01*
X004014Y012139D01*
X004000Y012149D01*
X003987Y012162D01*
X003977Y012176D01*
X003970Y012192D01*
X003966Y012209D01*
X003964Y012226D01*
X003964Y012826D02*
X003966Y012843D01*
X003970Y012860D01*
X003977Y012876D01*
X003987Y012890D01*
X004000Y012903D01*
X004014Y012913D01*
X004030Y012920D01*
X004047Y012924D01*
X004064Y012926D01*
X004714Y012926D01*
X004731Y012924D01*
X004748Y012920D01*
X004764Y012913D01*
X004778Y012903D01*
X004791Y012890D01*
X004801Y012876D01*
X004808Y012860D01*
X004812Y012843D01*
X004814Y012826D01*
X004814Y012226D02*
X004812Y012209D01*
X004808Y012192D01*
X004801Y012176D01*
X004791Y012162D01*
X004778Y012149D01*
X004764Y012139D01*
X004748Y012132D01*
X004731Y012128D01*
X004714Y012126D01*
X008304Y030461D02*
X012324Y030461D01*
X012324Y030623D01*
X011644Y030803D01*
X008984Y030803D01*
X011643Y030803D01*
X012323Y030623D01*
X012323Y030461D01*
X008304Y030461D01*
X008304Y030623D01*
X008984Y030803D01*
X008304Y030623D01*
X008304Y030461D01*
X008304Y030480D02*
X012324Y030480D01*
X012324Y030558D02*
X008304Y030558D01*
X008355Y030637D02*
X012272Y030637D01*
X011975Y030715D02*
X008652Y030715D01*
X008948Y030794D02*
X011679Y030794D01*
X026496Y026717D02*
X026496Y026520D01*
X026496Y025221D01*
X029885Y025221D01*
X029885Y026520D01*
X026496Y026520D01*
X026496Y026717D02*
X029885Y026717D01*
X029885Y026520D01*
D18*
X029691Y026973D03*
X029191Y026973D03*
X028691Y026973D03*
X028191Y026973D03*
X027691Y026973D03*
X027191Y026973D03*
X026691Y026973D03*
X026691Y024965D03*
X027191Y024965D03*
X027691Y024965D03*
X028191Y024965D03*
X028691Y024965D03*
X029191Y024965D03*
X029691Y024965D03*
D19*
X023579Y011301D02*
X023456Y011301D01*
X023394Y011239D01*
X023394Y011177D01*
X023456Y011116D01*
X023641Y011116D01*
X023641Y011239D02*
X023579Y011301D01*
X023641Y011239D02*
X023641Y010992D01*
X023579Y010931D01*
X023456Y010931D01*
X023394Y010992D01*
X023273Y010992D02*
X023211Y010931D01*
X023087Y010931D01*
X023026Y010992D01*
X023026Y011239D01*
X023087Y011301D01*
X023211Y011301D01*
X023273Y011239D01*
X022904Y011301D02*
X022780Y011301D01*
X022842Y011301D02*
X022842Y010931D01*
X022780Y010931D02*
X022904Y010931D01*
X010944Y003096D02*
X010944Y002999D01*
X010896Y002951D01*
X010896Y002850D02*
X010702Y002850D01*
X010654Y002801D01*
X010654Y002656D01*
X010944Y002656D01*
X010944Y002801D01*
X010896Y002850D01*
X010702Y002951D02*
X010654Y002999D01*
X010654Y003096D01*
X010702Y003144D01*
X010751Y003144D01*
X010799Y003096D01*
X010847Y003144D01*
X010896Y003144D01*
X010944Y003096D01*
X010799Y003096D02*
X010799Y003048D01*
X003930Y026925D02*
X003992Y026986D01*
X003992Y027110D01*
X003930Y027172D01*
X003930Y027293D02*
X003868Y027293D01*
X003807Y027355D01*
X003807Y027478D01*
X003868Y027540D01*
X003930Y027540D01*
X003992Y027478D01*
X003992Y027355D01*
X003930Y027293D01*
X003807Y027355D02*
X003745Y027293D01*
X003683Y027293D01*
X003622Y027355D01*
X003622Y027478D01*
X003683Y027540D01*
X003745Y027540D01*
X003807Y027478D01*
X003683Y027172D02*
X003622Y027110D01*
X003622Y026986D01*
X003683Y026925D01*
X003930Y026925D01*
X014402Y028381D02*
X014649Y028381D01*
X014770Y028381D02*
X015017Y028628D01*
X015017Y028690D01*
X014955Y028752D01*
X014832Y028752D01*
X014770Y028690D01*
X014770Y028381D02*
X015017Y028381D01*
X014402Y028381D02*
X014402Y028752D01*
D20*
X009814Y024095D03*
X009814Y022105D03*
D21*
X009814Y023523D03*
D22*
X012314Y019350D03*
X012314Y018850D03*
X012314Y017850D03*
X012314Y017350D03*
X012314Y016350D03*
X012314Y015850D03*
X012314Y014850D03*
X012314Y014350D03*
X012314Y013350D03*
X012314Y012850D03*
X012314Y011850D03*
X012314Y011350D03*
X012314Y010350D03*
X012314Y009850D03*
X012314Y008850D03*
X012314Y008350D03*
X011840Y005486D03*
X011840Y004986D03*
X025814Y015980D03*
X025814Y016480D03*
X020260Y021996D03*
X020260Y022496D03*
X030814Y025596D03*
X030814Y026096D03*
X030964Y009331D03*
X030964Y008831D03*
X029365Y008831D03*
X029365Y009331D03*
D23*
X005244Y019350D03*
X005244Y019850D03*
X005244Y020350D03*
X005244Y020850D03*
X003384Y020850D03*
X003384Y020350D03*
X003384Y019850D03*
X003384Y019350D03*
D24*
X021777Y013525D02*
X021779Y013545D01*
X021784Y013565D01*
X021794Y013583D01*
X021806Y013600D01*
X021821Y013614D01*
X021839Y013624D01*
X021858Y013632D01*
X021878Y013636D01*
X021898Y013636D01*
X021918Y013632D01*
X021937Y013624D01*
X021955Y013614D01*
X021970Y013600D01*
X021982Y013583D01*
X021992Y013565D01*
X021997Y013545D01*
X021999Y013525D01*
X021997Y013505D01*
X021992Y013485D01*
X021982Y013467D01*
X021970Y013450D01*
X021955Y013436D01*
X021937Y013426D01*
X021918Y013418D01*
X021898Y013414D01*
X021878Y013414D01*
X021858Y013418D01*
X021839Y013426D01*
X021821Y013436D01*
X021806Y013450D01*
X021794Y013467D01*
X021784Y013485D01*
X021779Y013505D01*
X021777Y013525D01*
D25*
X022440Y013624D03*
X022440Y013820D03*
X022440Y014017D03*
X022440Y014214D03*
X022440Y014411D03*
X022440Y014608D03*
X022440Y014805D03*
X022440Y015002D03*
X022440Y015198D03*
X022440Y015395D03*
X022440Y015592D03*
X022440Y015789D03*
X022440Y015986D03*
X022440Y016183D03*
X022440Y016380D03*
X022440Y016576D03*
X018188Y016576D03*
X018188Y016380D03*
X018188Y016183D03*
X018188Y015986D03*
X018188Y015789D03*
X018188Y015592D03*
X018188Y015395D03*
X018188Y015198D03*
X018188Y015002D03*
X018188Y014805D03*
X018188Y014608D03*
X018188Y014411D03*
X018188Y014214D03*
X018188Y014017D03*
X018188Y013820D03*
X018188Y013624D03*
D26*
X018837Y012974D03*
X019034Y012974D03*
X019231Y012974D03*
X019428Y012974D03*
X019625Y012974D03*
X019821Y012974D03*
X020018Y012974D03*
X020215Y012974D03*
X020412Y012974D03*
X020609Y012974D03*
X020806Y012974D03*
X021003Y012974D03*
X021199Y012974D03*
X021396Y012974D03*
X021593Y012974D03*
X021790Y012974D03*
X021790Y017226D03*
X021593Y017226D03*
X021396Y017226D03*
X021199Y017226D03*
X021003Y017226D03*
X020806Y017226D03*
X020609Y017226D03*
X020412Y017226D03*
X020215Y017226D03*
X020018Y017226D03*
X019821Y017226D03*
X019625Y017226D03*
X019428Y017226D03*
X019231Y017226D03*
X019034Y017226D03*
X018837Y017226D03*
D27*
X017814Y007100D03*
D28*
X017814Y009100D03*
X018714Y009100D03*
X016914Y009100D03*
D29*
X011654Y025425D03*
X010984Y025425D03*
X010314Y025425D03*
X009644Y025425D03*
X008974Y025425D03*
D30*
X008974Y026170D03*
X009644Y026170D03*
X010314Y026170D03*
X010984Y026170D03*
X011654Y026170D03*
D31*
X017252Y011350D03*
X017822Y011350D03*
X007127Y003115D03*
X006557Y003115D03*
X005336Y003100D03*
X004766Y003100D03*
D32*
X003434Y013100D02*
X003434Y017100D01*
X025514Y013450D02*
X025514Y010750D01*
X025814Y010750D02*
X025814Y013450D01*
X025815Y013488D01*
X025820Y013525D01*
X025827Y013562D01*
X025836Y013598D01*
X025849Y013634D01*
X025864Y013668D01*
X025514Y013450D02*
X025516Y013506D01*
X025522Y013561D01*
X025531Y013616D01*
X025545Y013670D01*
X025562Y013723D01*
X025583Y013774D01*
X025607Y013824D01*
X025635Y013872D01*
X025666Y013919D01*
X025700Y013962D01*
X025737Y014004D01*
X025777Y014043D01*
X025819Y014079D01*
X025864Y014111D01*
X026764Y013668D02*
X026779Y013634D01*
X026792Y013598D01*
X026801Y013562D01*
X026808Y013525D01*
X026813Y013488D01*
X026814Y013450D01*
X026814Y010750D01*
X027114Y010750D02*
X027114Y013450D01*
X026764Y014111D02*
X026716Y014141D01*
X026667Y014168D01*
X026616Y014191D01*
X026563Y014210D01*
X026509Y014226D01*
X026454Y014238D01*
X026398Y014246D01*
X026342Y014250D01*
X026286Y014250D01*
X026230Y014246D01*
X026174Y014238D01*
X026119Y014226D01*
X026065Y014210D01*
X026012Y014191D01*
X025961Y014168D01*
X025912Y014141D01*
X025864Y014111D01*
X025864Y013668D02*
X025884Y013706D01*
X025908Y013742D01*
X025935Y013776D01*
X025964Y013807D01*
X025996Y013836D01*
X026030Y013862D01*
X026067Y013885D01*
X026105Y013904D01*
X026145Y013921D01*
X026186Y013933D01*
X026228Y013943D01*
X026271Y013948D01*
X026314Y013950D01*
X026357Y013948D01*
X026400Y013943D01*
X026442Y013933D01*
X026483Y013921D01*
X026523Y013904D01*
X026561Y013885D01*
X026598Y013862D01*
X026632Y013836D01*
X026664Y013807D01*
X026693Y013776D01*
X026720Y013742D01*
X026744Y013706D01*
X026764Y013668D01*
X027114Y013450D02*
X027112Y013506D01*
X027106Y013561D01*
X027097Y013616D01*
X027083Y013670D01*
X027066Y013723D01*
X027045Y013774D01*
X027021Y013824D01*
X026993Y013872D01*
X026962Y013919D01*
X026928Y013963D01*
X026891Y014004D01*
X026851Y014043D01*
X026809Y014079D01*
X026764Y014111D01*
X026314Y012500D02*
X026314Y012350D01*
X026314Y011850D02*
X026314Y011700D01*
X025514Y010750D02*
X025516Y010694D01*
X025522Y010639D01*
X025531Y010584D01*
X025545Y010530D01*
X025562Y010477D01*
X025583Y010426D01*
X025607Y010376D01*
X025635Y010328D01*
X025666Y010281D01*
X025700Y010237D01*
X025737Y010196D01*
X025777Y010157D01*
X025819Y010121D01*
X025864Y010089D01*
X026764Y010089D02*
X026809Y010121D01*
X026851Y010157D01*
X026891Y010196D01*
X026928Y010238D01*
X026962Y010281D01*
X026993Y010328D01*
X027021Y010376D01*
X027045Y010426D01*
X027066Y010477D01*
X027083Y010530D01*
X027097Y010584D01*
X027106Y010639D01*
X027112Y010694D01*
X027114Y010750D01*
X026764Y010089D02*
X026716Y010059D01*
X026667Y010032D01*
X026616Y010009D01*
X026563Y009990D01*
X026509Y009974D01*
X026454Y009962D01*
X026398Y009954D01*
X026342Y009950D01*
X026286Y009950D01*
X026230Y009954D01*
X026174Y009962D01*
X026119Y009974D01*
X026065Y009990D01*
X026012Y010009D01*
X025961Y010032D01*
X025912Y010059D01*
X025864Y010089D01*
X025864Y010532D02*
X025849Y010566D01*
X025836Y010602D01*
X025827Y010638D01*
X025820Y010675D01*
X025815Y010712D01*
X025814Y010750D01*
X025864Y010532D02*
X025884Y010494D01*
X025908Y010458D01*
X025935Y010424D01*
X025964Y010393D01*
X025996Y010364D01*
X026030Y010338D01*
X026067Y010315D01*
X026105Y010296D01*
X026145Y010279D01*
X026186Y010267D01*
X026228Y010257D01*
X026271Y010252D01*
X026314Y010250D01*
X026357Y010252D01*
X026400Y010257D01*
X026442Y010267D01*
X026483Y010279D01*
X026523Y010296D01*
X026561Y010315D01*
X026598Y010338D01*
X026632Y010364D01*
X026664Y010393D01*
X026693Y010424D01*
X026720Y010458D01*
X026744Y010494D01*
X026764Y010532D01*
X026779Y010566D01*
X026792Y010602D01*
X026801Y010638D01*
X026808Y010675D01*
X026813Y010712D01*
X026814Y010750D01*
D33*
X005059Y013350D03*
X005059Y013850D03*
X005059Y014350D03*
X005059Y014850D03*
X005059Y015350D03*
X005059Y015850D03*
X005059Y016350D03*
X005059Y016850D03*
X003069Y016850D03*
X003069Y016350D03*
X003079Y015850D03*
X003069Y015350D03*
X003069Y014850D03*
X003069Y014350D03*
X003069Y013850D03*
X003069Y013350D03*
D34*
X028933Y013100D03*
X028933Y012600D03*
X028933Y012100D03*
X028933Y011600D03*
X028933Y011100D03*
X030694Y011100D03*
X030694Y011600D03*
X030694Y012100D03*
X030694Y012600D03*
X030694Y013100D03*
D35*
X023348Y019024D03*
X023348Y019804D03*
D36*
X028814Y020100D02*
X031064Y020100D01*
X031064Y019100D02*
X028814Y019100D01*
X028814Y018100D02*
X031064Y018100D01*
X031064Y021100D02*
X028814Y021100D01*
X028814Y022100D02*
X031064Y022100D01*
D37*
X028664Y022100D03*
X028664Y021100D03*
X028664Y020100D03*
X028664Y019100D03*
X028664Y018100D03*
D38*
X027364Y018100D03*
X027364Y019100D03*
X027364Y020100D03*
X027364Y021100D03*
X027364Y022100D03*
D39*
X026314Y022100D03*
X026314Y021100D03*
X026314Y020100D03*
X026314Y019100D03*
X026314Y018100D03*
D40*
X026814Y018100D03*
X026814Y019100D03*
X026814Y020100D03*
X026814Y021100D03*
X026814Y022100D03*
D41*
X029365Y007541D02*
X029434Y007472D01*
X029375Y007413D01*
X029306Y007482D01*
X029365Y007541D01*
X030905Y007482D02*
X030964Y007541D01*
X031033Y007472D01*
X030974Y007413D01*
X030905Y007482D01*
D42*
X030807Y007374D03*
X029207Y007374D03*
D43*
X010114Y002276D03*
X009740Y002276D03*
X009366Y002276D03*
X009366Y001351D03*
X010114Y001351D03*
D44*
X011240Y001409D03*
X011240Y002219D03*
D45*
X004769Y023599D03*
X002779Y023599D03*
D46*
X004197Y023599D03*
D47*
X016304Y005894D03*
X016304Y005394D03*
X016304Y004894D03*
X016304Y004394D03*
X018312Y004394D03*
X018312Y004894D03*
X018312Y005394D03*
X018312Y005894D03*
D48*
X023314Y020765D03*
X024094Y020765D03*
D49*
X024935Y021717D03*
X024935Y022287D03*
D50*
X023446Y010216D02*
X023448Y010223D01*
X023453Y010228D01*
X023460Y010230D01*
X023467Y010228D01*
X023472Y010223D01*
X023474Y010216D01*
X023472Y010209D01*
X023467Y010204D01*
X023460Y010202D01*
X023453Y010204D01*
X023448Y010209D01*
X023446Y010216D01*
D51*
X015453Y028975D02*
X015623Y029145D01*
X015421Y029392D01*
X015472Y029492D01*
X015506Y029598D01*
X015824Y029631D01*
X015824Y029871D01*
X015506Y029903D01*
X015472Y030010D01*
X015421Y030109D01*
X015623Y030357D01*
X015453Y030526D01*
X015206Y030324D01*
X015106Y030376D01*
X014999Y030410D01*
X014967Y030728D01*
X014727Y030728D01*
X014695Y030410D01*
X014588Y030376D01*
X014488Y030324D01*
X014241Y030526D01*
X014071Y030357D01*
X014273Y030109D01*
X014222Y030010D01*
X014188Y029903D01*
X013870Y029871D01*
X013870Y029631D01*
X014188Y029598D01*
X014222Y029492D01*
X014273Y029392D01*
X014071Y029145D01*
X014241Y028975D01*
X014488Y029177D01*
X014588Y029125D01*
X014729Y029466D01*
X014676Y029495D01*
X014630Y029533D01*
X014591Y029580D01*
X014563Y029633D01*
X014545Y029691D01*
X014539Y029751D01*
X014546Y029813D01*
X014565Y029874D01*
X014596Y029929D01*
X014638Y029976D01*
X014688Y030014D01*
X014745Y030041D01*
X014807Y030056D01*
X014870Y030057D01*
X014932Y030046D01*
X014991Y030023D01*
X015043Y029987D01*
X015087Y029942D01*
X015122Y029889D01*
X015144Y029830D01*
X015154Y029768D01*
X015151Y029705D01*
X015135Y029644D01*
X015107Y029587D01*
X015069Y029537D01*
X015020Y029496D01*
X014965Y029466D01*
X015106Y029125D01*
X015206Y029177D01*
X015453Y028975D01*
X015471Y028993D02*
X015431Y028993D01*
X015361Y029050D02*
X015528Y029050D01*
X015586Y029108D02*
X015290Y029108D01*
X015219Y029165D02*
X015606Y029165D01*
X015559Y029223D02*
X015066Y029223D01*
X015089Y029165D02*
X015184Y029165D01*
X015042Y029281D02*
X015512Y029281D01*
X015465Y029338D02*
X015018Y029338D01*
X014994Y029396D02*
X015423Y029396D01*
X015452Y029453D02*
X014970Y029453D01*
X015037Y029511D02*
X015478Y029511D01*
X015497Y029568D02*
X015093Y029568D01*
X015127Y029626D02*
X015777Y029626D01*
X015824Y029683D02*
X015146Y029683D01*
X015153Y029741D02*
X015824Y029741D01*
X015824Y029799D02*
X015149Y029799D01*
X015134Y029856D02*
X015824Y029856D01*
X015503Y029914D02*
X015106Y029914D01*
X015059Y029971D02*
X015484Y029971D01*
X015462Y030029D02*
X014975Y030029D01*
X014720Y030029D02*
X014232Y030029D01*
X014210Y029971D02*
X014634Y029971D01*
X014588Y029914D02*
X014191Y029914D01*
X014261Y030086D02*
X015433Y030086D01*
X015449Y030144D02*
X014245Y030144D01*
X014198Y030201D02*
X015496Y030201D01*
X015543Y030259D02*
X014151Y030259D01*
X014104Y030317D02*
X015590Y030317D01*
X015605Y030374D02*
X015267Y030374D01*
X015337Y030432D02*
X015548Y030432D01*
X015490Y030489D02*
X015408Y030489D01*
X015109Y030374D02*
X014585Y030374D01*
X014697Y030432D02*
X014997Y030432D01*
X014991Y030489D02*
X014703Y030489D01*
X014709Y030547D02*
X014985Y030547D01*
X014979Y030604D02*
X014715Y030604D01*
X014720Y030662D02*
X014974Y030662D01*
X014968Y030719D02*
X014726Y030719D01*
X014428Y030374D02*
X014089Y030374D01*
X014147Y030432D02*
X014357Y030432D01*
X014286Y030489D02*
X014204Y030489D01*
X013870Y029856D02*
X014560Y029856D01*
X014544Y029799D02*
X013870Y029799D01*
X013870Y029741D02*
X014540Y029741D01*
X014547Y029683D02*
X013870Y029683D01*
X013917Y029626D02*
X014567Y029626D01*
X014601Y029568D02*
X014197Y029568D01*
X014216Y029511D02*
X014657Y029511D01*
X014724Y029453D02*
X014242Y029453D01*
X014271Y029396D02*
X014700Y029396D01*
X014676Y029338D02*
X014229Y029338D01*
X014182Y029281D02*
X014652Y029281D01*
X014628Y029223D02*
X014135Y029223D01*
X014088Y029165D02*
X014475Y029165D01*
X014510Y029165D02*
X014605Y029165D01*
X014404Y029108D02*
X014108Y029108D01*
X014166Y029050D02*
X014333Y029050D01*
X014263Y028993D02*
X014223Y028993D01*
D52*
X004672Y012021D02*
X004672Y011871D01*
X004622Y011871D02*
X004722Y011871D01*
X004622Y011971D02*
X004672Y012021D01*
X004575Y012021D02*
X004525Y012021D01*
X004550Y012021D02*
X004550Y011896D01*
X004525Y011871D01*
X004500Y011871D01*
X004475Y011896D01*
X004427Y011896D02*
X004402Y011871D01*
X004352Y011871D01*
X004327Y011896D01*
X004352Y011946D02*
X004402Y011946D01*
X004427Y011921D01*
X004427Y011896D01*
X004352Y011946D02*
X004327Y011971D01*
X004327Y011996D01*
X004352Y012021D01*
X004402Y012021D01*
X004427Y011996D01*
M02*
