G75*
G70*
%OFA0B0*%
%FSLAX24Y24*%
%IPPOS*%
%LPD*%
%AMOC8*
5,1,8,0,0,1.08239X$1,22.5*
%
%ADD10OC8,0.0700*%
%ADD11OC8,0.0396*%
%ADD12C,0.0320*%
%ADD13C,0.0120*%
%ADD14C,0.0160*%
%ADD15C,0.0100*%
D10*
X006814Y008100D03*
X007814Y008100D03*
X007814Y009100D03*
X007814Y010100D03*
X006814Y010100D03*
X006814Y009100D03*
X006814Y011100D03*
X007814Y011100D03*
X007814Y012100D03*
X007814Y013100D03*
X007814Y014100D03*
X007814Y015100D03*
X007814Y016100D03*
X007814Y017100D03*
X006814Y017100D03*
X006814Y016100D03*
X006814Y015100D03*
X006814Y014100D03*
X006814Y013100D03*
X006814Y012100D03*
X006814Y018100D03*
X007814Y018100D03*
X007814Y019100D03*
X007814Y020100D03*
X006814Y020100D03*
X006814Y019100D03*
X017814Y029100D03*
X018814Y029100D03*
X019814Y029100D03*
X020814Y029100D03*
X021814Y029100D03*
X022814Y029100D03*
X023814Y029100D03*
X024814Y029100D03*
X024814Y030100D03*
X023814Y030100D03*
X022814Y030100D03*
X021814Y030100D03*
X020814Y030100D03*
X019814Y030100D03*
X018814Y030100D03*
X017814Y030100D03*
X025814Y022100D03*
X026814Y022100D03*
X026814Y021100D03*
X026814Y020100D03*
X026814Y019100D03*
X026814Y018100D03*
X025814Y018100D03*
X025814Y019100D03*
X025814Y020100D03*
X025814Y021100D03*
X025814Y003100D03*
X025814Y002100D03*
X024814Y002100D03*
X024814Y003100D03*
X023814Y003100D03*
X023814Y002100D03*
X022814Y002100D03*
X022814Y003100D03*
X021814Y003100D03*
X021814Y002100D03*
X020814Y002100D03*
X020814Y003100D03*
X019814Y003100D03*
X019814Y002100D03*
D11*
X020152Y003998D03*
X021985Y007113D03*
X021985Y008155D03*
X021013Y009324D03*
X020029Y008538D03*
X019503Y008538D03*
X019503Y010234D03*
X019762Y011543D03*
X020282Y011543D03*
X019243Y011543D03*
X019243Y012063D03*
X017814Y013100D03*
X018983Y013873D03*
X018983Y014391D03*
X019529Y014618D03*
X020022Y013742D03*
X020412Y014131D03*
X021122Y015100D03*
X021491Y015476D03*
X020802Y016730D03*
X020282Y016730D03*
X019768Y016730D03*
X018794Y016517D03*
X018825Y015848D03*
X017495Y016163D03*
X016692Y016463D03*
X016692Y017324D03*
X016191Y017723D03*
X016569Y018063D03*
X016200Y019416D03*
X016064Y020850D03*
X016064Y021850D03*
X017684Y019458D03*
X018463Y019458D03*
X019153Y020660D03*
X019814Y020350D03*
X019814Y019850D03*
X021601Y018120D03*
X020802Y018029D03*
X022605Y017112D03*
X023865Y015344D03*
X024495Y015344D03*
X025066Y014987D03*
X023530Y013765D03*
X022479Y013202D03*
X021860Y013900D03*
X021564Y011600D03*
X022101Y009994D03*
X022598Y010066D03*
X023865Y011537D03*
X024644Y010033D03*
X024317Y009058D03*
X023705Y007113D03*
X026719Y004902D03*
X027814Y003100D03*
X030936Y006076D03*
X030226Y009450D03*
X027817Y010602D03*
X027817Y011663D03*
X030814Y015100D03*
X031314Y017100D03*
X031676Y020509D03*
X031676Y025435D03*
X031542Y026179D03*
X028644Y026179D03*
X027636Y025801D03*
X026629Y026179D03*
X027947Y028033D03*
X024745Y024547D03*
X025551Y023107D03*
X023231Y022486D03*
X022062Y023486D03*
X020967Y022647D03*
X020260Y023599D03*
X019064Y024509D03*
X022062Y025045D03*
X024197Y019785D03*
X024847Y018282D03*
X024495Y017112D03*
X025770Y017084D03*
X018853Y018029D03*
X015725Y014261D03*
X014975Y013092D03*
X014585Y012572D03*
X013916Y011943D03*
X014066Y011143D03*
X015075Y009858D03*
X015735Y009851D03*
X016254Y009208D03*
X016980Y008527D03*
X015093Y007605D03*
X014900Y006624D03*
X010682Y005946D03*
X010636Y007155D03*
X010664Y009081D03*
X013978Y013482D03*
X013855Y014987D03*
X013855Y016463D03*
X014101Y017324D03*
X014075Y017846D03*
X014185Y018672D03*
X013978Y019416D03*
X010787Y019047D03*
X006604Y021754D03*
X003965Y019880D03*
X004020Y019100D03*
X004560Y019100D03*
X003814Y018100D03*
X002814Y018600D03*
X003528Y016832D03*
X003528Y016217D03*
X003528Y015750D03*
X003528Y015025D03*
X003528Y014295D03*
X003814Y010850D03*
X003581Y008801D03*
X003814Y007100D03*
X003814Y005100D03*
X003077Y005147D03*
X007815Y001326D03*
X002175Y022246D03*
X010910Y024628D03*
D12*
X016064Y021850D02*
X016064Y020850D01*
X002814Y018600D02*
X002175Y019239D01*
X002175Y022246D01*
D13*
X001814Y029280D02*
X001814Y002420D01*
X002023Y002630D01*
X002317Y002799D01*
X002644Y002887D01*
X002983Y002887D01*
X003310Y002799D01*
X003604Y002630D01*
X003843Y002390D01*
X004013Y002097D01*
X004100Y001769D01*
X004100Y001431D01*
X004013Y001103D01*
X003843Y000810D01*
X003633Y000600D01*
X030494Y000600D01*
X030284Y000810D01*
X030114Y001103D01*
X030027Y001431D01*
X030027Y001769D01*
X030114Y002097D01*
X030284Y002390D01*
X030523Y002630D01*
X030817Y002799D01*
X031144Y002887D01*
X031483Y002887D01*
X031810Y002799D01*
X032104Y002630D01*
X032224Y002510D01*
X032224Y003770D01*
X031984Y003530D01*
X031884Y003430D01*
X028384Y003430D01*
X028122Y003168D01*
X028122Y002972D01*
X027941Y002792D01*
X027686Y002792D01*
X027505Y002972D01*
X027505Y003228D01*
X027686Y003408D01*
X027881Y003408D01*
X028243Y003770D01*
X031743Y003770D01*
X031970Y003997D01*
X031970Y004406D01*
X031602Y004037D01*
X031502Y003938D01*
X027892Y003938D01*
X027484Y003530D01*
X027484Y003030D01*
X026984Y002530D01*
X026884Y002430D01*
X026134Y002430D01*
X026274Y002291D01*
X026274Y001909D01*
X026004Y001640D01*
X025623Y001640D01*
X025354Y001909D01*
X025354Y002291D01*
X025493Y002430D01*
X025134Y002430D01*
X025274Y002291D01*
X025274Y001909D01*
X025004Y001640D01*
X024623Y001640D01*
X024354Y001909D01*
X024354Y002291D01*
X024493Y002430D01*
X024134Y002430D01*
X024274Y002291D01*
X024274Y001909D01*
X024004Y001640D01*
X023623Y001640D01*
X023608Y001655D01*
X022904Y000950D01*
X016704Y000950D01*
X016604Y001049D01*
X016075Y001579D01*
X016075Y008354D01*
X015565Y008864D01*
X015565Y009585D01*
X015427Y009723D01*
X015427Y009979D01*
X015607Y010159D01*
X015862Y010159D01*
X016043Y009979D01*
X016043Y009723D01*
X015905Y009585D01*
X015905Y009005D01*
X016315Y008595D01*
X016415Y008495D01*
X016415Y001720D01*
X016845Y001290D01*
X022763Y001290D01*
X023368Y001895D01*
X023354Y001909D01*
X023354Y002291D01*
X023493Y002430D01*
X023184Y002430D01*
X022974Y002640D01*
X022623Y002640D01*
X022354Y002909D01*
X022354Y003291D01*
X022623Y003560D01*
X023004Y003560D01*
X023274Y003291D01*
X023274Y002909D01*
X023229Y002865D01*
X023325Y002770D01*
X023422Y002770D01*
X023304Y002889D01*
X023304Y003060D01*
X023774Y003060D01*
X023774Y003140D01*
X023774Y003610D01*
X023602Y003610D01*
X023304Y003311D01*
X023304Y003140D01*
X023774Y003140D01*
X023854Y003140D01*
X024324Y003140D01*
X024324Y003311D01*
X024025Y003610D01*
X023854Y003610D01*
X023854Y003140D01*
X023854Y003060D01*
X024324Y003060D01*
X024324Y002889D01*
X024205Y002770D01*
X024493Y002770D01*
X024354Y002909D01*
X024354Y003291D01*
X024623Y003560D01*
X025004Y003560D01*
X025274Y003291D01*
X025274Y002909D01*
X025134Y002770D01*
X025422Y002770D01*
X025304Y002889D01*
X025304Y003060D01*
X025774Y003060D01*
X025774Y003140D01*
X025774Y003610D01*
X025602Y003610D01*
X025304Y003311D01*
X025304Y003140D01*
X025774Y003140D01*
X025854Y003140D01*
X026324Y003140D01*
X026324Y003311D01*
X026025Y003610D01*
X025854Y003610D01*
X025854Y003140D01*
X025854Y003060D01*
X026324Y003060D01*
X026324Y002889D01*
X026205Y002770D01*
X026743Y002770D01*
X027144Y003170D01*
X027144Y003670D01*
X027243Y003770D01*
X027671Y004198D01*
X027152Y004198D01*
X026775Y003821D01*
X026775Y003797D01*
X026675Y003698D01*
X021152Y003698D01*
X021009Y003555D01*
X021274Y003291D01*
X021274Y002909D01*
X021004Y002640D01*
X020623Y002640D01*
X020354Y002909D01*
X020354Y003291D01*
X020623Y003560D01*
X020644Y003560D01*
X020644Y003670D01*
X020743Y003770D01*
X021011Y004038D01*
X026511Y004038D01*
X026534Y004061D01*
X027011Y004538D01*
X031101Y004538D01*
X031380Y004816D01*
X031380Y008959D01*
X026438Y008961D01*
X025851Y008375D01*
X025500Y008375D01*
X027628Y006246D01*
X030670Y006246D01*
X030808Y006384D01*
X031063Y006384D01*
X031244Y006204D01*
X031244Y005949D01*
X031063Y005768D01*
X030808Y005768D01*
X030670Y005906D01*
X027487Y005906D01*
X027388Y006006D01*
X025279Y008115D01*
X023979Y008115D01*
X023880Y008215D01*
X023726Y008368D01*
X022208Y008368D01*
X022293Y008283D01*
X022293Y008027D01*
X022155Y007889D01*
X022155Y007379D01*
X022293Y007240D01*
X022293Y006985D01*
X022155Y006847D01*
X022155Y006701D01*
X022055Y006601D01*
X019484Y004030D01*
X019484Y003670D01*
X019608Y003545D01*
X019623Y003560D01*
X020004Y003560D01*
X020274Y003291D01*
X020274Y002909D01*
X020004Y002640D01*
X019623Y002640D01*
X019354Y002909D01*
X019354Y003291D01*
X019368Y003305D01*
X019243Y003430D01*
X019144Y003530D01*
X019144Y004170D01*
X021815Y006842D01*
X021815Y006847D01*
X021677Y006985D01*
X021677Y007240D01*
X021815Y007379D01*
X021815Y007889D01*
X021677Y008027D01*
X021677Y008283D01*
X021762Y008368D01*
X020295Y008368D01*
X020157Y008230D01*
X019901Y008230D01*
X019766Y008366D01*
X019673Y008272D01*
X019673Y005219D01*
X018484Y004030D01*
X018484Y002029D01*
X018833Y001679D01*
X019584Y001679D01*
X019354Y001909D01*
X019354Y002291D01*
X019623Y002560D01*
X020004Y002560D01*
X020274Y002291D01*
X020274Y001909D01*
X020044Y001679D01*
X020584Y001679D01*
X020354Y001909D01*
X020354Y002291D01*
X020623Y002560D01*
X021004Y002560D01*
X021274Y002291D01*
X021274Y001909D01*
X021044Y001679D01*
X021153Y001679D01*
X021368Y001895D01*
X021354Y001909D01*
X021354Y002291D01*
X021623Y002560D01*
X022004Y002560D01*
X022274Y002291D01*
X022274Y001909D01*
X022004Y001640D01*
X021623Y001640D01*
X021608Y001655D01*
X021293Y001339D01*
X018692Y001339D01*
X018144Y001888D01*
X018144Y004170D01*
X018243Y004270D01*
X019333Y005359D01*
X019333Y008272D01*
X019194Y008410D01*
X019194Y008666D01*
X019293Y008765D01*
X016458Y008765D01*
X016358Y008864D01*
X016322Y008900D01*
X016127Y008900D01*
X015946Y009081D01*
X015946Y009336D01*
X016127Y009516D01*
X016382Y009516D01*
X016563Y009336D01*
X016563Y009141D01*
X016599Y009105D01*
X016816Y009105D01*
X016816Y009551D01*
X015924Y010442D01*
X008122Y010442D01*
X008274Y010291D01*
X008274Y009909D01*
X008004Y009640D01*
X007623Y009640D01*
X007354Y009909D01*
X007354Y010291D01*
X007273Y010291D01*
X007274Y010291D02*
X007122Y010442D01*
X007505Y010442D01*
X007354Y010291D01*
X007274Y010291D02*
X007274Y009909D01*
X007004Y009640D01*
X006623Y009640D01*
X006354Y009909D01*
X006354Y010291D01*
X004879Y010291D01*
X004997Y010410D02*
X006473Y010410D01*
X006505Y010442D02*
X006354Y010291D01*
X006354Y010173D02*
X004760Y010173D01*
X004642Y010054D02*
X006354Y010054D01*
X006354Y009936D02*
X004523Y009936D01*
X004405Y009817D02*
X006446Y009817D01*
X006564Y009699D02*
X004286Y009699D01*
X004168Y009580D02*
X014905Y009580D01*
X014905Y009592D02*
X014905Y007853D01*
X014785Y007733D01*
X014785Y007477D01*
X014965Y007297D01*
X015221Y007297D01*
X015401Y007477D01*
X015401Y007733D01*
X015245Y007888D01*
X015245Y009592D01*
X015383Y009730D01*
X015383Y009985D01*
X015203Y010166D01*
X014948Y010166D01*
X014767Y009985D01*
X014767Y009730D01*
X014905Y009592D01*
X014905Y009462D02*
X008103Y009462D01*
X008004Y009560D02*
X007623Y009560D01*
X007354Y009291D01*
X007354Y008909D01*
X007623Y008640D01*
X008004Y008640D01*
X008274Y008909D01*
X008274Y009291D01*
X008004Y009560D01*
X008063Y009699D02*
X014799Y009699D01*
X014767Y009817D02*
X008181Y009817D01*
X008274Y009936D02*
X014767Y009936D01*
X014836Y010054D02*
X008274Y010054D01*
X008274Y010173D02*
X016194Y010173D01*
X016075Y010291D02*
X008273Y010291D01*
X008155Y010410D02*
X015957Y010410D01*
X015995Y010612D02*
X017033Y009573D01*
X020014Y009573D01*
X020137Y009696D01*
X021614Y009696D01*
X021737Y009573D01*
X024074Y009573D01*
X024534Y010033D01*
X024644Y010033D01*
X024589Y010033D01*
X024959Y010494D02*
X026129Y011663D01*
X027817Y011663D01*
X027817Y010602D02*
X027817Y010581D01*
X025781Y008545D01*
X024180Y008545D01*
X023790Y008935D01*
X016528Y008935D01*
X016254Y009208D01*
X016040Y008988D02*
X015922Y008988D01*
X015905Y009106D02*
X015946Y009106D01*
X015946Y009225D02*
X015905Y009225D01*
X015905Y009343D02*
X015954Y009343D01*
X015905Y009462D02*
X016072Y009462D01*
X015905Y009580D02*
X016786Y009580D01*
X016816Y009462D02*
X016437Y009462D01*
X016555Y009343D02*
X016816Y009343D01*
X016816Y009225D02*
X016563Y009225D01*
X016597Y009106D02*
X016816Y009106D01*
X016353Y008869D02*
X016041Y008869D01*
X016159Y008751D02*
X019279Y008751D01*
X019194Y008632D02*
X016278Y008632D01*
X016396Y008514D02*
X019194Y008514D01*
X019210Y008395D02*
X016415Y008395D01*
X016415Y008277D02*
X019328Y008277D01*
X019333Y008158D02*
X016415Y008158D01*
X016415Y008040D02*
X019333Y008040D01*
X019333Y007921D02*
X016415Y007921D01*
X016415Y007803D02*
X019333Y007803D01*
X019333Y007684D02*
X016415Y007684D01*
X016415Y007566D02*
X019333Y007566D01*
X019333Y007447D02*
X016415Y007447D01*
X016415Y007329D02*
X019333Y007329D01*
X019333Y007210D02*
X016415Y007210D01*
X016415Y007092D02*
X019333Y007092D01*
X019333Y006973D02*
X016415Y006973D01*
X016415Y006855D02*
X019333Y006855D01*
X019333Y006736D02*
X016415Y006736D01*
X016415Y006618D02*
X019333Y006618D01*
X019333Y006499D02*
X016415Y006499D01*
X016415Y006381D02*
X019333Y006381D01*
X019333Y006262D02*
X016415Y006262D01*
X016415Y006144D02*
X019333Y006144D01*
X019333Y006025D02*
X016415Y006025D01*
X016415Y005907D02*
X019333Y005907D01*
X019333Y005788D02*
X016415Y005788D01*
X016415Y005670D02*
X019333Y005670D01*
X019333Y005551D02*
X016415Y005551D01*
X016415Y005433D02*
X019333Y005433D01*
X019287Y005314D02*
X016415Y005314D01*
X016415Y005196D02*
X019169Y005196D01*
X019050Y005077D02*
X016415Y005077D01*
X016415Y004959D02*
X018932Y004959D01*
X018813Y004840D02*
X016415Y004840D01*
X016415Y004722D02*
X018695Y004722D01*
X018576Y004603D02*
X016415Y004603D01*
X016415Y004485D02*
X018458Y004485D01*
X018339Y004366D02*
X016415Y004366D01*
X016415Y004248D02*
X018221Y004248D01*
X018144Y004129D02*
X016415Y004129D01*
X016415Y004011D02*
X018144Y004011D01*
X018144Y003892D02*
X016415Y003892D01*
X016415Y003774D02*
X018144Y003774D01*
X018144Y003655D02*
X016415Y003655D01*
X016415Y003537D02*
X018144Y003537D01*
X018144Y003418D02*
X016415Y003418D01*
X016415Y003300D02*
X018144Y003300D01*
X018144Y003181D02*
X016415Y003181D01*
X016415Y003063D02*
X018144Y003063D01*
X018144Y002944D02*
X016415Y002944D01*
X016415Y002826D02*
X018144Y002826D01*
X018144Y002707D02*
X016415Y002707D01*
X016415Y002589D02*
X018144Y002589D01*
X018144Y002470D02*
X016415Y002470D01*
X016415Y002352D02*
X018144Y002352D01*
X018144Y002233D02*
X016415Y002233D01*
X016415Y002115D02*
X018144Y002115D01*
X018144Y001996D02*
X016415Y001996D01*
X016415Y001878D02*
X018154Y001878D01*
X018272Y001759D02*
X016415Y001759D01*
X016494Y001641D02*
X018391Y001641D01*
X018509Y001522D02*
X016612Y001522D01*
X016731Y001404D02*
X018628Y001404D01*
X018762Y001509D02*
X018314Y001958D01*
X018314Y004100D01*
X019503Y005289D01*
X019503Y008538D01*
X019677Y008277D02*
X019855Y008277D01*
X019673Y008158D02*
X021677Y008158D01*
X021677Y008040D02*
X019673Y008040D01*
X019673Y007921D02*
X021783Y007921D01*
X021815Y007803D02*
X019673Y007803D01*
X019673Y007684D02*
X021815Y007684D01*
X021815Y007566D02*
X019673Y007566D01*
X019673Y007447D02*
X021815Y007447D01*
X021765Y007329D02*
X019673Y007329D01*
X019673Y007210D02*
X021677Y007210D01*
X021677Y007092D02*
X019673Y007092D01*
X019673Y006973D02*
X021689Y006973D01*
X021807Y006855D02*
X019673Y006855D01*
X019673Y006736D02*
X021709Y006736D01*
X021591Y006618D02*
X019673Y006618D01*
X019673Y006499D02*
X021472Y006499D01*
X021354Y006381D02*
X019673Y006381D01*
X019673Y006262D02*
X021235Y006262D01*
X021117Y006144D02*
X019673Y006144D01*
X019673Y006025D02*
X020998Y006025D01*
X020880Y005907D02*
X019673Y005907D01*
X019673Y005788D02*
X020761Y005788D01*
X020643Y005670D02*
X019673Y005670D01*
X019673Y005551D02*
X020524Y005551D01*
X020406Y005433D02*
X019673Y005433D01*
X019673Y005314D02*
X020287Y005314D01*
X020169Y005196D02*
X019649Y005196D01*
X019531Y005077D02*
X020050Y005077D01*
X019932Y004959D02*
X019412Y004959D01*
X019294Y004840D02*
X019813Y004840D01*
X019695Y004722D02*
X019175Y004722D01*
X019057Y004603D02*
X019576Y004603D01*
X019458Y004485D02*
X018938Y004485D01*
X018820Y004366D02*
X019339Y004366D01*
X019221Y004248D02*
X018701Y004248D01*
X018583Y004129D02*
X019144Y004129D01*
X019144Y004011D02*
X018484Y004011D01*
X018484Y003892D02*
X019144Y003892D01*
X019144Y003774D02*
X018484Y003774D01*
X018484Y003655D02*
X019144Y003655D01*
X019144Y003537D02*
X018484Y003537D01*
X018484Y003418D02*
X019255Y003418D01*
X019363Y003300D02*
X018484Y003300D01*
X018484Y003181D02*
X019354Y003181D01*
X019354Y003063D02*
X018484Y003063D01*
X018484Y002944D02*
X019354Y002944D01*
X019438Y002826D02*
X018484Y002826D01*
X018484Y002707D02*
X019556Y002707D01*
X019533Y002470D02*
X018484Y002470D01*
X018484Y002352D02*
X019415Y002352D01*
X019354Y002233D02*
X018484Y002233D01*
X018484Y002115D02*
X019354Y002115D01*
X019354Y001996D02*
X018516Y001996D01*
X018635Y001878D02*
X019386Y001878D01*
X019504Y001759D02*
X018753Y001759D01*
X018762Y001509D02*
X021223Y001509D01*
X021814Y002100D01*
X022274Y002115D02*
X022354Y002115D01*
X022354Y002233D02*
X022274Y002233D01*
X022354Y002291D02*
X022354Y001909D01*
X022623Y001640D01*
X023004Y001640D01*
X023274Y001909D01*
X023274Y002291D01*
X023004Y002560D01*
X022623Y002560D01*
X022354Y002291D01*
X022415Y002352D02*
X022213Y002352D01*
X022094Y002470D02*
X022533Y002470D01*
X022556Y002707D02*
X022142Y002707D01*
X022025Y002590D02*
X022324Y002889D01*
X022324Y003060D01*
X021854Y003060D01*
X021854Y003140D01*
X022324Y003140D01*
X022324Y003311D01*
X022025Y003610D01*
X021854Y003610D01*
X021854Y003140D01*
X021774Y003140D01*
X021774Y003610D01*
X021602Y003610D01*
X021304Y003311D01*
X021304Y003140D01*
X021774Y003140D01*
X021774Y003060D01*
X021854Y003060D01*
X021854Y002590D01*
X022025Y002590D01*
X021854Y002707D02*
X021774Y002707D01*
X021774Y002590D02*
X021774Y003060D01*
X021304Y003060D01*
X021304Y002889D01*
X021602Y002590D01*
X021774Y002590D01*
X021774Y002826D02*
X021854Y002826D01*
X021854Y002944D02*
X021774Y002944D01*
X021774Y003063D02*
X021274Y003063D01*
X021274Y003181D02*
X021304Y003181D01*
X021304Y003300D02*
X021265Y003300D01*
X021146Y003418D02*
X021410Y003418D01*
X021529Y003537D02*
X021028Y003537D01*
X021109Y003655D02*
X027144Y003655D01*
X027144Y003537D02*
X026098Y003537D01*
X026217Y003418D02*
X027144Y003418D01*
X027144Y003300D02*
X026324Y003300D01*
X026324Y003181D02*
X027144Y003181D01*
X027036Y003063D02*
X025854Y003063D01*
X025774Y003063D02*
X025274Y003063D01*
X025274Y003181D02*
X025304Y003181D01*
X025304Y003300D02*
X025265Y003300D01*
X025146Y003418D02*
X025410Y003418D01*
X025529Y003537D02*
X025028Y003537D01*
X024600Y003537D02*
X024098Y003537D01*
X024217Y003418D02*
X024481Y003418D01*
X024363Y003300D02*
X024324Y003300D01*
X024324Y003181D02*
X024354Y003181D01*
X024354Y003063D02*
X023854Y003063D01*
X023774Y003063D02*
X023274Y003063D01*
X023274Y003181D02*
X023304Y003181D01*
X023304Y003300D02*
X023265Y003300D01*
X023146Y003418D02*
X023410Y003418D01*
X023529Y003537D02*
X023028Y003537D01*
X022600Y003537D02*
X022098Y003537D01*
X022217Y003418D02*
X022481Y003418D01*
X022363Y003300D02*
X022324Y003300D01*
X022324Y003181D02*
X022354Y003181D01*
X022354Y003063D02*
X021854Y003063D01*
X021854Y003181D02*
X021774Y003181D01*
X021774Y003300D02*
X021854Y003300D01*
X021854Y003418D02*
X021774Y003418D01*
X021774Y003537D02*
X021854Y003537D01*
X022324Y002944D02*
X022354Y002944D01*
X022438Y002826D02*
X022260Y002826D01*
X022814Y003041D02*
X022814Y003100D01*
X022814Y003041D02*
X023254Y002600D01*
X026814Y002600D01*
X027314Y003100D01*
X027314Y003600D01*
X027821Y004108D01*
X031432Y004108D01*
X031904Y004580D01*
X031904Y015572D01*
X031314Y016163D01*
X017495Y016163D01*
X016692Y016463D02*
X013855Y016463D01*
X013486Y016586D02*
X013732Y016832D01*
X019276Y016832D01*
X019379Y016730D01*
X019768Y016730D01*
X020282Y016730D02*
X019632Y017380D01*
X018983Y017380D01*
X018073Y018289D01*
X016569Y018289D01*
X013482Y018289D01*
X012773Y017580D01*
X003203Y017580D01*
X002223Y016600D01*
X002223Y004427D01*
X002613Y004037D01*
X003912Y004037D01*
X005821Y005946D01*
X010682Y005946D01*
X010920Y006144D02*
X016075Y006144D01*
X016075Y006262D02*
X004433Y006262D01*
X004551Y006381D02*
X014708Y006381D01*
X014773Y006316D02*
X014607Y006481D01*
X004652Y006481D01*
X003385Y005215D01*
X003385Y005020D01*
X003205Y004839D01*
X002950Y004839D01*
X002769Y005020D01*
X002769Y005275D01*
X002950Y005455D01*
X003145Y005455D01*
X004411Y006722D01*
X004411Y006722D01*
X004511Y006821D01*
X014662Y006821D01*
X014773Y006932D01*
X015028Y006932D01*
X015208Y006751D01*
X015208Y006496D01*
X015028Y006316D01*
X014773Y006316D01*
X015093Y006381D02*
X016075Y006381D01*
X016075Y006499D02*
X015208Y006499D01*
X015208Y006618D02*
X016075Y006618D01*
X016075Y006736D02*
X015208Y006736D01*
X015105Y006855D02*
X016075Y006855D01*
X016075Y006973D02*
X002393Y006973D01*
X002393Y006855D02*
X014695Y006855D01*
X014724Y006651D02*
X014873Y006651D01*
X014900Y006624D01*
X014724Y006651D02*
X004581Y006651D01*
X003077Y005147D01*
X002830Y004959D02*
X002393Y004959D01*
X002393Y005077D02*
X002769Y005077D01*
X002769Y005196D02*
X002393Y005196D01*
X002393Y005314D02*
X002808Y005314D01*
X002927Y005433D02*
X002393Y005433D01*
X002393Y005551D02*
X003241Y005551D01*
X003359Y005670D02*
X002393Y005670D01*
X002393Y005788D02*
X003478Y005788D01*
X003596Y005907D02*
X002393Y005907D01*
X002393Y006025D02*
X003715Y006025D01*
X003833Y006144D02*
X002393Y006144D01*
X002393Y006262D02*
X003952Y006262D01*
X004070Y006381D02*
X002393Y006381D01*
X002393Y006499D02*
X004189Y006499D01*
X004307Y006618D02*
X002393Y006618D01*
X002393Y006736D02*
X004426Y006736D01*
X004314Y006144D02*
X010443Y006144D01*
X010416Y006116D02*
X005751Y006116D01*
X003842Y004207D01*
X002683Y004207D01*
X002393Y004497D01*
X002393Y016530D01*
X003274Y017410D01*
X006473Y017410D01*
X006354Y017291D01*
X006354Y016909D01*
X006507Y016756D01*
X003845Y016756D01*
X003836Y016765D01*
X003836Y016960D01*
X003656Y017140D01*
X003400Y017140D01*
X003220Y016960D01*
X003220Y016705D01*
X003400Y016525D01*
X003220Y016345D01*
X003220Y016090D01*
X003326Y015983D01*
X003220Y015877D01*
X003220Y015622D01*
X003400Y015441D01*
X003596Y015441D01*
X004590Y014448D01*
X006511Y014448D01*
X006354Y014291D01*
X006354Y013909D01*
X006489Y013774D01*
X004956Y013774D01*
X003834Y014896D01*
X003836Y014898D01*
X003836Y015153D01*
X003656Y015333D01*
X003400Y015333D01*
X003220Y015153D01*
X003220Y014898D01*
X003400Y014717D01*
X003532Y014717D01*
X003646Y014603D01*
X003400Y014603D01*
X003220Y014423D01*
X003220Y014167D01*
X003400Y013987D01*
X003656Y013987D01*
X003751Y014082D01*
X005422Y012410D01*
X006473Y012410D01*
X006354Y012291D01*
X006354Y011909D01*
X006497Y011766D01*
X005823Y011766D01*
X005723Y011666D01*
X005077Y011020D01*
X004079Y011020D01*
X003941Y011158D01*
X003686Y011158D01*
X003505Y010978D01*
X003505Y010722D01*
X003686Y010542D01*
X003941Y010542D01*
X004079Y010680D01*
X004787Y010680D01*
X003411Y009304D01*
X003411Y009067D01*
X003273Y008928D01*
X003273Y008673D01*
X003454Y008493D01*
X003709Y008493D01*
X003889Y008673D01*
X003889Y008928D01*
X003751Y009067D01*
X003751Y009163D01*
X005030Y010442D01*
X006505Y010442D01*
X007155Y010410D02*
X007473Y010410D01*
X007354Y010173D02*
X007274Y010173D01*
X007274Y010054D02*
X007354Y010054D01*
X007354Y009936D02*
X007274Y009936D01*
X007181Y009817D02*
X007446Y009817D01*
X007564Y009699D02*
X007063Y009699D01*
X007004Y009560D02*
X006623Y009560D01*
X006354Y009291D01*
X006354Y008909D01*
X006623Y008640D01*
X007004Y008640D01*
X007274Y008909D01*
X007274Y009291D01*
X007004Y009560D01*
X007103Y009462D02*
X007525Y009462D01*
X007406Y009343D02*
X007221Y009343D01*
X007274Y009225D02*
X007354Y009225D01*
X007354Y009106D02*
X007274Y009106D01*
X007274Y008988D02*
X007354Y008988D01*
X007394Y008869D02*
X007233Y008869D01*
X007115Y008751D02*
X007512Y008751D01*
X007623Y008560D02*
X007354Y008291D01*
X007354Y007909D01*
X007623Y007640D01*
X008004Y007640D01*
X008274Y007909D01*
X008274Y008291D01*
X008004Y008560D01*
X007623Y008560D01*
X007577Y008514D02*
X007051Y008514D01*
X007004Y008560D02*
X006623Y008560D01*
X006354Y008291D01*
X006354Y007909D01*
X006623Y007640D01*
X007004Y007640D01*
X007274Y007909D01*
X007274Y008291D01*
X007004Y008560D01*
X007169Y008395D02*
X007458Y008395D01*
X007354Y008277D02*
X007274Y008277D01*
X007274Y008158D02*
X007354Y008158D01*
X007354Y008040D02*
X007274Y008040D01*
X007274Y007921D02*
X007354Y007921D01*
X007460Y007803D02*
X007167Y007803D01*
X007048Y007684D02*
X007579Y007684D01*
X008048Y007684D02*
X014785Y007684D01*
X014785Y007566D02*
X002393Y007566D01*
X002393Y007684D02*
X006579Y007684D01*
X006460Y007803D02*
X002393Y007803D01*
X002393Y007921D02*
X006354Y007921D01*
X006354Y008040D02*
X002393Y008040D01*
X002393Y008158D02*
X006354Y008158D01*
X006354Y008277D02*
X002393Y008277D01*
X002393Y008395D02*
X006458Y008395D01*
X006577Y008514D02*
X003730Y008514D01*
X003848Y008632D02*
X014905Y008632D01*
X014905Y008514D02*
X008051Y008514D01*
X008169Y008395D02*
X014905Y008395D01*
X014905Y008277D02*
X008274Y008277D01*
X008274Y008158D02*
X014905Y008158D01*
X014905Y008040D02*
X008274Y008040D01*
X008274Y007921D02*
X014905Y007921D01*
X014855Y007803D02*
X008167Y007803D01*
X008115Y008751D02*
X014905Y008751D01*
X014905Y008869D02*
X008233Y008869D01*
X008274Y008988D02*
X014905Y008988D01*
X014905Y009106D02*
X008274Y009106D01*
X008274Y009225D02*
X014905Y009225D01*
X014905Y009343D02*
X008221Y009343D01*
X006525Y009462D02*
X004049Y009462D01*
X003931Y009343D02*
X006406Y009343D01*
X006354Y009225D02*
X003812Y009225D01*
X003751Y009106D02*
X006354Y009106D01*
X006354Y008988D02*
X003830Y008988D01*
X003889Y008869D02*
X006394Y008869D01*
X006512Y008751D02*
X003889Y008751D01*
X003581Y008801D02*
X003581Y009234D01*
X004959Y010612D01*
X015995Y010612D01*
X015968Y010054D02*
X016312Y010054D01*
X016431Y009936D02*
X016043Y009936D01*
X016043Y009817D02*
X016549Y009817D01*
X016668Y009699D02*
X016018Y009699D01*
X015735Y009851D02*
X015735Y008935D01*
X016245Y008425D01*
X016245Y001649D01*
X016774Y001120D01*
X022833Y001120D01*
X023814Y002100D01*
X024123Y001759D02*
X024504Y001759D01*
X024386Y001878D02*
X024242Y001878D01*
X024274Y001996D02*
X024354Y001996D01*
X024354Y002115D02*
X024274Y002115D01*
X024274Y002233D02*
X024354Y002233D01*
X024415Y002352D02*
X024213Y002352D01*
X024260Y002826D02*
X024438Y002826D01*
X024354Y002944D02*
X024324Y002944D01*
X023854Y003181D02*
X023774Y003181D01*
X023774Y003300D02*
X023854Y003300D01*
X023854Y003418D02*
X023774Y003418D01*
X023774Y003537D02*
X023854Y003537D01*
X023304Y002944D02*
X023274Y002944D01*
X023269Y002826D02*
X023367Y002826D01*
X023026Y002589D02*
X018484Y002589D01*
X019314Y003600D02*
X019314Y004100D01*
X021985Y006771D01*
X021985Y007113D01*
X021985Y008155D01*
X022293Y008158D02*
X023936Y008158D01*
X023818Y008277D02*
X022293Y008277D01*
X022293Y008040D02*
X025354Y008040D01*
X025473Y007921D02*
X022186Y007921D01*
X022155Y007803D02*
X025591Y007803D01*
X025710Y007684D02*
X022155Y007684D01*
X022155Y007566D02*
X025828Y007566D01*
X025947Y007447D02*
X022155Y007447D01*
X022205Y007329D02*
X026065Y007329D01*
X026184Y007210D02*
X022293Y007210D01*
X022293Y007092D02*
X026302Y007092D01*
X026421Y006973D02*
X022281Y006973D01*
X022162Y006855D02*
X026539Y006855D01*
X026658Y006736D02*
X022155Y006736D01*
X022071Y006618D02*
X026776Y006618D01*
X026895Y006499D02*
X021953Y006499D01*
X021834Y006381D02*
X027013Y006381D01*
X027132Y006262D02*
X021716Y006262D01*
X021597Y006144D02*
X027250Y006144D01*
X027369Y006025D02*
X021479Y006025D01*
X021360Y005907D02*
X027487Y005907D01*
X027558Y006076D02*
X030936Y006076D01*
X031186Y006262D02*
X031380Y006262D01*
X031380Y006144D02*
X031244Y006144D01*
X031244Y006025D02*
X031380Y006025D01*
X031380Y005907D02*
X031201Y005907D01*
X031083Y005788D02*
X031380Y005788D01*
X031380Y005670D02*
X021123Y005670D01*
X021242Y005788D02*
X030788Y005788D01*
X030685Y006262D02*
X027612Y006262D01*
X027494Y006381D02*
X030804Y006381D01*
X031067Y006381D02*
X031380Y006381D01*
X031380Y006499D02*
X027375Y006499D01*
X027257Y006618D02*
X031380Y006618D01*
X031380Y006736D02*
X027138Y006736D01*
X027020Y006855D02*
X031380Y006855D01*
X031380Y006973D02*
X026901Y006973D01*
X026783Y007092D02*
X031380Y007092D01*
X031380Y007210D02*
X026664Y007210D01*
X026546Y007329D02*
X031380Y007329D01*
X031380Y007447D02*
X026427Y007447D01*
X026309Y007566D02*
X031380Y007566D01*
X031380Y007684D02*
X026190Y007684D01*
X026072Y007803D02*
X031380Y007803D01*
X031380Y007921D02*
X025953Y007921D01*
X025835Y008040D02*
X031380Y008040D01*
X031380Y008158D02*
X025716Y008158D01*
X025598Y008277D02*
X031380Y008277D01*
X031380Y008395D02*
X025872Y008395D01*
X025990Y008514D02*
X031380Y008514D01*
X031380Y008632D02*
X026109Y008632D01*
X026227Y008751D02*
X031380Y008751D01*
X031380Y008869D02*
X026346Y008869D01*
X025349Y008285D02*
X027558Y006076D01*
X026847Y005210D02*
X026591Y005210D01*
X026453Y005072D01*
X020986Y005072D01*
X020220Y004306D01*
X020025Y004306D01*
X019844Y004125D01*
X019844Y003870D01*
X020025Y003690D01*
X020280Y003690D01*
X020460Y003870D01*
X020460Y004065D01*
X021127Y004732D01*
X026453Y004732D01*
X026591Y004594D01*
X026847Y004594D01*
X027027Y004775D01*
X027027Y005030D01*
X026847Y005210D01*
X026861Y005196D02*
X031380Y005196D01*
X031380Y005314D02*
X020768Y005314D01*
X020886Y005433D02*
X031380Y005433D01*
X031380Y005551D02*
X021005Y005551D01*
X020649Y005196D02*
X026577Y005196D01*
X026458Y005077D02*
X020531Y005077D01*
X020412Y004959D02*
X020873Y004959D01*
X020754Y004840D02*
X020294Y004840D01*
X020175Y004722D02*
X020636Y004722D01*
X020517Y004603D02*
X020057Y004603D01*
X019938Y004485D02*
X020399Y004485D01*
X020280Y004366D02*
X019820Y004366D01*
X019701Y004248D02*
X019966Y004248D01*
X019848Y004129D02*
X019583Y004129D01*
X019484Y004011D02*
X019844Y004011D01*
X019844Y003892D02*
X019484Y003892D01*
X019484Y003774D02*
X019941Y003774D01*
X020028Y003537D02*
X020600Y003537D01*
X020644Y003655D02*
X019499Y003655D01*
X019314Y003600D02*
X019814Y003100D01*
X020146Y003418D02*
X020481Y003418D01*
X020363Y003300D02*
X020265Y003300D01*
X020274Y003181D02*
X020354Y003181D01*
X020354Y003063D02*
X020274Y003063D01*
X020274Y002944D02*
X020354Y002944D01*
X020438Y002826D02*
X020190Y002826D01*
X020071Y002707D02*
X020556Y002707D01*
X020533Y002470D02*
X020094Y002470D01*
X020213Y002352D02*
X020415Y002352D01*
X020354Y002233D02*
X020274Y002233D01*
X020274Y002115D02*
X020354Y002115D01*
X020354Y001996D02*
X020274Y001996D01*
X020242Y001878D02*
X020386Y001878D01*
X020504Y001759D02*
X020123Y001759D01*
X021123Y001759D02*
X021232Y001759D01*
X021242Y001878D02*
X021351Y001878D01*
X021354Y001996D02*
X021274Y001996D01*
X021274Y002115D02*
X021354Y002115D01*
X021354Y002233D02*
X021274Y002233D01*
X021213Y002352D02*
X021415Y002352D01*
X021533Y002470D02*
X021094Y002470D01*
X021071Y002707D02*
X021485Y002707D01*
X021367Y002826D02*
X021190Y002826D01*
X021274Y002944D02*
X021304Y002944D01*
X020814Y003100D02*
X020814Y003600D01*
X021081Y003868D01*
X026605Y003868D01*
X026605Y003891D01*
X027081Y004368D01*
X031172Y004368D01*
X031550Y004746D01*
X031550Y015470D01*
X031172Y015848D01*
X018825Y015848D01*
X018912Y016399D02*
X031550Y016399D01*
X032140Y015809D01*
X032140Y003927D01*
X031814Y003600D01*
X028314Y003600D01*
X027814Y003100D01*
X027577Y003300D02*
X027484Y003300D01*
X027484Y003418D02*
X027891Y003418D01*
X028010Y003537D02*
X027490Y003537D01*
X027609Y003655D02*
X028128Y003655D01*
X028372Y003418D02*
X032224Y003418D01*
X032224Y003300D02*
X028253Y003300D01*
X028135Y003181D02*
X032224Y003181D01*
X032224Y003063D02*
X028122Y003063D01*
X028093Y002944D02*
X032224Y002944D01*
X032224Y002826D02*
X031712Y002826D01*
X031970Y002707D02*
X032224Y002707D01*
X032224Y002589D02*
X032145Y002589D01*
X032224Y003537D02*
X031990Y003537D01*
X032109Y003655D02*
X032224Y003655D01*
X031865Y003892D02*
X027846Y003892D01*
X027727Y003774D02*
X031747Y003774D01*
X031575Y004011D02*
X031970Y004011D01*
X031970Y004129D02*
X031693Y004129D01*
X031812Y004248D02*
X031970Y004248D01*
X031970Y004366D02*
X031930Y004366D01*
X031380Y004840D02*
X027027Y004840D01*
X027027Y004959D02*
X031380Y004959D01*
X031380Y005077D02*
X026980Y005077D01*
X026719Y004902D02*
X021057Y004902D01*
X020152Y003998D01*
X020460Y004011D02*
X020984Y004011D01*
X020865Y003892D02*
X020460Y003892D01*
X020364Y003774D02*
X020747Y003774D01*
X020524Y004129D02*
X026602Y004129D01*
X026721Y004248D02*
X020642Y004248D01*
X020761Y004366D02*
X026839Y004366D01*
X026958Y004485D02*
X020879Y004485D01*
X020998Y004603D02*
X026582Y004603D01*
X026464Y004722D02*
X021116Y004722D01*
X023094Y002470D02*
X023144Y002470D01*
X023213Y002352D02*
X023415Y002352D01*
X023354Y002233D02*
X023274Y002233D01*
X023274Y002115D02*
X023354Y002115D01*
X023354Y001996D02*
X023274Y001996D01*
X023242Y001878D02*
X023351Y001878D01*
X023232Y001759D02*
X023123Y001759D01*
X023114Y001641D02*
X023005Y001641D01*
X022995Y001522D02*
X021476Y001522D01*
X021594Y001641D02*
X021623Y001641D01*
X021357Y001404D02*
X022877Y001404D01*
X023120Y001167D02*
X030098Y001167D01*
X030066Y001285D02*
X023239Y001285D01*
X023357Y001404D02*
X030034Y001404D01*
X030027Y001522D02*
X023476Y001522D01*
X023594Y001641D02*
X023623Y001641D01*
X024005Y001641D02*
X024623Y001641D01*
X025005Y001641D02*
X025623Y001641D01*
X025504Y001759D02*
X025123Y001759D01*
X025242Y001878D02*
X025386Y001878D01*
X025354Y001996D02*
X025274Y001996D01*
X025274Y002115D02*
X025354Y002115D01*
X025354Y002233D02*
X025274Y002233D01*
X025213Y002352D02*
X025415Y002352D01*
X025367Y002826D02*
X025190Y002826D01*
X025274Y002944D02*
X025304Y002944D01*
X025774Y003181D02*
X025854Y003181D01*
X025854Y003300D02*
X025774Y003300D01*
X025774Y003418D02*
X025854Y003418D01*
X025854Y003537D02*
X025774Y003537D01*
X026324Y002944D02*
X026917Y002944D01*
X026799Y002826D02*
X026260Y002826D01*
X026213Y002352D02*
X030262Y002352D01*
X030193Y002233D02*
X026274Y002233D01*
X026274Y002115D02*
X030125Y002115D01*
X030087Y001996D02*
X026274Y001996D01*
X026242Y001878D02*
X030056Y001878D01*
X030027Y001759D02*
X026123Y001759D01*
X026005Y001641D02*
X030027Y001641D01*
X030146Y001048D02*
X023002Y001048D01*
X022623Y001641D02*
X022005Y001641D01*
X022123Y001759D02*
X022504Y001759D01*
X022386Y001878D02*
X022242Y001878D01*
X022274Y001996D02*
X022354Y001996D01*
X026751Y003774D02*
X027247Y003774D01*
X027365Y003892D02*
X026846Y003892D01*
X026964Y004011D02*
X027484Y004011D01*
X027602Y004129D02*
X027083Y004129D01*
X026856Y004603D02*
X031167Y004603D01*
X031285Y004722D02*
X026974Y004722D01*
X027484Y003181D02*
X027505Y003181D01*
X027505Y003063D02*
X027484Y003063D01*
X027534Y002944D02*
X027398Y002944D01*
X027279Y002826D02*
X027652Y002826D01*
X027975Y002826D02*
X030915Y002826D01*
X030657Y002707D02*
X027161Y002707D01*
X027042Y002589D02*
X030482Y002589D01*
X030364Y002470D02*
X026924Y002470D01*
X030215Y000930D02*
X003912Y000930D01*
X003981Y001048D02*
X016605Y001048D01*
X016487Y001167D02*
X004030Y001167D01*
X004061Y001285D02*
X016368Y001285D01*
X016250Y001404D02*
X004093Y001404D01*
X004100Y001522D02*
X016131Y001522D01*
X016075Y001641D02*
X004100Y001641D01*
X004100Y001759D02*
X016075Y001759D01*
X016075Y001878D02*
X004071Y001878D01*
X004040Y001996D02*
X016075Y001996D01*
X016075Y002115D02*
X004002Y002115D01*
X003934Y002233D02*
X016075Y002233D01*
X016075Y002352D02*
X003866Y002352D01*
X003763Y002470D02*
X016075Y002470D01*
X016075Y002589D02*
X003645Y002589D01*
X003470Y002707D02*
X016075Y002707D01*
X016075Y002826D02*
X003212Y002826D01*
X002415Y002826D02*
X001814Y002826D01*
X001814Y002944D02*
X016075Y002944D01*
X016075Y003063D02*
X001814Y003063D01*
X001814Y003181D02*
X016075Y003181D01*
X016075Y003300D02*
X001814Y003300D01*
X001814Y003418D02*
X016075Y003418D01*
X016075Y003537D02*
X001814Y003537D01*
X001814Y003655D02*
X016075Y003655D01*
X016075Y003774D02*
X001814Y003774D01*
X001814Y003892D02*
X002517Y003892D01*
X002542Y003867D02*
X003982Y003867D01*
X005892Y005776D01*
X010416Y005776D01*
X010554Y005638D01*
X010809Y005638D01*
X010990Y005819D01*
X010990Y006074D01*
X010809Y006255D01*
X010554Y006255D01*
X010416Y006116D01*
X010523Y005670D02*
X005785Y005670D01*
X005666Y005551D02*
X016075Y005551D01*
X016075Y005433D02*
X005548Y005433D01*
X005429Y005314D02*
X016075Y005314D01*
X016075Y005196D02*
X005311Y005196D01*
X005192Y005077D02*
X016075Y005077D01*
X016075Y004959D02*
X005074Y004959D01*
X004955Y004840D02*
X016075Y004840D01*
X016075Y004722D02*
X004837Y004722D01*
X004718Y004603D02*
X016075Y004603D01*
X016075Y004485D02*
X004600Y004485D01*
X004481Y004366D02*
X016075Y004366D01*
X016075Y004248D02*
X004363Y004248D01*
X004244Y004129D02*
X016075Y004129D01*
X016075Y004011D02*
X004126Y004011D01*
X004007Y003892D02*
X016075Y003892D01*
X016075Y005670D02*
X010840Y005670D01*
X010959Y005788D02*
X016075Y005788D01*
X016075Y005907D02*
X010990Y005907D01*
X010990Y006025D02*
X016075Y006025D01*
X016075Y007092D02*
X002393Y007092D01*
X002393Y007210D02*
X016075Y007210D01*
X016075Y007329D02*
X015252Y007329D01*
X015371Y007447D02*
X016075Y007447D01*
X016075Y007566D02*
X015401Y007566D01*
X015401Y007684D02*
X016075Y007684D01*
X016075Y007803D02*
X015331Y007803D01*
X015245Y007921D02*
X016075Y007921D01*
X016075Y008040D02*
X015245Y008040D01*
X015245Y008158D02*
X016075Y008158D01*
X016075Y008277D02*
X015245Y008277D01*
X015245Y008395D02*
X016034Y008395D01*
X015916Y008514D02*
X015245Y008514D01*
X015245Y008632D02*
X015797Y008632D01*
X015679Y008751D02*
X015245Y008751D01*
X015245Y008869D02*
X015565Y008869D01*
X015565Y008988D02*
X015245Y008988D01*
X015245Y009106D02*
X015565Y009106D01*
X015565Y009225D02*
X015245Y009225D01*
X015245Y009343D02*
X015565Y009343D01*
X015565Y009462D02*
X015245Y009462D01*
X015245Y009580D02*
X015565Y009580D01*
X015452Y009699D02*
X015352Y009699D01*
X015383Y009817D02*
X015427Y009817D01*
X015427Y009936D02*
X015383Y009936D01*
X015315Y010054D02*
X015502Y010054D01*
X015075Y009858D02*
X015075Y007623D01*
X015093Y007605D01*
X014934Y007329D02*
X002393Y007329D01*
X002393Y007447D02*
X014815Y007447D01*
X015052Y009834D02*
X015075Y009858D01*
X014066Y011143D02*
X016795Y011143D01*
X018088Y009850D01*
X019714Y009850D01*
X019858Y009994D01*
X022101Y009994D01*
X021841Y010234D02*
X021961Y010354D01*
X022065Y010354D01*
X022204Y010494D01*
X024959Y010494D01*
X024573Y010856D02*
X025066Y011348D01*
X025066Y014987D01*
X024495Y015344D02*
X024495Y011395D01*
X024243Y011143D01*
X022130Y011143D01*
X021837Y010850D01*
X017890Y010850D01*
X017882Y010842D01*
X016782Y011943D01*
X013916Y011943D01*
X014455Y012183D02*
X014066Y012572D01*
X014066Y012580D01*
X005493Y012580D01*
X003778Y014295D01*
X003528Y014295D01*
X003304Y014083D02*
X002393Y014083D01*
X002393Y013965D02*
X003868Y013965D01*
X003987Y013846D02*
X002393Y013846D01*
X002393Y013728D02*
X004105Y013728D01*
X004224Y013609D02*
X002393Y013609D01*
X002393Y013491D02*
X004342Y013491D01*
X004461Y013372D02*
X002393Y013372D01*
X002393Y013254D02*
X004579Y013254D01*
X004698Y013135D02*
X002393Y013135D01*
X002393Y013017D02*
X004816Y013017D01*
X004935Y012898D02*
X002393Y012898D01*
X002393Y012780D02*
X005053Y012780D01*
X005172Y012661D02*
X002393Y012661D01*
X002393Y012543D02*
X005290Y012543D01*
X005409Y012424D02*
X002393Y012424D01*
X002393Y012306D02*
X006369Y012306D01*
X006354Y012187D02*
X002393Y012187D01*
X002393Y012069D02*
X006354Y012069D01*
X006354Y011950D02*
X002393Y011950D01*
X002393Y011832D02*
X006431Y011832D01*
X005893Y011596D02*
X005147Y010850D01*
X003814Y010850D01*
X004046Y010647D02*
X004754Y010647D01*
X004635Y010528D02*
X002393Y010528D01*
X002393Y010410D02*
X004517Y010410D01*
X004398Y010291D02*
X002393Y010291D01*
X002393Y010173D02*
X004280Y010173D01*
X004161Y010054D02*
X002393Y010054D01*
X002393Y009936D02*
X004043Y009936D01*
X003924Y009817D02*
X002393Y009817D01*
X002393Y009699D02*
X003806Y009699D01*
X003687Y009580D02*
X002393Y009580D01*
X002393Y009462D02*
X003569Y009462D01*
X003450Y009343D02*
X002393Y009343D01*
X002393Y009225D02*
X003411Y009225D01*
X003411Y009106D02*
X002393Y009106D01*
X002393Y008988D02*
X003332Y008988D01*
X003273Y008869D02*
X002393Y008869D01*
X002393Y008751D02*
X003273Y008751D01*
X003314Y008632D02*
X002393Y008632D01*
X002393Y008514D02*
X003433Y008514D01*
X002053Y008514D02*
X001814Y008514D01*
X001814Y008632D02*
X002053Y008632D01*
X002053Y008751D02*
X001814Y008751D01*
X001814Y008869D02*
X002053Y008869D01*
X002053Y008988D02*
X001814Y008988D01*
X001814Y009106D02*
X002053Y009106D01*
X002053Y009225D02*
X001814Y009225D01*
X001814Y009343D02*
X002053Y009343D01*
X002053Y009462D02*
X001814Y009462D01*
X001814Y009580D02*
X002053Y009580D01*
X002053Y009699D02*
X001814Y009699D01*
X001814Y009817D02*
X002053Y009817D01*
X002053Y009936D02*
X001814Y009936D01*
X001814Y010054D02*
X002053Y010054D01*
X002053Y010173D02*
X001814Y010173D01*
X001814Y010291D02*
X002053Y010291D01*
X002053Y010410D02*
X001814Y010410D01*
X001814Y010528D02*
X002053Y010528D01*
X002053Y010647D02*
X001814Y010647D01*
X001814Y010765D02*
X002053Y010765D01*
X002053Y010884D02*
X001814Y010884D01*
X001814Y011002D02*
X002053Y011002D01*
X002053Y011121D02*
X001814Y011121D01*
X001814Y011239D02*
X002053Y011239D01*
X002053Y011358D02*
X001814Y011358D01*
X001814Y011476D02*
X002053Y011476D01*
X002053Y011595D02*
X001814Y011595D01*
X001814Y011713D02*
X002053Y011713D01*
X002053Y011832D02*
X001814Y011832D01*
X001814Y011950D02*
X002053Y011950D01*
X002053Y012069D02*
X001814Y012069D01*
X001814Y012187D02*
X002053Y012187D01*
X002053Y012306D02*
X001814Y012306D01*
X001814Y012424D02*
X002053Y012424D01*
X002053Y012543D02*
X001814Y012543D01*
X001814Y012661D02*
X002053Y012661D01*
X002053Y012780D02*
X001814Y012780D01*
X001814Y012898D02*
X002053Y012898D01*
X002053Y013017D02*
X001814Y013017D01*
X001814Y013135D02*
X002053Y013135D01*
X002053Y013254D02*
X001814Y013254D01*
X001814Y013372D02*
X002053Y013372D01*
X002053Y013491D02*
X001814Y013491D01*
X001814Y013609D02*
X002053Y013609D01*
X002053Y013728D02*
X001814Y013728D01*
X001814Y013846D02*
X002053Y013846D01*
X002053Y013965D02*
X001814Y013965D01*
X001814Y014083D02*
X002053Y014083D01*
X002053Y014202D02*
X001814Y014202D01*
X001814Y014320D02*
X002053Y014320D01*
X002053Y014439D02*
X001814Y014439D01*
X001814Y014557D02*
X002053Y014557D01*
X002053Y014676D02*
X001814Y014676D01*
X001814Y014794D02*
X002053Y014794D01*
X002053Y014913D02*
X001814Y014913D01*
X001814Y015031D02*
X002053Y015031D01*
X002053Y015150D02*
X001814Y015150D01*
X001814Y015268D02*
X002053Y015268D01*
X002053Y015387D02*
X001814Y015387D01*
X001814Y015505D02*
X002053Y015505D01*
X002053Y015624D02*
X001814Y015624D01*
X001814Y015742D02*
X002053Y015742D01*
X002053Y015861D02*
X001814Y015861D01*
X001814Y015979D02*
X002053Y015979D01*
X002053Y016098D02*
X001814Y016098D01*
X001814Y016216D02*
X002053Y016216D01*
X002053Y016335D02*
X001814Y016335D01*
X001814Y016453D02*
X002053Y016453D01*
X002053Y016572D02*
X001814Y016572D01*
X001814Y016690D02*
X002073Y016690D01*
X002053Y016670D02*
X002053Y004356D01*
X002153Y004257D01*
X002542Y003867D01*
X002399Y004011D02*
X001814Y004011D01*
X001814Y004129D02*
X002280Y004129D01*
X002162Y004248D02*
X001814Y004248D01*
X001814Y004366D02*
X002053Y004366D01*
X002053Y004485D02*
X001814Y004485D01*
X001814Y004603D02*
X002053Y004603D01*
X002053Y004722D02*
X001814Y004722D01*
X001814Y004840D02*
X002053Y004840D01*
X002053Y004959D02*
X001814Y004959D01*
X001814Y005077D02*
X002053Y005077D01*
X002053Y005196D02*
X001814Y005196D01*
X001814Y005314D02*
X002053Y005314D01*
X002053Y005433D02*
X001814Y005433D01*
X001814Y005551D02*
X002053Y005551D01*
X002053Y005670D02*
X001814Y005670D01*
X001814Y005788D02*
X002053Y005788D01*
X002053Y005907D02*
X001814Y005907D01*
X001814Y006025D02*
X002053Y006025D01*
X002053Y006144D02*
X001814Y006144D01*
X001814Y006262D02*
X002053Y006262D01*
X002053Y006381D02*
X001814Y006381D01*
X001814Y006499D02*
X002053Y006499D01*
X002053Y006618D02*
X001814Y006618D01*
X001814Y006736D02*
X002053Y006736D01*
X002053Y006855D02*
X001814Y006855D01*
X001814Y006973D02*
X002053Y006973D01*
X002053Y007092D02*
X001814Y007092D01*
X001814Y007210D02*
X002053Y007210D01*
X002053Y007329D02*
X001814Y007329D01*
X001814Y007447D02*
X002053Y007447D01*
X002053Y007566D02*
X001814Y007566D01*
X001814Y007684D02*
X002053Y007684D01*
X002053Y007803D02*
X001814Y007803D01*
X001814Y007921D02*
X002053Y007921D01*
X002053Y008040D02*
X001814Y008040D01*
X001814Y008158D02*
X002053Y008158D01*
X002053Y008277D02*
X001814Y008277D01*
X001814Y008395D02*
X002053Y008395D01*
X002393Y010647D02*
X003581Y010647D01*
X003505Y010765D02*
X002393Y010765D01*
X002393Y010884D02*
X003505Y010884D01*
X003530Y011002D02*
X002393Y011002D01*
X002393Y011121D02*
X003648Y011121D01*
X003979Y011121D02*
X005177Y011121D01*
X005296Y011239D02*
X002393Y011239D01*
X002393Y011358D02*
X005414Y011358D01*
X005533Y011476D02*
X002393Y011476D01*
X002393Y011595D02*
X005651Y011595D01*
X005723Y011666D02*
X005723Y011666D01*
X005770Y011713D02*
X002393Y011713D01*
X004885Y013604D02*
X003528Y014961D01*
X003528Y015025D01*
X003220Y015031D02*
X002393Y015031D01*
X002393Y014913D02*
X003220Y014913D01*
X003324Y014794D02*
X002393Y014794D01*
X002393Y014676D02*
X003573Y014676D01*
X003355Y014557D02*
X002393Y014557D01*
X002393Y014439D02*
X003236Y014439D01*
X003220Y014320D02*
X002393Y014320D01*
X002393Y014202D02*
X003220Y014202D01*
X003936Y014794D02*
X004243Y014794D01*
X004125Y014913D02*
X003836Y014913D01*
X003836Y015031D02*
X004006Y015031D01*
X003888Y015150D02*
X003836Y015150D01*
X003769Y015268D02*
X003721Y015268D01*
X003651Y015387D02*
X002393Y015387D01*
X002393Y015505D02*
X003337Y015505D01*
X003220Y015624D02*
X002393Y015624D01*
X002393Y015742D02*
X003220Y015742D01*
X003220Y015861D02*
X002393Y015861D01*
X002393Y015979D02*
X003322Y015979D01*
X003220Y016098D02*
X002393Y016098D01*
X002393Y016216D02*
X003220Y016216D01*
X003220Y016335D02*
X002393Y016335D01*
X002393Y016453D02*
X003328Y016453D01*
X003353Y016572D02*
X002435Y016572D01*
X002553Y016690D02*
X003235Y016690D01*
X003220Y016809D02*
X002672Y016809D01*
X002790Y016927D02*
X003220Y016927D01*
X003306Y017046D02*
X002909Y017046D01*
X003027Y017164D02*
X006354Y017164D01*
X006354Y017046D02*
X003751Y017046D01*
X003836Y016927D02*
X006354Y016927D01*
X006454Y016809D02*
X003836Y016809D01*
X003774Y016586D02*
X013486Y016586D01*
X014101Y017324D02*
X016692Y017324D01*
X016191Y017723D02*
X014194Y017723D01*
X014101Y017817D01*
X014075Y017846D01*
X014185Y018672D02*
X014730Y018672D01*
X014847Y018555D01*
X020282Y018549D01*
X020802Y018029D01*
X021345Y017990D02*
X021601Y018120D01*
X021491Y018801D02*
X021484Y018804D01*
X021974Y018804D01*
X021974Y018800D01*
X022492Y018282D01*
X024847Y018282D01*
X024495Y017112D02*
X022605Y017112D01*
X020802Y016730D02*
X019503Y018029D01*
X018853Y018029D01*
X018794Y016517D02*
X018912Y016399D01*
X019283Y014864D02*
X019529Y014618D01*
X019283Y014864D02*
X015093Y014864D01*
X014847Y014618D01*
X004660Y014618D01*
X003528Y015750D01*
X003335Y015268D02*
X002393Y015268D01*
X002393Y015150D02*
X003220Y015150D01*
X004054Y014676D02*
X004362Y014676D01*
X004480Y014557D02*
X004173Y014557D01*
X004291Y014439D02*
X006502Y014439D01*
X006383Y014320D02*
X004410Y014320D01*
X004528Y014202D02*
X006354Y014202D01*
X006354Y014083D02*
X004647Y014083D01*
X004765Y013965D02*
X006354Y013965D01*
X006417Y013846D02*
X004884Y013846D01*
X004885Y013604D02*
X012994Y013604D01*
X013269Y013880D01*
X015216Y013880D01*
X015339Y013756D01*
X018914Y013756D01*
X018983Y013825D01*
X018983Y013873D01*
X019243Y013482D02*
X019373Y013612D01*
X019373Y014002D01*
X020022Y014651D01*
X021062Y014651D01*
X021813Y013900D01*
X021860Y013900D01*
X021860Y011896D01*
X021564Y011600D01*
X021723Y011100D02*
X023530Y012907D01*
X023530Y013765D01*
X022731Y013202D02*
X022479Y013202D01*
X024117Y011789D02*
X023865Y011537D01*
X024117Y011789D02*
X024117Y015092D01*
X023865Y015344D01*
X025770Y017084D02*
X025900Y017340D01*
X024197Y019785D02*
X023459Y019785D01*
X021491Y018801D02*
X015093Y018801D01*
X014847Y019047D01*
X013978Y019047D01*
X013732Y018801D01*
X011033Y018801D01*
X010787Y019047D01*
X010126Y019653D02*
X008017Y019653D01*
X008004Y019640D02*
X007623Y019640D01*
X007354Y019909D01*
X007354Y020291D01*
X007623Y020560D01*
X008004Y020560D01*
X008274Y020291D01*
X008274Y019909D01*
X008004Y019640D01*
X008004Y019560D02*
X007623Y019560D01*
X007354Y019291D01*
X007354Y018909D01*
X007493Y018770D01*
X007134Y018770D01*
X007274Y018909D01*
X007274Y019291D01*
X007004Y019560D01*
X006623Y019560D01*
X006354Y019291D01*
X006354Y018909D01*
X006493Y018770D01*
X005130Y018770D01*
X004868Y019032D01*
X004868Y019228D01*
X004687Y019408D01*
X004558Y019408D01*
X006541Y021445D01*
X006732Y021445D01*
X006912Y021626D01*
X006912Y021881D01*
X006732Y022062D01*
X006476Y022062D01*
X006296Y021881D01*
X006296Y021681D01*
X004083Y019408D01*
X003893Y019408D01*
X003712Y019228D01*
X003712Y018972D01*
X003893Y018792D01*
X004148Y018792D01*
X004290Y018934D01*
X004432Y018792D01*
X004627Y018792D01*
X004890Y018530D01*
X004989Y018430D01*
X006493Y018430D01*
X006354Y018291D01*
X006354Y017909D01*
X006513Y017750D01*
X003133Y017750D01*
X002053Y016670D01*
X002191Y016809D02*
X001814Y016809D01*
X001814Y016927D02*
X002310Y016927D01*
X002428Y017046D02*
X001814Y017046D01*
X001814Y017164D02*
X002547Y017164D01*
X002665Y017283D02*
X001814Y017283D01*
X001814Y017401D02*
X002784Y017401D01*
X002902Y017520D02*
X001814Y017520D01*
X001814Y017638D02*
X003021Y017638D01*
X003264Y017401D02*
X006464Y017401D01*
X006354Y017283D02*
X003146Y017283D01*
X003528Y016832D02*
X003774Y016586D01*
X003528Y016217D02*
X004149Y015596D01*
X015676Y015596D01*
X015802Y015470D01*
X021485Y015470D01*
X021491Y015476D01*
X021122Y015100D02*
X020999Y015110D01*
X013978Y015110D01*
X013855Y014987D01*
X013978Y013482D02*
X019243Y013482D01*
X020022Y013742D02*
X020022Y011803D01*
X019762Y011543D01*
X020282Y011543D02*
X020412Y011673D01*
X020412Y014131D01*
X018983Y014391D02*
X015855Y014391D01*
X015725Y014261D01*
X014975Y013092D02*
X015365Y012702D01*
X017178Y012702D01*
X017827Y012053D01*
X019233Y012053D01*
X019243Y012063D01*
X019243Y011543D02*
X017947Y011543D01*
X017048Y012443D01*
X014722Y012443D01*
X014585Y012572D01*
X014455Y012183D02*
X016925Y012183D01*
X018015Y011092D01*
X018023Y011100D01*
X021723Y011100D01*
X022220Y010856D02*
X024573Y010856D01*
X024050Y009324D02*
X024317Y009058D01*
X024050Y009324D02*
X021013Y009324D01*
X021841Y010234D02*
X019503Y010234D01*
X017751Y010600D02*
X017743Y010592D01*
X016739Y011596D01*
X005893Y011596D01*
X010664Y009081D02*
X011033Y009081D01*
X010888Y007155D02*
X010636Y007155D01*
X005660Y006025D02*
X004196Y006025D01*
X004077Y005907D02*
X005541Y005907D01*
X005423Y005788D02*
X003959Y005788D01*
X003840Y005670D02*
X005304Y005670D01*
X005186Y005551D02*
X003722Y005551D01*
X003603Y005433D02*
X005067Y005433D01*
X004949Y005314D02*
X003485Y005314D01*
X003385Y005196D02*
X004830Y005196D01*
X004712Y005077D02*
X003385Y005077D01*
X003324Y004959D02*
X004593Y004959D01*
X004475Y004840D02*
X003206Y004840D01*
X002949Y004840D02*
X002393Y004840D01*
X002393Y004722D02*
X004356Y004722D01*
X004238Y004603D02*
X002393Y004603D01*
X002406Y004485D02*
X004119Y004485D01*
X004001Y004366D02*
X002524Y004366D01*
X002643Y004248D02*
X003882Y004248D01*
X002153Y004257D02*
X002153Y004257D01*
X002157Y002707D02*
X001814Y002707D01*
X001814Y002589D02*
X001982Y002589D01*
X001864Y002470D02*
X001814Y002470D01*
X003726Y000693D02*
X030401Y000693D01*
X030283Y000811D02*
X003844Y000811D01*
X017751Y010600D02*
X021964Y010600D01*
X022220Y010856D01*
X022598Y010066D02*
X022721Y010066D01*
X023790Y008545D02*
X023783Y008538D01*
X020029Y008538D01*
X020203Y008277D02*
X021677Y008277D01*
X023790Y008545D02*
X024050Y008285D01*
X025349Y008285D01*
X023951Y007113D02*
X023705Y007113D01*
X018463Y019458D02*
X017943Y019978D01*
X017943Y021797D01*
X019113Y022966D01*
X022711Y022966D01*
X023192Y022486D01*
X023231Y022486D01*
X023564Y022100D02*
X024745Y023281D01*
X024745Y024547D01*
X025180Y025175D02*
X023491Y025175D01*
X022062Y023746D01*
X022062Y023486D01*
X021822Y023682D02*
X020569Y023682D01*
X020569Y023727D02*
X020430Y023865D01*
X020430Y026727D01*
X021315Y027612D01*
X022566Y027612D01*
X022666Y027712D01*
X023608Y028655D01*
X023623Y028640D01*
X024004Y028640D01*
X024274Y028909D01*
X024274Y029291D01*
X024004Y029560D01*
X023623Y029560D01*
X023354Y029291D01*
X023354Y028909D01*
X023368Y028895D01*
X022425Y027952D01*
X021174Y027952D01*
X020190Y026968D01*
X020090Y026868D01*
X020090Y023865D01*
X019952Y023727D01*
X019952Y023471D01*
X020071Y023353D01*
X016816Y023353D01*
X016816Y020270D01*
X010743Y020270D01*
X010644Y020170D01*
X009243Y018770D01*
X008134Y018770D01*
X008274Y018909D01*
X008274Y019291D01*
X008004Y019560D01*
X008030Y019534D02*
X010007Y019534D01*
X009889Y019416D02*
X008149Y019416D01*
X008267Y019297D02*
X009770Y019297D01*
X009652Y019179D02*
X008274Y019179D01*
X008274Y019060D02*
X009533Y019060D01*
X009415Y018942D02*
X008274Y018942D01*
X008187Y018823D02*
X009296Y018823D01*
X009314Y018600D02*
X010814Y020100D01*
X017042Y020100D01*
X017684Y019458D01*
X017943Y019458D01*
X016816Y020364D02*
X008201Y020364D01*
X008274Y020245D02*
X010718Y020245D01*
X010600Y020127D02*
X008274Y020127D01*
X008274Y020008D02*
X010481Y020008D01*
X010363Y019890D02*
X008254Y019890D01*
X008135Y019771D02*
X010244Y019771D01*
X009314Y018600D02*
X005060Y018600D01*
X004560Y019100D01*
X004798Y019297D02*
X006360Y019297D01*
X006354Y019179D02*
X004868Y019179D01*
X004868Y019060D02*
X006354Y019060D01*
X006354Y018942D02*
X004958Y018942D01*
X005077Y018823D02*
X006440Y018823D01*
X006412Y018349D02*
X002998Y018349D01*
X002941Y018292D02*
X003122Y018472D01*
X003122Y018728D01*
X002941Y018908D01*
X002887Y018908D01*
X002445Y019351D01*
X002445Y022080D01*
X002483Y022118D01*
X002483Y022373D01*
X002302Y022554D01*
X002047Y022554D01*
X001867Y022373D01*
X001867Y022118D01*
X001905Y022080D01*
X001905Y019185D01*
X001946Y019086D01*
X002022Y019010D01*
X002505Y018526D01*
X002505Y018472D01*
X002686Y018292D01*
X002941Y018292D01*
X003117Y018468D02*
X004952Y018468D01*
X004833Y018586D02*
X003122Y018586D01*
X003122Y018705D02*
X004715Y018705D01*
X004401Y018823D02*
X004179Y018823D01*
X003861Y018823D02*
X003026Y018823D01*
X002854Y018942D02*
X003743Y018942D01*
X003712Y019060D02*
X002735Y019060D01*
X002617Y019179D02*
X003712Y019179D01*
X003782Y019297D02*
X002498Y019297D01*
X002445Y019416D02*
X004090Y019416D01*
X004206Y019534D02*
X002445Y019534D01*
X002445Y019653D02*
X004321Y019653D01*
X004436Y019771D02*
X002445Y019771D01*
X002445Y019890D02*
X004552Y019890D01*
X004667Y020008D02*
X002445Y020008D01*
X002445Y020127D02*
X004782Y020127D01*
X004898Y020245D02*
X002445Y020245D01*
X002445Y020364D02*
X005013Y020364D01*
X005129Y020482D02*
X002445Y020482D01*
X002445Y020601D02*
X005244Y020601D01*
X005359Y020719D02*
X002445Y020719D01*
X002445Y020838D02*
X005475Y020838D01*
X005590Y020956D02*
X002445Y020956D01*
X002445Y021075D02*
X005706Y021075D01*
X005821Y021193D02*
X002445Y021193D01*
X002445Y021312D02*
X005936Y021312D01*
X006052Y021430D02*
X002445Y021430D01*
X002445Y021549D02*
X006167Y021549D01*
X006282Y021667D02*
X002445Y021667D01*
X002445Y021786D02*
X006296Y021786D01*
X006319Y021904D02*
X002445Y021904D01*
X002445Y022023D02*
X006437Y022023D01*
X006604Y021754D02*
X004020Y019100D01*
X004565Y019416D02*
X006479Y019416D01*
X006597Y019534D02*
X004680Y019534D01*
X004795Y019653D02*
X006610Y019653D01*
X006623Y019640D02*
X007004Y019640D01*
X007274Y019909D01*
X007274Y020291D01*
X007004Y020560D01*
X006623Y020560D01*
X006354Y020291D01*
X006354Y019909D01*
X006623Y019640D01*
X006492Y019771D02*
X004911Y019771D01*
X005026Y019890D02*
X006373Y019890D01*
X006354Y020008D02*
X005142Y020008D01*
X005257Y020127D02*
X006354Y020127D01*
X006354Y020245D02*
X005372Y020245D01*
X005488Y020364D02*
X006427Y020364D01*
X006545Y020482D02*
X005603Y020482D01*
X005719Y020601D02*
X015877Y020601D01*
X015936Y020542D02*
X016191Y020542D01*
X016372Y020722D01*
X016372Y020978D01*
X016334Y021016D01*
X016334Y021684D01*
X016372Y021722D01*
X016372Y021978D01*
X016191Y022158D01*
X015936Y022158D01*
X015755Y021978D01*
X015755Y021722D01*
X015794Y021684D01*
X015794Y021016D01*
X015755Y020978D01*
X015755Y020722D01*
X015936Y020542D01*
X015759Y020719D02*
X005834Y020719D01*
X005949Y020838D02*
X015755Y020838D01*
X015755Y020956D02*
X006065Y020956D01*
X006180Y021075D02*
X015794Y021075D01*
X015794Y021193D02*
X006295Y021193D01*
X006411Y021312D02*
X015794Y021312D01*
X015794Y021430D02*
X006526Y021430D01*
X006835Y021549D02*
X015794Y021549D01*
X015794Y021667D02*
X006912Y021667D01*
X006912Y021786D02*
X015755Y021786D01*
X015755Y021904D02*
X006889Y021904D01*
X006771Y022023D02*
X015800Y022023D01*
X015919Y022141D02*
X002483Y022141D01*
X002483Y022260D02*
X016816Y022260D01*
X016816Y022378D02*
X002478Y022378D01*
X002360Y022497D02*
X016816Y022497D01*
X016816Y022615D02*
X001814Y022615D01*
X001814Y022497D02*
X001990Y022497D01*
X001871Y022378D02*
X001814Y022378D01*
X001814Y022260D02*
X001867Y022260D01*
X001867Y022141D02*
X001814Y022141D01*
X001814Y022023D02*
X001905Y022023D01*
X001905Y021904D02*
X001814Y021904D01*
X001814Y021786D02*
X001905Y021786D01*
X001905Y021667D02*
X001814Y021667D01*
X001814Y021549D02*
X001905Y021549D01*
X001905Y021430D02*
X001814Y021430D01*
X001814Y021312D02*
X001905Y021312D01*
X001905Y021193D02*
X001814Y021193D01*
X001814Y021075D02*
X001905Y021075D01*
X001905Y020956D02*
X001814Y020956D01*
X001814Y020838D02*
X001905Y020838D01*
X001905Y020719D02*
X001814Y020719D01*
X001814Y020601D02*
X001905Y020601D01*
X001905Y020482D02*
X001814Y020482D01*
X001814Y020364D02*
X001905Y020364D01*
X001905Y020245D02*
X001814Y020245D01*
X001814Y020127D02*
X001905Y020127D01*
X001905Y020008D02*
X001814Y020008D01*
X001814Y019890D02*
X001905Y019890D01*
X001905Y019771D02*
X001814Y019771D01*
X001814Y019653D02*
X001905Y019653D01*
X001905Y019534D02*
X001814Y019534D01*
X001814Y019416D02*
X001905Y019416D01*
X001905Y019297D02*
X001814Y019297D01*
X001814Y019179D02*
X001907Y019179D01*
X001972Y019060D02*
X001814Y019060D01*
X001814Y018942D02*
X002090Y018942D01*
X002209Y018823D02*
X001814Y018823D01*
X001814Y018705D02*
X002327Y018705D01*
X002446Y018586D02*
X001814Y018586D01*
X001814Y018468D02*
X002510Y018468D01*
X002629Y018349D02*
X001814Y018349D01*
X001814Y018231D02*
X006354Y018231D01*
X006354Y018112D02*
X001814Y018112D01*
X001814Y017994D02*
X006354Y017994D01*
X006388Y017875D02*
X001814Y017875D01*
X001814Y017757D02*
X006506Y017757D01*
X007187Y018823D02*
X007440Y018823D01*
X007354Y018942D02*
X007274Y018942D01*
X007274Y019060D02*
X007354Y019060D01*
X007354Y019179D02*
X007274Y019179D01*
X007267Y019297D02*
X007360Y019297D01*
X007479Y019416D02*
X007149Y019416D01*
X007030Y019534D02*
X007597Y019534D01*
X007610Y019653D02*
X007017Y019653D01*
X007135Y019771D02*
X007492Y019771D01*
X007373Y019890D02*
X007254Y019890D01*
X007274Y020008D02*
X007354Y020008D01*
X007354Y020127D02*
X007274Y020127D01*
X007274Y020245D02*
X007354Y020245D01*
X007427Y020364D02*
X007201Y020364D01*
X007082Y020482D02*
X007545Y020482D01*
X008082Y020482D02*
X016816Y020482D01*
X016816Y020601D02*
X016250Y020601D01*
X016368Y020719D02*
X016816Y020719D01*
X016816Y020838D02*
X016372Y020838D01*
X016372Y020956D02*
X016816Y020956D01*
X016816Y021075D02*
X016334Y021075D01*
X016334Y021193D02*
X016816Y021193D01*
X016816Y021312D02*
X016334Y021312D01*
X016334Y021430D02*
X016816Y021430D01*
X016816Y021549D02*
X016334Y021549D01*
X016334Y021667D02*
X016816Y021667D01*
X016816Y021786D02*
X016372Y021786D01*
X016372Y021904D02*
X016816Y021904D01*
X016816Y022023D02*
X016327Y022023D01*
X016208Y022141D02*
X016816Y022141D01*
X016816Y022734D02*
X001814Y022734D01*
X001814Y022852D02*
X016816Y022852D01*
X016816Y022971D02*
X001814Y022971D01*
X001814Y023089D02*
X016816Y023089D01*
X016816Y023208D02*
X001814Y023208D01*
X001814Y023326D02*
X016816Y023326D01*
X019153Y020940D02*
X019153Y020660D01*
X019153Y020940D02*
X019814Y021600D01*
X026314Y021600D01*
X026814Y021100D01*
X027270Y020600D02*
X020814Y020600D01*
X020064Y019850D01*
X019814Y019850D01*
X019814Y020350D02*
X019814Y020600D01*
X020314Y021100D01*
X025814Y021100D01*
X027270Y020600D02*
X028558Y021887D01*
X028558Y025045D01*
X027802Y025801D01*
X027636Y025801D01*
X027006Y025801D01*
X026629Y026179D01*
X026937Y026170D02*
X032224Y026170D01*
X032224Y026052D02*
X027821Y026052D01*
X027764Y026109D02*
X027509Y026109D01*
X027371Y025971D01*
X027077Y025971D01*
X026937Y026111D01*
X026937Y026306D01*
X026756Y026487D01*
X026501Y026487D01*
X026320Y026306D01*
X026320Y026051D01*
X026501Y025871D01*
X026696Y025871D01*
X026836Y025730D01*
X026936Y025631D01*
X027371Y025631D01*
X027509Y025493D01*
X027764Y025493D01*
X027817Y025545D01*
X028388Y024974D01*
X028388Y023353D01*
X025740Y023353D01*
X025739Y023354D01*
X025739Y024855D01*
X025640Y024955D01*
X025350Y025245D01*
X025250Y025345D01*
X023420Y025345D01*
X021991Y023916D01*
X021892Y023816D01*
X021892Y023752D01*
X021753Y023613D01*
X021753Y023358D01*
X021759Y023353D01*
X020450Y023353D01*
X020569Y023471D01*
X020569Y023727D01*
X020495Y023800D02*
X021892Y023800D01*
X021994Y023919D02*
X020430Y023919D01*
X020430Y024037D02*
X022113Y024037D01*
X022231Y024156D02*
X020430Y024156D01*
X020430Y024274D02*
X022350Y024274D01*
X022468Y024393D02*
X020430Y024393D01*
X020430Y024511D02*
X022587Y024511D01*
X022705Y024630D02*
X020430Y024630D01*
X020430Y024748D02*
X021923Y024748D01*
X021934Y024737D02*
X022189Y024737D01*
X022327Y024875D01*
X022522Y024875D01*
X024730Y027084D01*
X027238Y027084D01*
X027880Y027725D01*
X028075Y027725D01*
X028256Y027905D01*
X028256Y028161D01*
X028075Y028341D01*
X027820Y028341D01*
X027639Y028161D01*
X027639Y027965D01*
X027097Y027424D01*
X024590Y027424D01*
X024490Y027324D01*
X022381Y025215D01*
X022327Y025215D01*
X022189Y025353D01*
X021934Y025353D01*
X021753Y025173D01*
X021753Y024917D01*
X021934Y024737D01*
X021804Y024867D02*
X020430Y024867D01*
X020430Y024985D02*
X021753Y024985D01*
X021753Y025104D02*
X020430Y025104D01*
X020430Y025222D02*
X021803Y025222D01*
X021922Y025341D02*
X020430Y025341D01*
X020430Y025459D02*
X022625Y025459D01*
X022507Y025341D02*
X022202Y025341D01*
X022320Y025222D02*
X022388Y025222D01*
X022451Y025045D02*
X024660Y027254D01*
X027168Y027254D01*
X027947Y028033D01*
X028179Y027829D02*
X032224Y027829D01*
X032224Y027711D02*
X027865Y027711D01*
X027747Y027592D02*
X032224Y027592D01*
X032224Y027474D02*
X027628Y027474D01*
X027510Y027355D02*
X032224Y027355D01*
X032224Y027237D02*
X027391Y027237D01*
X027273Y027118D02*
X032224Y027118D01*
X032224Y027000D02*
X024646Y027000D01*
X024528Y026881D02*
X032224Y026881D01*
X032224Y026763D02*
X024409Y026763D01*
X024291Y026644D02*
X032224Y026644D01*
X032224Y026526D02*
X024172Y026526D01*
X024054Y026407D02*
X026421Y026407D01*
X026320Y026289D02*
X023935Y026289D01*
X023817Y026170D02*
X026320Y026170D01*
X026320Y026052D02*
X023698Y026052D01*
X023580Y025933D02*
X026438Y025933D01*
X026752Y025815D02*
X023461Y025815D01*
X023343Y025696D02*
X026871Y025696D01*
X026996Y026052D02*
X027451Y026052D01*
X027764Y026109D02*
X027944Y025928D01*
X027944Y025898D01*
X027972Y025871D01*
X028728Y025115D01*
X028728Y023353D01*
X031506Y023353D01*
X031506Y025169D01*
X031368Y025307D01*
X031368Y025562D01*
X031548Y025743D01*
X031803Y025743D01*
X031984Y025562D01*
X031984Y025307D01*
X031846Y025169D01*
X031846Y023353D01*
X032224Y023353D01*
X032224Y029190D01*
X032104Y029070D01*
X031810Y028901D01*
X031483Y028813D01*
X031144Y028813D01*
X030817Y028901D01*
X030523Y029070D01*
X030284Y029310D01*
X030114Y029603D01*
X030027Y029931D01*
X030027Y030269D01*
X030114Y030597D01*
X030284Y030890D01*
X030494Y031100D01*
X003633Y031100D01*
X003843Y030890D01*
X004013Y030597D01*
X004100Y030269D01*
X004100Y029931D01*
X004013Y029603D01*
X003843Y029310D01*
X003604Y029070D01*
X003310Y028901D01*
X002983Y028813D01*
X002644Y028813D01*
X002317Y028901D01*
X002023Y029070D01*
X001814Y029280D01*
X001814Y029251D02*
X001843Y029251D01*
X001814Y029133D02*
X001961Y029133D01*
X001814Y029014D02*
X002121Y029014D01*
X002337Y028896D02*
X001814Y028896D01*
X001814Y028777D02*
X017415Y028777D01*
X017304Y028889D02*
X017602Y028590D01*
X017774Y028590D01*
X017774Y029060D01*
X017854Y029060D01*
X017854Y029140D01*
X018324Y029140D01*
X018324Y029311D01*
X018035Y029600D01*
X018324Y029889D01*
X018324Y030060D01*
X017854Y030060D01*
X017854Y030140D01*
X018324Y030140D01*
X018324Y030311D01*
X018025Y030610D01*
X017854Y030610D01*
X017854Y030140D01*
X017774Y030140D01*
X017774Y030610D01*
X017602Y030610D01*
X017304Y030311D01*
X017304Y030140D01*
X017774Y030140D01*
X017774Y030060D01*
X017854Y030060D01*
X017854Y029590D01*
X017854Y029140D01*
X017774Y029140D01*
X017774Y030060D01*
X017304Y030060D01*
X017304Y029889D01*
X017592Y029600D01*
X017304Y029311D01*
X017304Y029140D01*
X017774Y029140D01*
X017774Y029060D01*
X017304Y029060D01*
X017304Y028889D01*
X017304Y028896D02*
X003290Y028896D01*
X003506Y029014D02*
X017304Y029014D01*
X017304Y029251D02*
X003784Y029251D01*
X003878Y029370D02*
X017362Y029370D01*
X017480Y029488D02*
X003946Y029488D01*
X004013Y029607D02*
X017586Y029607D01*
X017467Y029725D02*
X004045Y029725D01*
X004077Y029844D02*
X017349Y029844D01*
X017304Y029962D02*
X004100Y029962D01*
X004100Y030081D02*
X017774Y030081D01*
X017854Y030081D02*
X018354Y030081D01*
X018354Y030199D02*
X018324Y030199D01*
X018354Y030291D02*
X018354Y029909D01*
X018623Y029640D01*
X019004Y029640D01*
X019274Y029909D01*
X019274Y030291D01*
X019004Y030560D01*
X018623Y030560D01*
X018354Y030291D01*
X018381Y030318D02*
X018317Y030318D01*
X018199Y030436D02*
X018499Y030436D01*
X018618Y030555D02*
X018080Y030555D01*
X017854Y030555D02*
X017774Y030555D01*
X017774Y030436D02*
X017854Y030436D01*
X017854Y030318D02*
X017774Y030318D01*
X017774Y030199D02*
X017854Y030199D01*
X017854Y029962D02*
X017774Y029962D01*
X017774Y029844D02*
X017854Y029844D01*
X017854Y029725D02*
X017774Y029725D01*
X017774Y029607D02*
X017854Y029607D01*
X017854Y029488D02*
X017774Y029488D01*
X017774Y029370D02*
X017854Y029370D01*
X017854Y029251D02*
X017774Y029251D01*
X017774Y029133D02*
X003666Y029133D01*
X004100Y030199D02*
X017304Y030199D01*
X017310Y030318D02*
X004087Y030318D01*
X004056Y030436D02*
X017428Y030436D01*
X017547Y030555D02*
X004024Y030555D01*
X003969Y030673D02*
X030159Y030673D01*
X030103Y030555D02*
X025010Y030555D01*
X025004Y030560D02*
X024623Y030560D01*
X024354Y030291D01*
X024354Y029909D01*
X024623Y029640D01*
X025004Y029640D01*
X025274Y029909D01*
X025274Y030291D01*
X025004Y030560D01*
X025128Y030436D02*
X030071Y030436D01*
X030040Y030318D02*
X025247Y030318D01*
X025274Y030199D02*
X030027Y030199D01*
X030027Y030081D02*
X025274Y030081D01*
X025274Y029962D02*
X030027Y029962D01*
X030050Y029844D02*
X025208Y029844D01*
X025089Y029725D02*
X030082Y029725D01*
X030114Y029607D02*
X023041Y029607D01*
X023035Y029600D02*
X023324Y029889D01*
X023324Y030060D01*
X022854Y030060D01*
X022854Y030140D01*
X023324Y030140D01*
X023324Y030311D01*
X023025Y030610D01*
X022854Y030610D01*
X022854Y030140D01*
X022774Y030140D01*
X022774Y030610D01*
X022602Y030610D01*
X022304Y030311D01*
X022304Y030140D01*
X022774Y030140D01*
X022774Y030060D01*
X022854Y030060D01*
X022854Y029590D01*
X022854Y029140D01*
X023324Y029140D01*
X023324Y029311D01*
X023035Y029600D01*
X023147Y029488D02*
X023551Y029488D01*
X023433Y029370D02*
X023265Y029370D01*
X023324Y029251D02*
X023354Y029251D01*
X023354Y029133D02*
X022854Y029133D01*
X022854Y029140D02*
X022854Y029060D01*
X023324Y029060D01*
X023324Y028889D01*
X023025Y028590D01*
X022854Y028590D01*
X022854Y029060D01*
X022774Y029060D01*
X022774Y028590D01*
X022602Y028590D01*
X022304Y028889D01*
X022304Y029060D01*
X022774Y029060D01*
X022774Y029140D01*
X022774Y030060D01*
X022304Y030060D01*
X022304Y029889D01*
X022592Y029600D01*
X022304Y029311D01*
X022304Y029140D01*
X022774Y029140D01*
X022854Y029140D01*
X022774Y029133D02*
X022274Y029133D01*
X022274Y029251D02*
X022304Y029251D01*
X022274Y029291D02*
X022274Y028909D01*
X022004Y028640D01*
X021623Y028640D01*
X021354Y028909D01*
X021354Y029291D01*
X021623Y029560D01*
X022004Y029560D01*
X022274Y029291D01*
X022195Y029370D02*
X022362Y029370D01*
X022480Y029488D02*
X022076Y029488D01*
X022004Y029640D02*
X022274Y029909D01*
X022274Y030291D01*
X022004Y030560D01*
X021623Y030560D01*
X021354Y030291D01*
X021354Y029909D01*
X021623Y029640D01*
X022004Y029640D01*
X022089Y029725D02*
X022467Y029725D01*
X022349Y029844D02*
X022208Y029844D01*
X022274Y029962D02*
X022304Y029962D01*
X022274Y030081D02*
X022774Y030081D01*
X022854Y030081D02*
X023354Y030081D01*
X023354Y030199D02*
X023324Y030199D01*
X023354Y030291D02*
X023354Y029909D01*
X023623Y029640D01*
X024004Y029640D01*
X024274Y029909D01*
X024274Y030291D01*
X024004Y030560D01*
X023623Y030560D01*
X023354Y030291D01*
X023381Y030318D02*
X023317Y030318D01*
X023199Y030436D02*
X023499Y030436D01*
X023618Y030555D02*
X023080Y030555D01*
X022854Y030555D02*
X022774Y030555D01*
X022774Y030436D02*
X022854Y030436D01*
X022854Y030318D02*
X022774Y030318D01*
X022774Y030199D02*
X022854Y030199D01*
X022854Y029962D02*
X022774Y029962D01*
X022774Y029844D02*
X022854Y029844D01*
X022854Y029725D02*
X022774Y029725D01*
X022774Y029607D02*
X022854Y029607D01*
X022854Y029488D02*
X022774Y029488D01*
X022774Y029370D02*
X022854Y029370D01*
X022854Y029251D02*
X022774Y029251D01*
X022774Y029014D02*
X022854Y029014D01*
X022854Y028896D02*
X022774Y028896D01*
X022774Y028777D02*
X022854Y028777D01*
X022854Y028659D02*
X022774Y028659D01*
X022534Y028659D02*
X022023Y028659D01*
X022141Y028777D02*
X022415Y028777D01*
X022304Y028896D02*
X022260Y028896D01*
X022274Y029014D02*
X022304Y029014D01*
X022586Y029607D02*
X021041Y029607D01*
X021025Y029590D02*
X021324Y029889D01*
X021324Y030060D01*
X020854Y030060D01*
X020854Y030140D01*
X021324Y030140D01*
X021324Y030311D01*
X021025Y030610D01*
X020854Y030610D01*
X020854Y030140D01*
X020774Y030140D01*
X020774Y030610D01*
X020602Y030610D01*
X020304Y030311D01*
X020304Y030140D01*
X020774Y030140D01*
X020774Y030060D01*
X020854Y030060D01*
X020854Y029590D01*
X021025Y029590D01*
X021004Y029560D02*
X020623Y029560D01*
X020354Y029291D01*
X020354Y028909D01*
X020623Y028640D01*
X021004Y028640D01*
X021274Y028909D01*
X021274Y029291D01*
X021004Y029560D01*
X021076Y029488D02*
X021551Y029488D01*
X021433Y029370D02*
X021195Y029370D01*
X021274Y029251D02*
X021354Y029251D01*
X021354Y029133D02*
X021274Y029133D01*
X021274Y029014D02*
X021354Y029014D01*
X021367Y028896D02*
X021260Y028896D01*
X021141Y028777D02*
X021486Y028777D01*
X021604Y028659D02*
X021023Y028659D01*
X020604Y028659D02*
X020023Y028659D01*
X020004Y028640D02*
X020274Y028909D01*
X020274Y029291D01*
X020004Y029560D01*
X019623Y029560D01*
X019354Y029291D01*
X019354Y028909D01*
X019623Y028640D01*
X020004Y028640D01*
X020141Y028777D02*
X020486Y028777D01*
X020367Y028896D02*
X020260Y028896D01*
X020274Y029014D02*
X020354Y029014D01*
X020354Y029133D02*
X020274Y029133D01*
X020274Y029251D02*
X020354Y029251D01*
X020433Y029370D02*
X020195Y029370D01*
X020076Y029488D02*
X020551Y029488D01*
X020602Y029590D02*
X020774Y029590D01*
X020774Y030060D01*
X020304Y030060D01*
X020304Y029889D01*
X020602Y029590D01*
X020586Y029607D02*
X018041Y029607D01*
X018147Y029488D02*
X018551Y029488D01*
X018623Y029560D02*
X018354Y029291D01*
X018354Y028909D01*
X018623Y028640D01*
X019004Y028640D01*
X019274Y028909D01*
X019274Y029291D01*
X019004Y029560D01*
X018623Y029560D01*
X018538Y029725D02*
X018160Y029725D01*
X018278Y029844D02*
X018419Y029844D01*
X018354Y029962D02*
X018324Y029962D01*
X018265Y029370D02*
X018433Y029370D01*
X018354Y029251D02*
X018324Y029251D01*
X018354Y029133D02*
X017854Y029133D01*
X017854Y029060D02*
X018324Y029060D01*
X018324Y028889D01*
X018025Y028590D01*
X017854Y028590D01*
X017854Y029060D01*
X017854Y029014D02*
X017774Y029014D01*
X017774Y028896D02*
X017854Y028896D01*
X017854Y028777D02*
X017774Y028777D01*
X017774Y028659D02*
X017854Y028659D01*
X018093Y028659D02*
X018604Y028659D01*
X018486Y028777D02*
X018212Y028777D01*
X018324Y028896D02*
X018367Y028896D01*
X018354Y029014D02*
X018324Y029014D01*
X017534Y028659D02*
X001814Y028659D01*
X001814Y028540D02*
X023013Y028540D01*
X023093Y028659D02*
X023132Y028659D01*
X023212Y028777D02*
X023250Y028777D01*
X023324Y028896D02*
X023367Y028896D01*
X023354Y029014D02*
X023324Y029014D01*
X023814Y029100D02*
X022496Y027782D01*
X021245Y027782D01*
X020260Y026798D01*
X020260Y023599D01*
X020026Y023800D02*
X001814Y023800D01*
X001814Y023682D02*
X019952Y023682D01*
X019952Y023563D02*
X001814Y023563D01*
X001814Y023445D02*
X019979Y023445D01*
X020090Y023919D02*
X001814Y023919D01*
X001814Y024037D02*
X020090Y024037D01*
X020090Y024156D02*
X001814Y024156D01*
X001814Y024274D02*
X020090Y024274D01*
X020090Y024393D02*
X001814Y024393D01*
X001814Y024511D02*
X020090Y024511D01*
X020090Y024630D02*
X001814Y024630D01*
X001814Y024748D02*
X020090Y024748D01*
X020090Y024867D02*
X001814Y024867D01*
X001814Y024985D02*
X020090Y024985D01*
X020090Y025104D02*
X001814Y025104D01*
X001814Y025222D02*
X020090Y025222D01*
X020090Y025341D02*
X001814Y025341D01*
X001814Y025459D02*
X020090Y025459D01*
X020090Y025578D02*
X001814Y025578D01*
X001814Y025696D02*
X020090Y025696D01*
X020090Y025815D02*
X001814Y025815D01*
X001814Y025933D02*
X020090Y025933D01*
X020090Y026052D02*
X001814Y026052D01*
X001814Y026170D02*
X020090Y026170D01*
X020090Y026289D02*
X001814Y026289D01*
X001814Y026407D02*
X020090Y026407D01*
X020090Y026526D02*
X001814Y026526D01*
X001814Y026644D02*
X020090Y026644D01*
X020090Y026763D02*
X001814Y026763D01*
X001814Y026881D02*
X020103Y026881D01*
X020222Y027000D02*
X001814Y027000D01*
X001814Y027118D02*
X020340Y027118D01*
X020459Y027237D02*
X001814Y027237D01*
X001814Y027355D02*
X020577Y027355D01*
X020696Y027474D02*
X001814Y027474D01*
X001814Y027592D02*
X020814Y027592D01*
X020933Y027711D02*
X001814Y027711D01*
X001814Y027829D02*
X021051Y027829D01*
X021170Y027948D02*
X001814Y027948D01*
X001814Y028066D02*
X022539Y028066D01*
X022658Y028185D02*
X001814Y028185D01*
X001814Y028303D02*
X022776Y028303D01*
X022895Y028422D02*
X001814Y028422D01*
X003900Y030792D02*
X030227Y030792D01*
X030304Y030910D02*
X003823Y030910D01*
X003705Y031029D02*
X030422Y031029D01*
X030181Y029488D02*
X025076Y029488D01*
X025004Y029560D02*
X024623Y029560D01*
X024354Y029291D01*
X024354Y028909D01*
X024623Y028640D01*
X025004Y028640D01*
X025274Y028909D01*
X025274Y029291D01*
X025004Y029560D01*
X025195Y029370D02*
X030249Y029370D01*
X030343Y029251D02*
X025274Y029251D01*
X025274Y029133D02*
X030461Y029133D01*
X030621Y029014D02*
X025274Y029014D01*
X025260Y028896D02*
X030837Y028896D01*
X031790Y028896D02*
X032224Y028896D01*
X032224Y029014D02*
X032006Y029014D01*
X032166Y029133D02*
X032224Y029133D01*
X032224Y028777D02*
X025141Y028777D01*
X025023Y028659D02*
X032224Y028659D01*
X032224Y028540D02*
X023494Y028540D01*
X023376Y028422D02*
X032224Y028422D01*
X032224Y028303D02*
X028113Y028303D01*
X028232Y028185D02*
X032224Y028185D01*
X032224Y028066D02*
X028256Y028066D01*
X028256Y027948D02*
X032224Y027948D01*
X032224Y026407D02*
X026836Y026407D01*
X026937Y026289D02*
X032224Y026289D01*
X032224Y025933D02*
X027940Y025933D01*
X028028Y025815D02*
X032224Y025815D01*
X032224Y025696D02*
X031850Y025696D01*
X031969Y025578D02*
X032224Y025578D01*
X032224Y025459D02*
X031984Y025459D01*
X031984Y025341D02*
X032224Y025341D01*
X032224Y025222D02*
X031899Y025222D01*
X031846Y025104D02*
X032224Y025104D01*
X032224Y024985D02*
X031846Y024985D01*
X031846Y024867D02*
X032224Y024867D01*
X032224Y024748D02*
X031846Y024748D01*
X031846Y024630D02*
X032224Y024630D01*
X032224Y024511D02*
X031846Y024511D01*
X031846Y024393D02*
X032224Y024393D01*
X032224Y024274D02*
X031846Y024274D01*
X031846Y024156D02*
X032224Y024156D01*
X032224Y024037D02*
X031846Y024037D01*
X031846Y023919D02*
X032224Y023919D01*
X032224Y023800D02*
X031846Y023800D01*
X031846Y023682D02*
X032224Y023682D01*
X032224Y023563D02*
X031846Y023563D01*
X031846Y023445D02*
X032224Y023445D01*
X031506Y023445D02*
X028728Y023445D01*
X028728Y023563D02*
X031506Y023563D01*
X031506Y023682D02*
X028728Y023682D01*
X028728Y023800D02*
X031506Y023800D01*
X031506Y023919D02*
X028728Y023919D01*
X028728Y024037D02*
X031506Y024037D01*
X031506Y024156D02*
X028728Y024156D01*
X028728Y024274D02*
X031506Y024274D01*
X031506Y024393D02*
X028728Y024393D01*
X028728Y024511D02*
X031506Y024511D01*
X031506Y024630D02*
X028728Y024630D01*
X028728Y024748D02*
X031506Y024748D01*
X031506Y024867D02*
X028728Y024867D01*
X028728Y024985D02*
X031506Y024985D01*
X031506Y025104D02*
X028728Y025104D01*
X028621Y025222D02*
X031453Y025222D01*
X031368Y025341D02*
X028502Y025341D01*
X028384Y025459D02*
X031368Y025459D01*
X031383Y025578D02*
X028265Y025578D01*
X028147Y025696D02*
X031501Y025696D01*
X031676Y025435D02*
X031676Y020509D01*
X028388Y023445D02*
X025739Y023445D01*
X025739Y023563D02*
X028388Y023563D01*
X028388Y023682D02*
X025739Y023682D01*
X025739Y023800D02*
X028388Y023800D01*
X028388Y023919D02*
X025739Y023919D01*
X025739Y024037D02*
X028388Y024037D01*
X028388Y024156D02*
X025739Y024156D01*
X025739Y024274D02*
X028388Y024274D01*
X028388Y024393D02*
X025739Y024393D01*
X025739Y024511D02*
X028388Y024511D01*
X028388Y024630D02*
X025739Y024630D01*
X025739Y024748D02*
X028388Y024748D01*
X028388Y024867D02*
X025728Y024867D01*
X025610Y024985D02*
X028377Y024985D01*
X028259Y025104D02*
X025491Y025104D01*
X025373Y025222D02*
X028140Y025222D01*
X028022Y025341D02*
X025254Y025341D01*
X025180Y025175D02*
X025569Y024785D01*
X025569Y023126D01*
X025551Y023107D01*
X023564Y022100D02*
X021514Y022100D01*
X020967Y022647D01*
X020542Y023445D02*
X021753Y023445D01*
X021753Y023563D02*
X020569Y023563D01*
X022200Y024748D02*
X022824Y024748D01*
X022942Y024867D02*
X022319Y024867D01*
X022451Y025045D02*
X022062Y025045D01*
X022632Y024985D02*
X023061Y024985D01*
X023179Y025104D02*
X022750Y025104D01*
X022869Y025222D02*
X023298Y025222D01*
X023416Y025341D02*
X022987Y025341D01*
X023106Y025459D02*
X027903Y025459D01*
X027424Y025578D02*
X023224Y025578D01*
X022981Y025815D02*
X020430Y025815D01*
X020430Y025933D02*
X023099Y025933D01*
X023218Y026052D02*
X020430Y026052D01*
X020430Y026170D02*
X023336Y026170D01*
X023455Y026289D02*
X020430Y026289D01*
X020430Y026407D02*
X023573Y026407D01*
X023692Y026526D02*
X020430Y026526D01*
X020430Y026644D02*
X023810Y026644D01*
X023929Y026763D02*
X020466Y026763D01*
X020584Y026881D02*
X024047Y026881D01*
X024166Y027000D02*
X020703Y027000D01*
X020821Y027118D02*
X024284Y027118D01*
X024403Y027237D02*
X020940Y027237D01*
X021058Y027355D02*
X024521Y027355D01*
X024604Y028659D02*
X024023Y028659D01*
X024141Y028777D02*
X024486Y028777D01*
X024367Y028896D02*
X024260Y028896D01*
X024274Y029014D02*
X024354Y029014D01*
X024354Y029133D02*
X024274Y029133D01*
X024274Y029251D02*
X024354Y029251D01*
X024433Y029370D02*
X024195Y029370D01*
X024076Y029488D02*
X024551Y029488D01*
X024538Y029725D02*
X024089Y029725D01*
X024208Y029844D02*
X024419Y029844D01*
X024354Y029962D02*
X024274Y029962D01*
X024274Y030081D02*
X024354Y030081D01*
X024354Y030199D02*
X024274Y030199D01*
X024247Y030318D02*
X024381Y030318D01*
X024499Y030436D02*
X024128Y030436D01*
X024010Y030555D02*
X024618Y030555D01*
X023538Y029725D02*
X023160Y029725D01*
X023278Y029844D02*
X023419Y029844D01*
X023354Y029962D02*
X023324Y029962D01*
X022547Y030555D02*
X022010Y030555D01*
X022128Y030436D02*
X022428Y030436D01*
X022310Y030318D02*
X022247Y030318D01*
X022274Y030199D02*
X022304Y030199D01*
X021618Y030555D02*
X021080Y030555D01*
X021199Y030436D02*
X021499Y030436D01*
X021381Y030318D02*
X021317Y030318D01*
X021324Y030199D02*
X021354Y030199D01*
X021354Y030081D02*
X020854Y030081D01*
X020774Y030081D02*
X020274Y030081D01*
X020274Y030199D02*
X020304Y030199D01*
X020274Y030291D02*
X020004Y030560D01*
X019623Y030560D01*
X019354Y030291D01*
X019354Y029909D01*
X019623Y029640D01*
X020004Y029640D01*
X020274Y029909D01*
X020274Y030291D01*
X020247Y030318D02*
X020310Y030318D01*
X020428Y030436D02*
X020128Y030436D01*
X020010Y030555D02*
X020547Y030555D01*
X020774Y030555D02*
X020854Y030555D01*
X020854Y030436D02*
X020774Y030436D01*
X020774Y030318D02*
X020854Y030318D01*
X020854Y030199D02*
X020774Y030199D01*
X020774Y029962D02*
X020854Y029962D01*
X020854Y029844D02*
X020774Y029844D01*
X020774Y029725D02*
X020854Y029725D01*
X020854Y029607D02*
X020774Y029607D01*
X020467Y029725D02*
X020089Y029725D01*
X020208Y029844D02*
X020349Y029844D01*
X020304Y029962D02*
X020274Y029962D01*
X019538Y029725D02*
X019089Y029725D01*
X019208Y029844D02*
X019419Y029844D01*
X019354Y029962D02*
X019274Y029962D01*
X019274Y030081D02*
X019354Y030081D01*
X019354Y030199D02*
X019274Y030199D01*
X019247Y030318D02*
X019381Y030318D01*
X019499Y030436D02*
X019128Y030436D01*
X019010Y030555D02*
X019618Y030555D01*
X019551Y029488D02*
X019076Y029488D01*
X019195Y029370D02*
X019433Y029370D01*
X019354Y029251D02*
X019274Y029251D01*
X019274Y029133D02*
X019354Y029133D01*
X019354Y029014D02*
X019274Y029014D01*
X019260Y028896D02*
X019367Y028896D01*
X019486Y028777D02*
X019141Y028777D01*
X019023Y028659D02*
X019604Y028659D01*
X021160Y029725D02*
X021538Y029725D01*
X021419Y029844D02*
X021278Y029844D01*
X021324Y029962D02*
X021354Y029962D01*
X023257Y028303D02*
X027782Y028303D01*
X027663Y028185D02*
X023139Y028185D01*
X023020Y028066D02*
X027639Y028066D01*
X027621Y027948D02*
X022902Y027948D01*
X022783Y027829D02*
X027503Y027829D01*
X027384Y027711D02*
X022665Y027711D01*
X021295Y027592D02*
X027266Y027592D01*
X027147Y027474D02*
X021177Y027474D01*
X020430Y025696D02*
X022862Y025696D01*
X022744Y025578D02*
X020430Y025578D01*
X016200Y019416D02*
X013978Y019416D01*
X011033Y024583D02*
X010910Y024628D01*
X004211Y020131D02*
X003965Y019880D01*
X028644Y026179D02*
X028770Y026053D01*
X028770Y025927D01*
X031542Y026179D02*
X031542Y026557D01*
D14*
X017814Y013100D02*
X017564Y013100D01*
X017240Y008527D02*
X016980Y008527D01*
X007815Y001326D02*
X007692Y001326D01*
X003817Y004596D02*
X003814Y005100D01*
X003814Y007100D02*
X003314Y007100D01*
X003814Y018100D02*
X004064Y018100D01*
X016569Y018063D02*
X016569Y018289D01*
X030226Y009696D02*
X030226Y009450D01*
D15*
X031390Y009458D02*
X026920Y009458D01*
X027018Y009556D02*
X031390Y009556D01*
X031390Y009655D02*
X027117Y009655D01*
X027215Y009753D02*
X031390Y009753D01*
X031390Y009852D02*
X027314Y009852D01*
X027412Y009950D02*
X031390Y009950D01*
X031390Y010049D02*
X027511Y010049D01*
X027609Y010147D02*
X031390Y010147D01*
X031390Y010246D02*
X027708Y010246D01*
X027766Y010304D02*
X027941Y010304D01*
X028116Y010478D01*
X028116Y010725D01*
X027941Y010900D01*
X027694Y010900D01*
X027519Y010725D01*
X027519Y010509D01*
X026337Y009327D01*
X024468Y009327D01*
X024440Y009356D01*
X024245Y009356D01*
X024164Y009437D01*
X024491Y009764D01*
X024521Y009735D01*
X024768Y009735D01*
X024942Y009910D01*
X024942Y010157D01*
X024768Y010331D01*
X024521Y010331D01*
X024346Y010157D01*
X024346Y010071D01*
X024008Y009733D01*
X022262Y009733D01*
X022399Y009870D01*
X022399Y010117D01*
X022227Y010290D01*
X022271Y010334D01*
X025025Y010334D01*
X026195Y011503D01*
X027556Y011503D01*
X027694Y011365D01*
X027941Y011365D01*
X028116Y011540D01*
X028116Y011786D01*
X027941Y011961D01*
X027694Y011961D01*
X027556Y011823D01*
X026062Y011823D01*
X025969Y011729D01*
X024893Y010654D01*
X022244Y010654D01*
X022286Y010696D01*
X024640Y010696D01*
X025226Y011282D01*
X025226Y014725D01*
X025364Y014863D01*
X025364Y015110D01*
X025189Y015285D01*
X024942Y015285D01*
X024767Y015110D01*
X024767Y014863D01*
X024906Y014725D01*
X024906Y011414D01*
X024507Y011016D01*
X024342Y011016D01*
X024403Y011077D01*
X024655Y011329D01*
X024820Y011329D01*
X024906Y011428D02*
X024655Y011428D01*
X024655Y011526D02*
X024906Y011526D01*
X024906Y011625D02*
X024655Y011625D01*
X024655Y011723D02*
X024906Y011723D01*
X024906Y011822D02*
X024655Y011822D01*
X024655Y011920D02*
X024906Y011920D01*
X024906Y012019D02*
X024655Y012019D01*
X024655Y012117D02*
X024906Y012117D01*
X024906Y012216D02*
X024655Y012216D01*
X024655Y012314D02*
X024906Y012314D01*
X024906Y012413D02*
X024655Y012413D01*
X024655Y012511D02*
X024906Y012511D01*
X024906Y012610D02*
X024655Y012610D01*
X024655Y012708D02*
X024906Y012708D01*
X024906Y012807D02*
X024655Y012807D01*
X024655Y012905D02*
X024906Y012905D01*
X024906Y013004D02*
X024655Y013004D01*
X024655Y013102D02*
X024906Y013102D01*
X024906Y013201D02*
X024655Y013201D01*
X024655Y013299D02*
X024906Y013299D01*
X024906Y013398D02*
X024655Y013398D01*
X024655Y013496D02*
X024906Y013496D01*
X024906Y013595D02*
X024655Y013595D01*
X024655Y013693D02*
X024906Y013693D01*
X024906Y013792D02*
X024655Y013792D01*
X024655Y013890D02*
X024906Y013890D01*
X024906Y013989D02*
X024655Y013989D01*
X024655Y014087D02*
X024906Y014087D01*
X024906Y014186D02*
X024655Y014186D01*
X024655Y014284D02*
X024906Y014284D01*
X024906Y014383D02*
X024655Y014383D01*
X024655Y014481D02*
X024906Y014481D01*
X024906Y014580D02*
X024655Y014580D01*
X024655Y014678D02*
X024906Y014678D01*
X024854Y014777D02*
X024655Y014777D01*
X024655Y014875D02*
X024767Y014875D01*
X024767Y014974D02*
X024655Y014974D01*
X024655Y015072D02*
X024767Y015072D01*
X024743Y015171D02*
X024828Y015171D01*
X024793Y015221D02*
X024655Y015083D01*
X024655Y011329D01*
X024722Y011231D02*
X024556Y011231D01*
X024623Y011132D02*
X024458Y011132D01*
X024525Y011034D02*
X024359Y011034D01*
X024682Y010738D02*
X024977Y010738D01*
X025076Y010837D02*
X024780Y010837D01*
X024879Y010935D02*
X025174Y010935D01*
X025273Y011034D02*
X024977Y011034D01*
X025076Y011132D02*
X025371Y011132D01*
X025470Y011231D02*
X025174Y011231D01*
X025226Y011329D02*
X025568Y011329D01*
X025667Y011428D02*
X025226Y011428D01*
X025226Y011526D02*
X025765Y011526D01*
X025864Y011625D02*
X025226Y011625D01*
X025226Y011723D02*
X025962Y011723D01*
X026061Y011822D02*
X025226Y011822D01*
X025226Y011920D02*
X027653Y011920D01*
X027982Y011920D02*
X031390Y011920D01*
X031390Y011822D02*
X028081Y011822D01*
X028116Y011723D02*
X031390Y011723D01*
X031390Y011625D02*
X028116Y011625D01*
X028102Y011526D02*
X031390Y011526D01*
X031390Y011428D02*
X028004Y011428D01*
X027631Y011428D02*
X026119Y011428D01*
X026021Y011329D02*
X031390Y011329D01*
X031390Y011231D02*
X025922Y011231D01*
X025824Y011132D02*
X031390Y011132D01*
X031390Y011034D02*
X025725Y011034D01*
X025627Y010935D02*
X031390Y010935D01*
X031390Y010837D02*
X028005Y010837D01*
X028103Y010738D02*
X031390Y010738D01*
X031390Y010640D02*
X028116Y010640D01*
X028116Y010541D02*
X031390Y010541D01*
X031390Y010443D02*
X028080Y010443D01*
X027981Y010344D02*
X031390Y010344D01*
X031390Y009359D02*
X026821Y009359D01*
X026790Y009327D02*
X027766Y010304D01*
X027519Y010541D02*
X025233Y010541D01*
X025331Y010640D02*
X027519Y010640D01*
X027532Y010738D02*
X025430Y010738D01*
X025528Y010837D02*
X027630Y010837D01*
X027452Y010443D02*
X025134Y010443D01*
X025036Y010344D02*
X027354Y010344D01*
X027255Y010246D02*
X024853Y010246D01*
X024942Y010147D02*
X027157Y010147D01*
X027058Y010049D02*
X024942Y010049D01*
X024942Y009950D02*
X026960Y009950D01*
X026861Y009852D02*
X024884Y009852D01*
X024786Y009753D02*
X026763Y009753D01*
X026664Y009655D02*
X024382Y009655D01*
X024480Y009753D02*
X024503Y009753D01*
X024283Y009556D02*
X026566Y009556D01*
X026467Y009458D02*
X024185Y009458D01*
X024241Y009359D02*
X026369Y009359D01*
X026790Y009327D02*
X031390Y009327D01*
X031390Y015404D01*
X031106Y015688D01*
X021700Y015688D01*
X021789Y015599D01*
X021789Y015353D01*
X021614Y015178D01*
X021420Y015178D01*
X021420Y014977D01*
X021245Y014802D01*
X021137Y014802D01*
X021741Y014198D01*
X021983Y014198D01*
X022158Y014024D01*
X022158Y013777D01*
X022020Y013639D01*
X022020Y011830D01*
X021862Y011672D01*
X021862Y011477D01*
X021687Y011302D01*
X021440Y011302D01*
X021265Y011477D01*
X021265Y011723D01*
X020572Y011723D01*
X020572Y011675D02*
X020572Y013870D01*
X020710Y014008D01*
X020710Y014255D01*
X020535Y014430D01*
X020288Y014430D01*
X020114Y014255D01*
X020114Y014040D01*
X019899Y014040D01*
X019724Y013865D01*
X019724Y013618D01*
X019862Y013480D01*
X019862Y011869D01*
X019834Y011841D01*
X019639Y011841D01*
X019503Y011705D01*
X019404Y011803D01*
X019541Y011939D01*
X019541Y012186D01*
X019366Y012361D01*
X019119Y012361D01*
X018971Y012213D01*
X017894Y012213D01*
X017338Y012769D01*
X017244Y012862D01*
X017185Y012862D01*
X017185Y013322D01*
X019309Y013322D01*
X019439Y013452D01*
X019533Y013546D01*
X019533Y013935D01*
X020088Y014491D01*
X020995Y014491D01*
X021562Y013925D01*
X021562Y013777D01*
X021700Y013639D01*
X021700Y011963D01*
X021635Y011898D01*
X021440Y011898D01*
X021265Y011723D01*
X021265Y011625D02*
X020580Y011625D01*
X020580Y011666D02*
X020572Y011675D01*
X020580Y011666D02*
X020580Y011419D01*
X020421Y011260D01*
X021657Y011260D01*
X023370Y012973D01*
X023370Y013504D01*
X023232Y013642D01*
X023232Y013889D01*
X023407Y014063D01*
X023654Y014063D01*
X023828Y013889D01*
X023828Y013642D01*
X023690Y013504D01*
X023690Y012841D01*
X022153Y011303D01*
X023677Y011303D01*
X023567Y011414D01*
X023567Y011660D01*
X023741Y011835D01*
X023937Y011835D01*
X023957Y011855D01*
X023957Y015026D01*
X023937Y015046D01*
X023741Y015046D01*
X023567Y015221D01*
X023567Y015468D01*
X023741Y015642D01*
X023988Y015642D01*
X024163Y015468D01*
X024163Y015272D01*
X024183Y015252D01*
X024197Y015239D01*
X024197Y015468D01*
X024371Y015642D01*
X024618Y015642D01*
X024793Y015468D01*
X024793Y015221D01*
X024793Y015269D02*
X024926Y015269D01*
X024793Y015368D02*
X031390Y015368D01*
X031390Y015269D02*
X025205Y015269D01*
X025303Y015171D02*
X031390Y015171D01*
X031390Y015072D02*
X025364Y015072D01*
X025364Y014974D02*
X031390Y014974D01*
X031390Y014875D02*
X025364Y014875D01*
X025277Y014777D02*
X031390Y014777D01*
X031390Y014678D02*
X025226Y014678D01*
X025226Y014580D02*
X031390Y014580D01*
X031390Y014481D02*
X025226Y014481D01*
X025226Y014383D02*
X031390Y014383D01*
X031390Y014284D02*
X025226Y014284D01*
X025226Y014186D02*
X031390Y014186D01*
X031390Y014087D02*
X025226Y014087D01*
X025226Y013989D02*
X031390Y013989D01*
X031390Y013890D02*
X025226Y013890D01*
X025226Y013792D02*
X031390Y013792D01*
X031390Y013693D02*
X025226Y013693D01*
X025226Y013595D02*
X031390Y013595D01*
X031390Y013496D02*
X025226Y013496D01*
X025226Y013398D02*
X031390Y013398D01*
X031390Y013299D02*
X025226Y013299D01*
X025226Y013201D02*
X031390Y013201D01*
X031390Y013102D02*
X025226Y013102D01*
X025226Y013004D02*
X031390Y013004D01*
X031390Y012905D02*
X025226Y012905D01*
X025226Y012807D02*
X031390Y012807D01*
X031390Y012708D02*
X025226Y012708D01*
X025226Y012610D02*
X031390Y012610D01*
X031390Y012511D02*
X025226Y012511D01*
X025226Y012413D02*
X031390Y012413D01*
X031390Y012314D02*
X025226Y012314D01*
X025226Y012216D02*
X031390Y012216D01*
X031390Y012117D02*
X025226Y012117D01*
X025226Y012019D02*
X031390Y012019D01*
X031328Y015466D02*
X024793Y015466D01*
X024696Y015565D02*
X031229Y015565D01*
X031131Y015663D02*
X021725Y015663D01*
X021789Y015565D02*
X023664Y015565D01*
X023567Y015466D02*
X021789Y015466D01*
X021789Y015368D02*
X023567Y015368D01*
X023567Y015269D02*
X021705Y015269D01*
X021420Y015171D02*
X023617Y015171D01*
X023715Y015072D02*
X021420Y015072D01*
X021417Y014974D02*
X023957Y014974D01*
X023957Y014875D02*
X021318Y014875D01*
X021162Y014777D02*
X023957Y014777D01*
X023957Y014678D02*
X021261Y014678D01*
X021359Y014580D02*
X023957Y014580D01*
X023957Y014481D02*
X021458Y014481D01*
X021556Y014383D02*
X023957Y014383D01*
X023957Y014284D02*
X021655Y014284D01*
X021399Y014087D02*
X020710Y014087D01*
X020710Y014186D02*
X021301Y014186D01*
X021202Y014284D02*
X020681Y014284D01*
X020583Y014383D02*
X021104Y014383D01*
X021005Y014481D02*
X020078Y014481D01*
X019980Y014383D02*
X020241Y014383D01*
X020143Y014284D02*
X019881Y014284D01*
X019783Y014186D02*
X020114Y014186D01*
X020114Y014087D02*
X019684Y014087D01*
X019586Y013989D02*
X019847Y013989D01*
X019749Y013890D02*
X019533Y013890D01*
X019533Y013792D02*
X019724Y013792D01*
X019724Y013693D02*
X019533Y013693D01*
X019533Y013595D02*
X019748Y013595D01*
X019846Y013496D02*
X019483Y013496D01*
X019385Y013398D02*
X019862Y013398D01*
X019862Y013299D02*
X017185Y013299D01*
X017185Y013201D02*
X019862Y013201D01*
X019862Y013102D02*
X017185Y013102D01*
X017185Y013004D02*
X019862Y013004D01*
X019862Y012905D02*
X017185Y012905D01*
X017300Y012807D02*
X019862Y012807D01*
X019862Y012708D02*
X017398Y012708D01*
X017338Y012769D02*
X017338Y012769D01*
X017497Y012610D02*
X019862Y012610D01*
X019862Y012511D02*
X017595Y012511D01*
X017694Y012413D02*
X019862Y012413D01*
X019862Y012314D02*
X019413Y012314D01*
X019511Y012216D02*
X019862Y012216D01*
X019862Y012117D02*
X019541Y012117D01*
X019541Y012019D02*
X019862Y012019D01*
X019862Y011920D02*
X019522Y011920D01*
X019619Y011822D02*
X019423Y011822D01*
X019484Y011723D02*
X019521Y011723D01*
X018974Y012216D02*
X017891Y012216D01*
X017792Y012314D02*
X019073Y012314D01*
X020572Y012314D02*
X021700Y012314D01*
X021700Y012216D02*
X020572Y012216D01*
X020572Y012117D02*
X021700Y012117D01*
X021700Y012019D02*
X020572Y012019D01*
X020572Y011920D02*
X021657Y011920D01*
X021363Y011822D02*
X020572Y011822D01*
X020580Y011526D02*
X021265Y011526D01*
X021314Y011428D02*
X020580Y011428D01*
X020490Y011329D02*
X021413Y011329D01*
X021714Y011329D02*
X021726Y011329D01*
X021813Y011428D02*
X021824Y011428D01*
X021862Y011526D02*
X021923Y011526D01*
X021862Y011625D02*
X022021Y011625D01*
X022120Y011723D02*
X021913Y011723D01*
X022011Y011822D02*
X022218Y011822D01*
X022317Y011920D02*
X022020Y011920D01*
X022020Y012019D02*
X022415Y012019D01*
X022514Y012117D02*
X022020Y012117D01*
X022020Y012216D02*
X022612Y012216D01*
X022711Y012314D02*
X022020Y012314D01*
X022020Y012413D02*
X022809Y012413D01*
X022908Y012511D02*
X022020Y012511D01*
X022020Y012610D02*
X023006Y012610D01*
X023105Y012708D02*
X022020Y012708D01*
X022020Y012807D02*
X023203Y012807D01*
X023302Y012905D02*
X022020Y012905D01*
X022020Y013004D02*
X023370Y013004D01*
X023370Y013102D02*
X022020Y013102D01*
X022020Y013201D02*
X023370Y013201D01*
X023370Y013299D02*
X022020Y013299D01*
X022020Y013398D02*
X023370Y013398D01*
X023370Y013496D02*
X022020Y013496D01*
X022020Y013595D02*
X023279Y013595D01*
X023232Y013693D02*
X022074Y013693D01*
X022158Y013792D02*
X023232Y013792D01*
X023233Y013890D02*
X022158Y013890D01*
X022158Y013989D02*
X023332Y013989D01*
X023728Y013989D02*
X023957Y013989D01*
X023957Y014087D02*
X022095Y014087D01*
X021996Y014186D02*
X023957Y014186D01*
X023957Y013890D02*
X023827Y013890D01*
X023828Y013792D02*
X023957Y013792D01*
X023957Y013693D02*
X023828Y013693D01*
X023781Y013595D02*
X023957Y013595D01*
X023957Y013496D02*
X023690Y013496D01*
X023690Y013398D02*
X023957Y013398D01*
X023957Y013299D02*
X023690Y013299D01*
X023690Y013201D02*
X023957Y013201D01*
X023957Y013102D02*
X023690Y013102D01*
X023690Y013004D02*
X023957Y013004D01*
X023957Y012905D02*
X023690Y012905D01*
X023656Y012807D02*
X023957Y012807D01*
X023957Y012708D02*
X023557Y012708D01*
X023459Y012610D02*
X023957Y012610D01*
X023957Y012511D02*
X023360Y012511D01*
X023262Y012413D02*
X023957Y012413D01*
X023957Y012314D02*
X023163Y012314D01*
X023065Y012216D02*
X023957Y012216D01*
X023957Y012117D02*
X022966Y012117D01*
X022868Y012019D02*
X023957Y012019D01*
X023957Y011920D02*
X022769Y011920D01*
X022671Y011822D02*
X023728Y011822D01*
X023629Y011723D02*
X022572Y011723D01*
X022474Y011625D02*
X023567Y011625D01*
X023567Y011526D02*
X022375Y011526D01*
X022277Y011428D02*
X023567Y011428D01*
X023651Y011329D02*
X022178Y011329D01*
X022271Y010246D02*
X024435Y010246D01*
X024346Y010147D02*
X022369Y010147D01*
X022399Y010049D02*
X024323Y010049D01*
X024225Y009950D02*
X022399Y009950D01*
X022380Y009852D02*
X024126Y009852D01*
X024028Y009753D02*
X022282Y009753D01*
X021700Y012413D02*
X020572Y012413D01*
X020572Y012511D02*
X021700Y012511D01*
X021700Y012610D02*
X020572Y012610D01*
X020572Y012708D02*
X021700Y012708D01*
X021700Y012807D02*
X020572Y012807D01*
X020572Y012905D02*
X021700Y012905D01*
X021700Y013004D02*
X020572Y013004D01*
X020572Y013102D02*
X021700Y013102D01*
X021700Y013201D02*
X020572Y013201D01*
X020572Y013299D02*
X021700Y013299D01*
X021700Y013398D02*
X020572Y013398D01*
X020572Y013496D02*
X021700Y013496D01*
X021700Y013595D02*
X020572Y013595D01*
X020572Y013693D02*
X021645Y013693D01*
X021562Y013792D02*
X020572Y013792D01*
X020592Y013890D02*
X021562Y013890D01*
X021498Y013989D02*
X020691Y013989D01*
X021053Y016559D02*
X021100Y016606D01*
X021100Y016853D01*
X020925Y017028D01*
X020730Y017028D01*
X019663Y018095D01*
X019569Y018189D01*
X019115Y018189D01*
X018976Y018327D01*
X018729Y018327D01*
X018555Y018153D01*
X018555Y018034D01*
X018233Y018355D01*
X018233Y018355D01*
X018198Y018391D01*
X020216Y018389D01*
X020504Y018101D01*
X020504Y017906D01*
X020678Y017731D01*
X020925Y017731D01*
X021100Y017906D01*
X021100Y018153D01*
X020925Y018327D01*
X020730Y018327D01*
X020416Y018641D01*
X021458Y018641D01*
X021489Y018628D01*
X021522Y018641D01*
X021557Y018641D01*
X021560Y018644D01*
X021904Y018644D01*
X021908Y018640D01*
X022425Y018122D01*
X024585Y018122D01*
X024724Y017984D01*
X024970Y017984D01*
X025145Y018159D01*
X025145Y018406D01*
X024970Y018580D01*
X024724Y018580D01*
X024585Y018442D01*
X022558Y018442D01*
X022134Y018866D01*
X022134Y018870D01*
X022040Y018964D01*
X021517Y018964D01*
X021486Y018977D01*
X021453Y018964D01*
X021418Y018964D01*
X021415Y018961D01*
X017185Y018961D01*
X017185Y022984D01*
X018904Y022984D01*
X017783Y021863D01*
X017783Y019912D01*
X017877Y019818D01*
X018165Y019530D01*
X018165Y019335D01*
X018340Y019160D01*
X018587Y019160D01*
X018761Y019335D01*
X018761Y019582D01*
X018587Y019756D01*
X018391Y019756D01*
X018103Y020044D01*
X018103Y021731D01*
X019179Y022806D01*
X020704Y022806D01*
X020669Y022771D01*
X020669Y022524D01*
X020844Y022349D01*
X021039Y022349D01*
X021354Y022034D01*
X021448Y021940D01*
X023630Y021940D01*
X024674Y022984D01*
X025253Y022984D01*
X025253Y022983D01*
X025427Y022809D01*
X025674Y022809D01*
X025849Y022983D01*
X025849Y022984D01*
X028398Y022984D01*
X028398Y021954D01*
X027204Y020760D01*
X027110Y020760D01*
X027264Y020914D01*
X027264Y021286D01*
X027000Y021550D01*
X026627Y021550D01*
X026608Y021531D01*
X026474Y021666D01*
X026380Y021760D01*
X026110Y021760D01*
X026264Y021914D01*
X026264Y022286D01*
X026000Y022550D01*
X025627Y022550D01*
X025364Y022286D01*
X025364Y021914D01*
X025517Y021760D01*
X019747Y021760D01*
X019087Y021100D01*
X018993Y021006D01*
X018993Y020922D01*
X018855Y020784D01*
X018855Y020537D01*
X019030Y020362D01*
X019277Y020362D01*
X019451Y020537D01*
X019451Y020784D01*
X019337Y020897D01*
X019880Y021440D01*
X025517Y021440D01*
X025364Y021286D01*
X025364Y021260D01*
X020247Y021260D01*
X019747Y020760D01*
X019654Y020666D01*
X019654Y020612D01*
X019515Y020473D01*
X019515Y020227D01*
X019642Y020100D01*
X019515Y019973D01*
X019515Y019727D01*
X019690Y019552D01*
X019937Y019552D01*
X020075Y019690D01*
X020130Y019690D01*
X020224Y019784D01*
X020880Y020440D01*
X025517Y020440D01*
X025364Y020286D01*
X025364Y019914D01*
X025627Y019650D01*
X026000Y019650D01*
X026264Y019914D01*
X026264Y020286D01*
X026110Y020440D01*
X026517Y020440D01*
X026364Y020286D01*
X026364Y019914D01*
X026627Y019650D01*
X027000Y019650D01*
X027264Y019914D01*
X027264Y020286D01*
X027110Y020440D01*
X027337Y020440D01*
X027430Y020534D01*
X028718Y021821D01*
X028718Y022984D01*
X031516Y022984D01*
X031516Y020771D01*
X031378Y020633D01*
X031378Y020386D01*
X031552Y020211D01*
X031799Y020211D01*
X031974Y020386D01*
X031974Y020633D01*
X031836Y020771D01*
X031836Y022984D01*
X032234Y022984D01*
X032234Y015942D01*
X032207Y015969D01*
X031616Y016559D01*
X021053Y016559D01*
X021100Y016648D02*
X032234Y016648D01*
X032234Y016550D02*
X031626Y016550D01*
X031724Y016451D02*
X032234Y016451D01*
X032234Y016353D02*
X031823Y016353D01*
X031921Y016254D02*
X032234Y016254D01*
X032234Y016156D02*
X032020Y016156D01*
X032118Y016057D02*
X032234Y016057D01*
X032234Y015959D02*
X032217Y015959D01*
X032234Y016747D02*
X021100Y016747D01*
X021100Y016845D02*
X022450Y016845D01*
X022481Y016814D02*
X022728Y016814D01*
X022866Y016952D01*
X024233Y016952D01*
X024371Y016814D01*
X024618Y016814D01*
X024793Y016988D01*
X024793Y017235D01*
X024618Y017410D01*
X024371Y017410D01*
X024233Y017272D01*
X022866Y017272D01*
X022728Y017410D01*
X022481Y017410D01*
X022307Y017235D01*
X022307Y016988D01*
X022481Y016814D01*
X022352Y016944D02*
X021010Y016944D01*
X020716Y017042D02*
X022307Y017042D01*
X022307Y017141D02*
X020617Y017141D01*
X020519Y017239D02*
X022311Y017239D01*
X022409Y017338D02*
X020420Y017338D01*
X020322Y017436D02*
X032234Y017436D01*
X032234Y017338D02*
X024691Y017338D01*
X024789Y017239D02*
X032234Y017239D01*
X032234Y017141D02*
X024793Y017141D01*
X024793Y017042D02*
X032234Y017042D01*
X032234Y016944D02*
X024748Y016944D01*
X024649Y016845D02*
X032234Y016845D01*
X032234Y017535D02*
X020223Y017535D01*
X020125Y017633D02*
X032234Y017633D01*
X032234Y017732D02*
X027081Y017732D01*
X027000Y017650D02*
X027264Y017914D01*
X027264Y018286D01*
X027000Y018550D01*
X026627Y018550D01*
X026364Y018286D01*
X026364Y017914D01*
X026627Y017650D01*
X027000Y017650D01*
X027180Y017830D02*
X032234Y017830D01*
X032234Y017929D02*
X027264Y017929D01*
X027264Y018027D02*
X032234Y018027D01*
X032234Y018126D02*
X027264Y018126D01*
X027264Y018224D02*
X032234Y018224D01*
X032234Y018323D02*
X027227Y018323D01*
X027129Y018421D02*
X032234Y018421D01*
X032234Y018520D02*
X027030Y018520D01*
X027000Y018650D02*
X027264Y018914D01*
X027264Y019286D01*
X027000Y019550D01*
X026627Y019550D01*
X026364Y019286D01*
X026364Y018914D01*
X026263Y018914D01*
X026264Y018914D02*
X026000Y018650D01*
X025627Y018650D01*
X025364Y018914D01*
X022090Y018914D01*
X022185Y018815D02*
X025462Y018815D01*
X025364Y018914D02*
X025364Y019286D01*
X025627Y019550D01*
X026000Y019550D01*
X026264Y019286D01*
X026264Y018914D01*
X026264Y019012D02*
X026364Y019012D01*
X026364Y018914D02*
X026627Y018650D01*
X027000Y018650D01*
X027066Y018717D02*
X032234Y018717D01*
X032234Y018815D02*
X027165Y018815D01*
X027263Y018914D02*
X032234Y018914D01*
X032234Y019012D02*
X027264Y019012D01*
X027264Y019111D02*
X032234Y019111D01*
X032234Y019209D02*
X027264Y019209D01*
X027242Y019308D02*
X032234Y019308D01*
X032234Y019406D02*
X027144Y019406D01*
X027045Y019505D02*
X032234Y019505D01*
X032234Y019603D02*
X019988Y019603D01*
X020141Y019702D02*
X025576Y019702D01*
X025477Y019800D02*
X020240Y019800D01*
X020338Y019899D02*
X025379Y019899D01*
X025364Y019997D02*
X020437Y019997D01*
X020535Y020096D02*
X025364Y020096D01*
X025364Y020194D02*
X020634Y020194D01*
X020732Y020293D02*
X025370Y020293D01*
X025468Y020391D02*
X020831Y020391D01*
X020068Y021081D02*
X019520Y021081D01*
X019619Y021179D02*
X020166Y021179D01*
X019969Y020982D02*
X019422Y020982D01*
X019351Y020884D02*
X019871Y020884D01*
X019772Y020785D02*
X019450Y020785D01*
X019451Y020687D02*
X019674Y020687D01*
X019630Y020588D02*
X019451Y020588D01*
X019404Y020490D02*
X019532Y020490D01*
X019515Y020391D02*
X019306Y020391D01*
X019515Y020293D02*
X018103Y020293D01*
X018103Y020391D02*
X019001Y020391D01*
X018902Y020490D02*
X018103Y020490D01*
X018103Y020588D02*
X018855Y020588D01*
X018855Y020687D02*
X018103Y020687D01*
X018103Y020785D02*
X018857Y020785D01*
X018955Y020884D02*
X018103Y020884D01*
X018103Y020982D02*
X018993Y020982D01*
X019068Y021081D02*
X018103Y021081D01*
X018103Y021179D02*
X019166Y021179D01*
X019265Y021278D02*
X018103Y021278D01*
X018103Y021376D02*
X019363Y021376D01*
X019462Y021475D02*
X018103Y021475D01*
X018103Y021573D02*
X019560Y021573D01*
X019659Y021672D02*
X018103Y021672D01*
X018143Y021770D02*
X025507Y021770D01*
X025409Y021869D02*
X018241Y021869D01*
X018340Y021967D02*
X021421Y021967D01*
X021323Y022066D02*
X018438Y022066D01*
X018537Y022164D02*
X021224Y022164D01*
X021126Y022263D02*
X018635Y022263D01*
X018734Y022361D02*
X020832Y022361D01*
X020733Y022460D02*
X018832Y022460D01*
X018931Y022558D02*
X020669Y022558D01*
X020669Y022657D02*
X019029Y022657D01*
X019128Y022755D02*
X020669Y022755D01*
X019816Y021376D02*
X025453Y021376D01*
X025364Y021278D02*
X019717Y021278D01*
X019548Y020194D02*
X018103Y020194D01*
X018103Y020096D02*
X019638Y020096D01*
X019539Y019997D02*
X018151Y019997D01*
X018249Y019899D02*
X019515Y019899D01*
X019515Y019800D02*
X018348Y019800D01*
X018641Y019702D02*
X019540Y019702D01*
X019639Y019603D02*
X018740Y019603D01*
X018761Y019505D02*
X025582Y019505D01*
X025483Y019406D02*
X018761Y019406D01*
X018734Y019308D02*
X025385Y019308D01*
X025364Y019209D02*
X018636Y019209D01*
X018291Y019209D02*
X017185Y019209D01*
X017185Y019111D02*
X025364Y019111D01*
X025364Y019012D02*
X017185Y019012D01*
X017185Y019308D02*
X018192Y019308D01*
X018165Y019406D02*
X017185Y019406D01*
X017185Y019505D02*
X018165Y019505D01*
X018092Y019603D02*
X017185Y019603D01*
X017185Y019702D02*
X017994Y019702D01*
X017895Y019800D02*
X017185Y019800D01*
X017185Y019899D02*
X017797Y019899D01*
X017783Y019997D02*
X017185Y019997D01*
X017185Y020096D02*
X017783Y020096D01*
X017783Y020194D02*
X017185Y020194D01*
X017185Y020293D02*
X017783Y020293D01*
X017783Y020391D02*
X017185Y020391D01*
X017185Y020490D02*
X017783Y020490D01*
X017783Y020588D02*
X017185Y020588D01*
X017185Y020687D02*
X017783Y020687D01*
X017783Y020785D02*
X017185Y020785D01*
X017185Y020884D02*
X017783Y020884D01*
X017783Y020982D02*
X017185Y020982D01*
X017185Y021081D02*
X017783Y021081D01*
X017783Y021179D02*
X017185Y021179D01*
X017185Y021278D02*
X017783Y021278D01*
X017783Y021376D02*
X017185Y021376D01*
X017185Y021475D02*
X017783Y021475D01*
X017783Y021573D02*
X017185Y021573D01*
X017185Y021672D02*
X017783Y021672D01*
X017783Y021770D02*
X017185Y021770D01*
X017185Y021869D02*
X017789Y021869D01*
X017887Y021967D02*
X017185Y021967D01*
X017185Y022066D02*
X017986Y022066D01*
X018084Y022164D02*
X017185Y022164D01*
X017185Y022263D02*
X018183Y022263D01*
X018281Y022361D02*
X017185Y022361D01*
X017185Y022460D02*
X018380Y022460D01*
X018478Y022558D02*
X017185Y022558D01*
X017185Y022657D02*
X018577Y022657D01*
X018675Y022755D02*
X017185Y022755D01*
X017185Y022854D02*
X018774Y022854D01*
X018872Y022952D02*
X017185Y022952D01*
X020439Y018618D02*
X021929Y018618D01*
X022028Y018520D02*
X020538Y018520D01*
X020636Y018421D02*
X022126Y018421D01*
X022225Y018323D02*
X020930Y018323D01*
X021028Y018224D02*
X022323Y018224D01*
X022422Y018126D02*
X021100Y018126D01*
X021100Y018027D02*
X024680Y018027D01*
X025014Y018027D02*
X025364Y018027D01*
X025364Y017929D02*
X021100Y017929D01*
X021024Y017830D02*
X025447Y017830D01*
X025364Y017914D02*
X025627Y017650D01*
X026000Y017650D01*
X026264Y017914D01*
X026264Y018286D01*
X026000Y018550D01*
X025627Y018550D01*
X025364Y018286D01*
X025364Y017914D01*
X025364Y018126D02*
X025112Y018126D01*
X025145Y018224D02*
X025364Y018224D01*
X025400Y018323D02*
X025145Y018323D01*
X025130Y018421D02*
X025498Y018421D01*
X025597Y018520D02*
X025031Y018520D01*
X024663Y018520D02*
X022481Y018520D01*
X022382Y018618D02*
X032234Y018618D01*
X032234Y019702D02*
X027051Y019702D01*
X027150Y019800D02*
X032234Y019800D01*
X032234Y019899D02*
X027248Y019899D01*
X027264Y019997D02*
X032234Y019997D01*
X032234Y020096D02*
X027264Y020096D01*
X027264Y020194D02*
X032234Y020194D01*
X032234Y020293D02*
X031880Y020293D01*
X031974Y020391D02*
X032234Y020391D01*
X032234Y020490D02*
X031974Y020490D01*
X031974Y020588D02*
X032234Y020588D01*
X032234Y020687D02*
X031920Y020687D01*
X031836Y020785D02*
X032234Y020785D01*
X032234Y020884D02*
X031836Y020884D01*
X031836Y020982D02*
X032234Y020982D01*
X032234Y021081D02*
X031836Y021081D01*
X031836Y021179D02*
X032234Y021179D01*
X032234Y021278D02*
X031836Y021278D01*
X031836Y021376D02*
X032234Y021376D01*
X032234Y021475D02*
X031836Y021475D01*
X031836Y021573D02*
X032234Y021573D01*
X032234Y021672D02*
X031836Y021672D01*
X031836Y021770D02*
X032234Y021770D01*
X032234Y021869D02*
X031836Y021869D01*
X031836Y021967D02*
X032234Y021967D01*
X032234Y022066D02*
X031836Y022066D01*
X031836Y022164D02*
X032234Y022164D01*
X032234Y022263D02*
X031836Y022263D01*
X031836Y022361D02*
X032234Y022361D01*
X032234Y022460D02*
X031836Y022460D01*
X031836Y022558D02*
X032234Y022558D01*
X032234Y022657D02*
X031836Y022657D01*
X031836Y022755D02*
X032234Y022755D01*
X032234Y022854D02*
X031836Y022854D01*
X031836Y022952D02*
X032234Y022952D01*
X031516Y022952D02*
X028718Y022952D01*
X028718Y022854D02*
X031516Y022854D01*
X031516Y022755D02*
X028718Y022755D01*
X028718Y022657D02*
X031516Y022657D01*
X031516Y022558D02*
X028718Y022558D01*
X028718Y022460D02*
X031516Y022460D01*
X031516Y022361D02*
X028718Y022361D01*
X028718Y022263D02*
X031516Y022263D01*
X031516Y022164D02*
X028718Y022164D01*
X028718Y022066D02*
X031516Y022066D01*
X031516Y021967D02*
X028718Y021967D01*
X028718Y021869D02*
X031516Y021869D01*
X031516Y021770D02*
X028667Y021770D01*
X028568Y021672D02*
X031516Y021672D01*
X031516Y021573D02*
X028470Y021573D01*
X028371Y021475D02*
X031516Y021475D01*
X031516Y021376D02*
X028273Y021376D01*
X028174Y021278D02*
X031516Y021278D01*
X031516Y021179D02*
X028076Y021179D01*
X027977Y021081D02*
X031516Y021081D01*
X031516Y020982D02*
X027879Y020982D01*
X027780Y020884D02*
X031516Y020884D01*
X031516Y020785D02*
X027682Y020785D01*
X027583Y020687D02*
X031431Y020687D01*
X031378Y020588D02*
X027485Y020588D01*
X027386Y020490D02*
X031378Y020490D01*
X031378Y020391D02*
X027159Y020391D01*
X027257Y020293D02*
X031471Y020293D01*
X028398Y021967D02*
X027264Y021967D01*
X027264Y021914D02*
X027000Y021650D01*
X026627Y021650D01*
X026364Y021914D01*
X026364Y022286D01*
X026627Y022550D01*
X027000Y022550D01*
X027264Y022286D01*
X027264Y021914D01*
X027218Y021869D02*
X028313Y021869D01*
X028214Y021770D02*
X027120Y021770D01*
X027021Y021672D02*
X028116Y021672D01*
X028017Y021573D02*
X026567Y021573D01*
X026606Y021672D02*
X026468Y021672D01*
X026507Y021770D02*
X026120Y021770D01*
X026218Y021869D02*
X026409Y021869D01*
X026364Y021967D02*
X026264Y021967D01*
X026264Y022066D02*
X026364Y022066D01*
X026364Y022164D02*
X026264Y022164D01*
X026264Y022263D02*
X026364Y022263D01*
X026438Y022361D02*
X026189Y022361D01*
X026090Y022460D02*
X026537Y022460D01*
X027090Y022460D02*
X028398Y022460D01*
X028398Y022558D02*
X024248Y022558D01*
X024346Y022657D02*
X028398Y022657D01*
X028398Y022755D02*
X024445Y022755D01*
X024543Y022854D02*
X025382Y022854D01*
X025284Y022952D02*
X024642Y022952D01*
X024149Y022460D02*
X025537Y022460D01*
X025438Y022361D02*
X024051Y022361D01*
X023952Y022263D02*
X025364Y022263D01*
X025364Y022164D02*
X023854Y022164D01*
X023755Y022066D02*
X025364Y022066D01*
X025364Y021967D02*
X023657Y021967D01*
X025719Y022854D02*
X028398Y022854D01*
X028398Y022952D02*
X025818Y022952D01*
X027189Y022361D02*
X028398Y022361D01*
X028398Y022263D02*
X027264Y022263D01*
X027264Y022164D02*
X028398Y022164D01*
X028398Y022066D02*
X027264Y022066D01*
X027075Y021475D02*
X027919Y021475D01*
X027820Y021376D02*
X027174Y021376D01*
X027264Y021278D02*
X027722Y021278D01*
X027623Y021179D02*
X027264Y021179D01*
X027264Y021081D02*
X027525Y021081D01*
X027426Y020982D02*
X027264Y020982D01*
X027233Y020884D02*
X027328Y020884D01*
X027229Y020785D02*
X027135Y020785D01*
X026468Y020391D02*
X026159Y020391D01*
X026257Y020293D02*
X026370Y020293D01*
X026364Y020194D02*
X026264Y020194D01*
X026264Y020096D02*
X026364Y020096D01*
X026364Y019997D02*
X026264Y019997D01*
X026248Y019899D02*
X026379Y019899D01*
X026477Y019800D02*
X026150Y019800D01*
X026051Y019702D02*
X026576Y019702D01*
X026582Y019505D02*
X026045Y019505D01*
X026144Y019406D02*
X026483Y019406D01*
X026385Y019308D02*
X026242Y019308D01*
X026264Y019209D02*
X026364Y019209D01*
X026364Y019111D02*
X026264Y019111D01*
X026165Y018815D02*
X026462Y018815D01*
X026561Y018717D02*
X026066Y018717D01*
X026030Y018520D02*
X026597Y018520D01*
X026498Y018421D02*
X026129Y018421D01*
X026227Y018323D02*
X026400Y018323D01*
X026364Y018224D02*
X026264Y018224D01*
X026264Y018126D02*
X026364Y018126D01*
X026364Y018027D02*
X026264Y018027D01*
X026264Y017929D02*
X026364Y017929D01*
X026447Y017830D02*
X026180Y017830D01*
X026081Y017732D02*
X026546Y017732D01*
X025546Y017732D02*
X020926Y017732D01*
X020678Y017732D02*
X020026Y017732D01*
X019928Y017830D02*
X020579Y017830D01*
X020504Y017929D02*
X019829Y017929D01*
X019731Y018027D02*
X020504Y018027D01*
X020479Y018126D02*
X019632Y018126D01*
X019080Y018224D02*
X020381Y018224D01*
X020282Y018323D02*
X018981Y018323D01*
X018725Y018323D02*
X018266Y018323D01*
X018365Y018224D02*
X018626Y018224D01*
X018555Y018126D02*
X018463Y018126D01*
X022284Y018717D02*
X025561Y018717D01*
X024299Y017338D02*
X022801Y017338D01*
X022858Y016944D02*
X024241Y016944D01*
X024340Y016845D02*
X022760Y016845D01*
X024066Y015565D02*
X024294Y015565D01*
X024197Y015466D02*
X024163Y015466D01*
X024163Y015368D02*
X024197Y015368D01*
X024197Y015269D02*
X024166Y015269D01*
M02*
