G75*
G70*
%OFA0B0*%
%FSLAX24Y24*%
%IPPOS*%
%LPD*%
%AMOC8*
5,1,8,0,0,1.08239X$1,22.5*
%
%ADD10C,0.0000*%
D10*
X001314Y000100D02*
X001314Y031596D01*
X032684Y031596D01*
X032684Y000100D01*
X001314Y000100D01*
X001987Y001600D02*
X001989Y001657D01*
X001995Y001714D01*
X002005Y001770D01*
X002018Y001826D01*
X002036Y001880D01*
X002057Y001933D01*
X002082Y001984D01*
X002110Y002034D01*
X002142Y002081D01*
X002176Y002127D01*
X002214Y002169D01*
X002255Y002209D01*
X002298Y002247D01*
X002344Y002281D01*
X002392Y002311D01*
X002442Y002339D01*
X002494Y002363D01*
X002548Y002383D01*
X002602Y002399D01*
X002658Y002412D01*
X002714Y002421D01*
X002771Y002426D01*
X002828Y002427D01*
X002885Y002424D01*
X002942Y002417D01*
X002998Y002406D01*
X003053Y002392D01*
X003107Y002373D01*
X003160Y002351D01*
X003211Y002326D01*
X003260Y002296D01*
X003307Y002264D01*
X003352Y002228D01*
X003394Y002190D01*
X003433Y002148D01*
X003469Y002104D01*
X003503Y002058D01*
X003533Y002009D01*
X003559Y001959D01*
X003582Y001907D01*
X003601Y001853D01*
X003617Y001798D01*
X003629Y001742D01*
X003637Y001685D01*
X003641Y001629D01*
X003641Y001571D01*
X003637Y001515D01*
X003629Y001458D01*
X003617Y001402D01*
X003601Y001347D01*
X003582Y001293D01*
X003559Y001241D01*
X003533Y001191D01*
X003503Y001142D01*
X003469Y001096D01*
X003433Y001052D01*
X003394Y001010D01*
X003352Y000972D01*
X003307Y000936D01*
X003260Y000904D01*
X003211Y000874D01*
X003160Y000849D01*
X003107Y000827D01*
X003053Y000808D01*
X002998Y000794D01*
X002942Y000783D01*
X002885Y000776D01*
X002828Y000773D01*
X002771Y000774D01*
X002714Y000779D01*
X002658Y000788D01*
X002602Y000801D01*
X002548Y000817D01*
X002494Y000837D01*
X002442Y000861D01*
X002392Y000889D01*
X002344Y000919D01*
X002298Y000953D01*
X002255Y000991D01*
X002214Y001031D01*
X002176Y001073D01*
X002142Y001119D01*
X002110Y001166D01*
X002082Y001216D01*
X002057Y001267D01*
X002036Y001320D01*
X002018Y001374D01*
X002005Y001430D01*
X001995Y001486D01*
X001989Y001543D01*
X001987Y001600D01*
X001987Y030100D02*
X001989Y030157D01*
X001995Y030214D01*
X002005Y030270D01*
X002018Y030326D01*
X002036Y030380D01*
X002057Y030433D01*
X002082Y030484D01*
X002110Y030534D01*
X002142Y030581D01*
X002176Y030627D01*
X002214Y030669D01*
X002255Y030709D01*
X002298Y030747D01*
X002344Y030781D01*
X002392Y030811D01*
X002442Y030839D01*
X002494Y030863D01*
X002548Y030883D01*
X002602Y030899D01*
X002658Y030912D01*
X002714Y030921D01*
X002771Y030926D01*
X002828Y030927D01*
X002885Y030924D01*
X002942Y030917D01*
X002998Y030906D01*
X003053Y030892D01*
X003107Y030873D01*
X003160Y030851D01*
X003211Y030826D01*
X003260Y030796D01*
X003307Y030764D01*
X003352Y030728D01*
X003394Y030690D01*
X003433Y030648D01*
X003469Y030604D01*
X003503Y030558D01*
X003533Y030509D01*
X003559Y030459D01*
X003582Y030407D01*
X003601Y030353D01*
X003617Y030298D01*
X003629Y030242D01*
X003637Y030185D01*
X003641Y030129D01*
X003641Y030071D01*
X003637Y030015D01*
X003629Y029958D01*
X003617Y029902D01*
X003601Y029847D01*
X003582Y029793D01*
X003559Y029741D01*
X003533Y029691D01*
X003503Y029642D01*
X003469Y029596D01*
X003433Y029552D01*
X003394Y029510D01*
X003352Y029472D01*
X003307Y029436D01*
X003260Y029404D01*
X003211Y029374D01*
X003160Y029349D01*
X003107Y029327D01*
X003053Y029308D01*
X002998Y029294D01*
X002942Y029283D01*
X002885Y029276D01*
X002828Y029273D01*
X002771Y029274D01*
X002714Y029279D01*
X002658Y029288D01*
X002602Y029301D01*
X002548Y029317D01*
X002494Y029337D01*
X002442Y029361D01*
X002392Y029389D01*
X002344Y029419D01*
X002298Y029453D01*
X002255Y029491D01*
X002214Y029531D01*
X002176Y029573D01*
X002142Y029619D01*
X002110Y029666D01*
X002082Y029716D01*
X002057Y029767D01*
X002036Y029820D01*
X002018Y029874D01*
X002005Y029930D01*
X001995Y029986D01*
X001989Y030043D01*
X001987Y030100D01*
X030487Y030100D02*
X030489Y030157D01*
X030495Y030214D01*
X030505Y030270D01*
X030518Y030326D01*
X030536Y030380D01*
X030557Y030433D01*
X030582Y030484D01*
X030610Y030534D01*
X030642Y030581D01*
X030676Y030627D01*
X030714Y030669D01*
X030755Y030709D01*
X030798Y030747D01*
X030844Y030781D01*
X030892Y030811D01*
X030942Y030839D01*
X030994Y030863D01*
X031048Y030883D01*
X031102Y030899D01*
X031158Y030912D01*
X031214Y030921D01*
X031271Y030926D01*
X031328Y030927D01*
X031385Y030924D01*
X031442Y030917D01*
X031498Y030906D01*
X031553Y030892D01*
X031607Y030873D01*
X031660Y030851D01*
X031711Y030826D01*
X031760Y030796D01*
X031807Y030764D01*
X031852Y030728D01*
X031894Y030690D01*
X031933Y030648D01*
X031969Y030604D01*
X032003Y030558D01*
X032033Y030509D01*
X032059Y030459D01*
X032082Y030407D01*
X032101Y030353D01*
X032117Y030298D01*
X032129Y030242D01*
X032137Y030185D01*
X032141Y030129D01*
X032141Y030071D01*
X032137Y030015D01*
X032129Y029958D01*
X032117Y029902D01*
X032101Y029847D01*
X032082Y029793D01*
X032059Y029741D01*
X032033Y029691D01*
X032003Y029642D01*
X031969Y029596D01*
X031933Y029552D01*
X031894Y029510D01*
X031852Y029472D01*
X031807Y029436D01*
X031760Y029404D01*
X031711Y029374D01*
X031660Y029349D01*
X031607Y029327D01*
X031553Y029308D01*
X031498Y029294D01*
X031442Y029283D01*
X031385Y029276D01*
X031328Y029273D01*
X031271Y029274D01*
X031214Y029279D01*
X031158Y029288D01*
X031102Y029301D01*
X031048Y029317D01*
X030994Y029337D01*
X030942Y029361D01*
X030892Y029389D01*
X030844Y029419D01*
X030798Y029453D01*
X030755Y029491D01*
X030714Y029531D01*
X030676Y029573D01*
X030642Y029619D01*
X030610Y029666D01*
X030582Y029716D01*
X030557Y029767D01*
X030536Y029820D01*
X030518Y029874D01*
X030505Y029930D01*
X030495Y029986D01*
X030489Y030043D01*
X030487Y030100D01*
X030487Y001600D02*
X030489Y001657D01*
X030495Y001714D01*
X030505Y001770D01*
X030518Y001826D01*
X030536Y001880D01*
X030557Y001933D01*
X030582Y001984D01*
X030610Y002034D01*
X030642Y002081D01*
X030676Y002127D01*
X030714Y002169D01*
X030755Y002209D01*
X030798Y002247D01*
X030844Y002281D01*
X030892Y002311D01*
X030942Y002339D01*
X030994Y002363D01*
X031048Y002383D01*
X031102Y002399D01*
X031158Y002412D01*
X031214Y002421D01*
X031271Y002426D01*
X031328Y002427D01*
X031385Y002424D01*
X031442Y002417D01*
X031498Y002406D01*
X031553Y002392D01*
X031607Y002373D01*
X031660Y002351D01*
X031711Y002326D01*
X031760Y002296D01*
X031807Y002264D01*
X031852Y002228D01*
X031894Y002190D01*
X031933Y002148D01*
X031969Y002104D01*
X032003Y002058D01*
X032033Y002009D01*
X032059Y001959D01*
X032082Y001907D01*
X032101Y001853D01*
X032117Y001798D01*
X032129Y001742D01*
X032137Y001685D01*
X032141Y001629D01*
X032141Y001571D01*
X032137Y001515D01*
X032129Y001458D01*
X032117Y001402D01*
X032101Y001347D01*
X032082Y001293D01*
X032059Y001241D01*
X032033Y001191D01*
X032003Y001142D01*
X031969Y001096D01*
X031933Y001052D01*
X031894Y001010D01*
X031852Y000972D01*
X031807Y000936D01*
X031760Y000904D01*
X031711Y000874D01*
X031660Y000849D01*
X031607Y000827D01*
X031553Y000808D01*
X031498Y000794D01*
X031442Y000783D01*
X031385Y000776D01*
X031328Y000773D01*
X031271Y000774D01*
X031214Y000779D01*
X031158Y000788D01*
X031102Y000801D01*
X031048Y000817D01*
X030994Y000837D01*
X030942Y000861D01*
X030892Y000889D01*
X030844Y000919D01*
X030798Y000953D01*
X030755Y000991D01*
X030714Y001031D01*
X030676Y001073D01*
X030642Y001119D01*
X030610Y001166D01*
X030582Y001216D01*
X030557Y001267D01*
X030536Y001320D01*
X030518Y001374D01*
X030505Y001430D01*
X030495Y001486D01*
X030489Y001543D01*
X030487Y001600D01*
M02*
