G75*
G70*
%OFA0B0*%
%FSLAX24Y24*%
%IPPOS*%
%LPD*%
%AMOC8*
5,1,8,0,0,1.08239X$1,22.5*
%
%ADD10C,0.1734*%
%ADD11C,0.0060*%
%ADD12OC8,0.0780*%
%ADD13OC8,0.0476*%
D10*
X002814Y001600D03*
X031314Y001600D03*
X031314Y030100D03*
X002814Y030100D03*
D11*
X004255Y027378D02*
X004362Y027378D01*
X004576Y027164D01*
X004576Y026951D02*
X004576Y027378D01*
X004793Y027271D02*
X004793Y027164D01*
X005220Y027164D01*
X005220Y027058D02*
X005220Y027271D01*
X005114Y027378D01*
X004900Y027378D01*
X004793Y027271D01*
X004900Y026951D02*
X005114Y026951D01*
X005220Y027058D01*
X005438Y026951D02*
X005438Y027271D01*
X005545Y027378D01*
X005865Y027378D01*
X005865Y026951D01*
X006082Y027058D02*
X006082Y027271D01*
X006189Y027378D01*
X006509Y027378D01*
X006509Y027591D02*
X006509Y026951D01*
X006189Y026951D01*
X006082Y027058D01*
X006727Y027164D02*
X007154Y027164D01*
X007154Y027058D02*
X007154Y027271D01*
X007047Y027378D01*
X006834Y027378D01*
X006727Y027271D01*
X006727Y027164D01*
X006834Y026951D02*
X007047Y026951D01*
X007154Y027058D01*
X007371Y026951D02*
X007371Y027378D01*
X007371Y026951D02*
X007692Y026951D01*
X007798Y027058D01*
X007798Y027378D01*
X008016Y027271D02*
X008443Y027271D01*
X008443Y026951D02*
X008443Y027591D01*
X008016Y027591D02*
X008016Y026951D01*
X007755Y026254D02*
X007755Y025827D01*
X007648Y025721D01*
X007432Y025827D02*
X007432Y026041D01*
X007326Y026148D01*
X007112Y026148D01*
X007005Y026041D01*
X007005Y025934D01*
X007432Y025934D01*
X007432Y025827D02*
X007326Y025721D01*
X007112Y025721D01*
X006788Y025721D02*
X006788Y026148D01*
X006574Y026148D02*
X006467Y026148D01*
X006574Y026148D02*
X006788Y025934D01*
X006251Y025827D02*
X006144Y025827D01*
X006144Y025721D01*
X006251Y025721D01*
X006251Y025827D01*
X005928Y025827D02*
X005928Y026041D01*
X005822Y026148D01*
X005608Y026148D01*
X005501Y026041D01*
X005501Y025827D01*
X005608Y025721D01*
X005822Y025721D01*
X005928Y025827D01*
X005284Y025721D02*
X005284Y026148D01*
X005284Y025934D02*
X005070Y026148D01*
X004963Y026148D01*
X004747Y026041D02*
X004747Y025827D01*
X004640Y025721D01*
X004320Y025721D01*
X004320Y025614D02*
X004320Y026148D01*
X004640Y026148D01*
X004747Y026041D01*
X004533Y025507D02*
X004426Y025507D01*
X004320Y025614D01*
X007648Y026148D02*
X007862Y026148D01*
X008079Y026148D02*
X008186Y026148D01*
X008399Y025934D01*
X008399Y025721D02*
X008399Y026148D01*
X008617Y026041D02*
X008617Y025934D01*
X009044Y025934D01*
X009044Y025827D02*
X009044Y026041D01*
X008937Y026148D01*
X008723Y026148D01*
X008617Y026041D01*
X008723Y025721D02*
X008937Y025721D01*
X009044Y025827D01*
X009261Y026148D02*
X009475Y025721D01*
X009688Y026148D01*
X009906Y026041D02*
X009906Y025721D01*
X009906Y026041D02*
X010012Y026148D01*
X010333Y026148D01*
X010333Y025721D01*
X010549Y025721D02*
X010762Y025721D01*
X010656Y025721D02*
X010656Y026148D01*
X010762Y026148D01*
X010656Y026361D02*
X010656Y026468D01*
X010980Y026041D02*
X010980Y025721D01*
X010980Y026041D02*
X011087Y026148D01*
X011407Y026148D01*
X011407Y025721D01*
X011625Y025934D02*
X011625Y026041D01*
X011731Y026148D01*
X011945Y026148D01*
X012052Y026041D01*
X012052Y025827D01*
X011945Y025721D01*
X011731Y025721D01*
X011625Y025934D02*
X012052Y025934D01*
X012269Y026041D02*
X012269Y025827D01*
X012376Y025721D01*
X012696Y025721D01*
X012696Y025507D02*
X012696Y026148D01*
X012376Y026148D01*
X012269Y026041D01*
X012914Y026041D02*
X012914Y025827D01*
X013020Y025721D01*
X013234Y025721D01*
X013341Y025827D01*
X013341Y026041D01*
X013234Y026148D01*
X013020Y026148D01*
X012914Y026041D01*
X012955Y026951D02*
X012955Y027591D01*
X012848Y027378D02*
X012635Y027378D01*
X012528Y027271D01*
X012528Y026951D01*
X012310Y027058D02*
X012204Y027164D01*
X011883Y027164D01*
X011883Y027271D02*
X011883Y026951D01*
X012204Y026951D01*
X012310Y027058D01*
X012204Y027378D02*
X011990Y027378D01*
X011883Y027271D01*
X011666Y027378D02*
X011666Y026951D01*
X011666Y027378D02*
X011346Y027378D01*
X011239Y027271D01*
X011239Y026951D01*
X011021Y026951D02*
X011021Y027378D01*
X010701Y027378D01*
X010594Y027271D01*
X010594Y026951D01*
X010377Y027058D02*
X010377Y027271D01*
X010270Y027378D01*
X010056Y027378D01*
X009950Y027271D01*
X009950Y027164D01*
X010377Y027164D01*
X010377Y027058D02*
X010270Y026951D01*
X010056Y026951D01*
X009732Y026951D02*
X009412Y026951D01*
X009305Y027058D01*
X009412Y027164D01*
X009625Y027164D01*
X009732Y027271D01*
X009625Y027378D01*
X009305Y027378D01*
X012848Y027378D02*
X012955Y027271D01*
X013172Y027271D02*
X013172Y027058D01*
X013279Y026951D01*
X013493Y026951D01*
X013599Y027058D01*
X013599Y027271D01*
X013493Y027378D01*
X013279Y027378D01*
X013172Y027271D01*
X013817Y027591D02*
X014030Y027591D01*
X013924Y027591D02*
X013924Y027058D01*
X014030Y026951D01*
X014137Y026951D01*
X014244Y027058D01*
X015106Y027058D02*
X015213Y026951D01*
X015426Y026951D01*
X015533Y027058D01*
X015106Y027485D01*
X015106Y027058D01*
X015106Y027485D02*
X015213Y027591D01*
X015426Y027591D01*
X015533Y027485D01*
X015533Y027058D01*
X015751Y026951D02*
X016178Y026951D01*
X015751Y027378D01*
X015751Y027485D01*
X015857Y027591D01*
X016071Y027591D01*
X016178Y027485D01*
X016395Y027485D02*
X016395Y027058D01*
X016502Y026951D01*
X016715Y026951D01*
X016822Y027058D01*
X016395Y027485D01*
X016502Y027591D01*
X016715Y027591D01*
X016822Y027485D01*
X016822Y027058D01*
X017040Y026951D02*
X017467Y026951D01*
X017040Y027378D01*
X017040Y027485D01*
X017146Y027591D01*
X017360Y027591D01*
X017467Y027485D01*
X018327Y027378D02*
X018327Y027164D01*
X018541Y026951D01*
X018759Y026951D02*
X019079Y026951D01*
X019186Y027058D01*
X019186Y027271D01*
X019079Y027378D01*
X018759Y027378D01*
X018541Y027591D02*
X018327Y027378D01*
X019402Y027591D02*
X019615Y027378D01*
X019615Y027164D01*
X019402Y026951D01*
D12*
X019814Y029100D03*
X020814Y029100D03*
X021814Y029100D03*
X022814Y029100D03*
X023814Y029100D03*
X024814Y029100D03*
X024814Y030100D03*
X023814Y030100D03*
X022814Y030100D03*
X021814Y030100D03*
X020814Y030100D03*
X019814Y030100D03*
X018814Y030100D03*
X018814Y029100D03*
X017814Y029100D03*
X017814Y030100D03*
X025814Y022100D03*
X026814Y022100D03*
X026814Y021100D03*
X026814Y020100D03*
X026814Y019100D03*
X026814Y018100D03*
X025814Y018100D03*
X025814Y019100D03*
X025814Y020100D03*
X025814Y021100D03*
X007814Y020100D03*
X007814Y019100D03*
X007814Y018100D03*
X006814Y018100D03*
X006814Y019100D03*
X006814Y020100D03*
X006814Y017100D03*
X007814Y017100D03*
X007814Y016100D03*
X007814Y015100D03*
X007814Y014100D03*
X007814Y013100D03*
X007814Y012100D03*
X007814Y011100D03*
X006814Y011100D03*
X006814Y012100D03*
X006814Y013100D03*
X006814Y014100D03*
X006814Y015100D03*
X006814Y016100D03*
X006814Y010100D03*
X007814Y010100D03*
X007814Y009100D03*
X007814Y008100D03*
X006814Y008100D03*
X006814Y009100D03*
X019814Y003100D03*
X020814Y003100D03*
X021814Y003100D03*
X022814Y003100D03*
X023814Y003100D03*
X024814Y003100D03*
X025814Y003100D03*
X025814Y002100D03*
X024814Y002100D03*
X023814Y002100D03*
X022814Y002100D03*
X021814Y002100D03*
X020814Y002100D03*
X019814Y002100D03*
D13*
X020152Y003998D03*
X021985Y007113D03*
X021985Y008155D03*
X021013Y009324D03*
X020029Y008538D03*
X019503Y008538D03*
X019503Y010234D03*
X019762Y011543D03*
X020282Y011543D03*
X019243Y011543D03*
X019243Y012063D03*
X017814Y013100D03*
X018983Y013873D03*
X018983Y014391D03*
X019529Y014618D03*
X020022Y013742D03*
X020412Y014131D03*
X021122Y015100D03*
X021491Y015476D03*
X020802Y016730D03*
X020282Y016730D03*
X019768Y016730D03*
X018794Y016517D03*
X018825Y015848D03*
X017495Y016163D03*
X016692Y016463D03*
X016692Y017324D03*
X016191Y017723D03*
X016569Y018063D03*
X016200Y019416D03*
X016064Y020850D03*
X016064Y021850D03*
X017684Y019458D03*
X018463Y019458D03*
X019153Y020660D03*
X019814Y020350D03*
X019814Y019850D03*
X021601Y018120D03*
X020802Y018029D03*
X022605Y017112D03*
X023865Y015344D03*
X024495Y015344D03*
X025066Y014987D03*
X023530Y013765D03*
X022479Y013202D03*
X021860Y013900D03*
X021564Y011600D03*
X022101Y009994D03*
X022721Y009943D03*
X024317Y009058D03*
X024644Y010033D03*
X023865Y011537D03*
X027817Y011663D03*
X027817Y010602D03*
X030226Y009450D03*
X030936Y006076D03*
X027814Y003100D03*
X026719Y004902D03*
X023705Y007113D03*
X016980Y008527D03*
X016254Y009208D03*
X015735Y009851D03*
X015075Y009858D03*
X014066Y011143D03*
X013916Y011943D03*
X014585Y012572D03*
X014975Y013092D03*
X013978Y013482D03*
X013855Y014987D03*
X013855Y016463D03*
X014101Y017324D03*
X014075Y017846D03*
X014185Y018672D03*
X013978Y019416D03*
X010787Y019047D03*
X006604Y021754D03*
X003965Y019880D03*
X004020Y019100D03*
X004560Y019100D03*
X003814Y018100D03*
X002814Y018600D03*
X003528Y016832D03*
X003528Y016217D03*
X003528Y015750D03*
X003528Y015025D03*
X003528Y014295D03*
X003814Y010850D03*
X003581Y008801D03*
X003814Y007100D03*
X003814Y005100D03*
X003077Y005147D03*
X007815Y001326D03*
X010682Y005946D03*
X010636Y007155D03*
X010664Y009081D03*
X014900Y006624D03*
X015093Y007605D03*
X015725Y014261D03*
X018853Y018029D03*
X023231Y022486D03*
X022062Y023486D03*
X020967Y022647D03*
X020260Y023599D03*
X019064Y024509D03*
X022062Y025045D03*
X024745Y024547D03*
X025551Y023107D03*
X027636Y025801D03*
X026629Y026179D03*
X028644Y026179D03*
X027947Y028033D03*
X031542Y026179D03*
X031676Y025435D03*
X031676Y020509D03*
X031314Y017100D03*
X030814Y015100D03*
X025770Y017084D03*
X024495Y017112D03*
X024847Y018282D03*
X024197Y019785D03*
X010910Y024628D03*
X002175Y022246D03*
M02*
